<svg xmlns="http://www.w3.org/2000/svg" width="200" height="182.46" viewBox="0 0 200 182.46">
  <defs>
    <style>
      .cls-1 {
        fill: #e7bf44;
      }

      .cls-1, .cls-2 {
        isolation: isolate;
      }
    </style>
  </defs>
  <g id="for-_baggrund" data-name="for- + baggrund">
    <path class="cls-1" d="M148.37,55.67a23.86,23.86,0,0,0-7.5-7.92,2.92,2.92,0,0,0-1.79-.5l-.06-.06c-2.05-3.5-5.49-5.71-9.54-7a3.78,3.78,0,0,0-1.35-.41c-7.56-2.06-16.85-1.41-23.33-.42a72.41,72.41,0,0,0-7.48,1.55c-2.8.55-5.55,1.23-8.2,2A86.62,86.62,0,0,0,57.29,60.17C48.1,68.06,39.53,78.31,38.78,90.89c-.76,12.78,5.69,25.28,14.38,34.28,8.87,9.2,20.65,14.77,33.08,17.32,13,2.69,27,1.92,38.31-5.73a76.22,76.22,0,0,0,24.28-27.61,49.3,49.3,0,0,0,4.91-14.75,39.12,39.12,0,0,0,1.47-4.68A42,42,0,0,0,148.37,55.67ZM99.13,93.38,98,93.85s0-.11,0-.16l1.13-.45Zm14,41.4,1-.43a54.13,54.13,0,0,0,11.93-7.43A42.23,42.23,0,0,1,113.16,134.78Z"/>
    <g class="cls-2">
      <path d="M86.69,135.5a22.38,22.38,0,0,0,.66-10.72A38.31,38.31,0,0,0,84,114.93c-3-6.28-7-12.16-8.89-18.8a24.45,24.45,0,0,1,2.74-19.4A27.73,27.73,0,0,1,93.43,64.65a29.71,29.71,0,0,1,18.32.22,21.74,21.74,0,0,1,4,1.83,19.25,19.25,0,0,1,3.63,2.62,20,20,0,0,1,5.29,7.73c3,7.76,1.81,16.18-1.37,23.68a62.48,62.48,0,0,1-6.15,11c-2.18,3.18-4.65,6.16-6.68,9.44a25.83,25.83,0,0,0-3.94,11.06c-.05.42-.06.83-.11,1.05s-.08.33-.12.49-.11.27,0,0l-.12.22a2.25,2.25,0,0,1-.12.21s.17-.2.06-.08l-.28.28c.25-.24,0,0-.15.08l-.15.08c-.14.08.27-.07,0,0s-.53.15-.81.2c.31-.06,0,0-.16,0s-.4,0-.59,0a19.58,19.58,0,0,1-2-.13c-2.33-.24-4.66-.43-7-.67a36.48,36.48,0,0,0-7.88-.32A3.94,3.94,0,0,0,84.16,135a1.51,1.51,0,0,0,.54,2.05,1.53,1.53,0,0,0,2-.54c-.46.61.23-.16-.31.33a1,1,0,0,1,.18-.1s-.35.11-.06,0l.3-.08.35-.07c.26,0-.34,0,0,0s.59,0,.89-.06a36.71,36.71,0,0,1,4.06.13c2.39.19,4.76.52,7.16.67,2.7.17,6,1.15,8.39-.68,1.55-1.21,1.6-3,1.82-4.8a20.68,20.68,0,0,1,1.48-5.45,49.24,49.24,0,0,1,6-9.54,84.63,84.63,0,0,0,6.83-10.53c4-7.63,6.55-16.3,5.06-25A24.46,24.46,0,0,0,117.14,64,32.21,32.21,0,0,0,79,70.17,28.71,28.71,0,0,0,71.14,90c.13,7.41,3.68,14,7.1,20.37a84.25,84.25,0,0,1,4.62,9.53,31.15,31.15,0,0,1,1.46,4.94,19.92,19.92,0,0,1,.4,4.93,17.92,17.92,0,0,1-.92,4.94,1.5,1.5,0,1,0,2.89.8Z"/>
    </g>
    <g class="cls-2">
      <path d="M92.87,134.38c1-4.95,1.85-9.95,2.5-15q.48-3.76.82-7.54.16-1.89.3-3.78a22.18,22.18,0,0,0,.11-3.55c-.17-1.84-1-3.63-2.91-4.2a2.79,2.79,0,0,0-3.58,2.35c-.64,3.58,2.73,7,6.23,7s6.7-3.61,6-7.13a1.48,1.48,0,0,0-1.63-1.34,2.7,2.7,0,0,0-1.89,1.43,4.78,4.78,0,0,0-.06,4.28,5,5,0,0,0,3.36,2.91,5.71,5.71,0,0,0,4.78-1.24c1.28-1,2.55-2.9,2.32-4.62s-2.54-1.75-3.68-.8c-1.51,1.26-1.85,3.36-2.14,5.19q-.61,3.81-1.21,7.62l-2.43,15.34-.6,3.81c-.1.63.86.9,1,.27l4-24.93a19.71,19.71,0,0,1,1.11-5.17,3.21,3.21,0,0,1,1.52-1.68c.75-.31,1.61-.13,1.54.83-.21,2.9-3.85,5.46-6.58,4.17a4.33,4.33,0,0,1-2.27-2.93c-.27-1.12-.06-2.86,1.15-3.4,1-.46.92,1.2.82,1.81a5.2,5.2,0,0,1-10.36-.81,1.88,1.88,0,0,1,3.16-1.57c1.5,1,1.48,3.12,1.39,4.76a186.26,186.26,0,0,1-3.1,24.67c-.19,1-.39,2-.59,3-.13.63.83.89,1,.26Z"/>
    </g>
    <g class="cls-2">
      <path d="M83.62,134.67a14.08,14.08,0,0,0,.8,8.31,9.89,9.89,0,0,0,5.94,5.94,32.41,32.41,0,0,0,4.46.93,17.25,17.25,0,0,0,5,.14,8.74,8.74,0,0,0,6.63-4.21,15.17,15.17,0,0,0,1.47-4.84,23.21,23.21,0,0,0,.25-5.46,1.54,1.54,0,0,0-1.5-1.5,1.51,1.51,0,0,0-1.5,1.5,19.92,19.92,0,0,1-.88,7.78,5.5,5.5,0,0,1-4.33,3.67c-2.41.55-5.09-.07-7.52-.59a6.22,6.22,0,0,1-2.93-1.2,9,9,0,0,1-2-2.58,10.76,10.76,0,0,1-1-7.09,1.55,1.55,0,0,0-1-1.85,1.53,1.53,0,0,0-1.85,1Z"/>
    </g>
    <g class="cls-2">
      <path d="M135.17,57.78a10.12,10.12,0,0,0,2.17-5.12c.32-1.51.67-3.47,2.09-4.35,1.11-.69,2.62-.55,2.8.95s-1,2.7-2.15,3.52c-.91.66-1.86,1.25-2.79,1.86l-1.55,1a3.34,3.34,0,0,0-.55.33l-.08,0a.49.49,0,0,1,.5.36c.07.25-.27.63-.43.66a1,1,0,0,0,.7-1.23,1,1,0,0,0-1.23-.7c-1.37.22-1.26,2.17-.22,2.72,1.27.67,2.72-.7,3.71-1.35,2-1.29,4.53-2.56,5.59-4.78,1-2,.51-4.88-1.88-5.65s-4.59,1-5.51,3a19,19,0,0,0-1.09,3.85,7.15,7.15,0,0,1-1.49,3.48c-.88.93.53,2.35,1.41,1.41Z"/>
    </g>
    <g class="cls-2">
      <path d="M105.28,41.43a10.55,10.55,0,0,0-.14-5.6c-.32-1.54-.76-3.49.29-4.85.78-1,2.14-1.28,2.84-.07s.15,2.84-.55,4.05c-.51.9-1.1,1.75-1.66,2.62l-1,1.51-.41.64s-.09.08-.1.11-.07.07,0,0q.44-.18.54.75l-.36.35.09-.06a1,1,0,0,0,.36-1.37,1,1,0,0,0-1.37-.36,1.47,1.47,0,0,0,.49,2.62c1.35.34,2.1-1.09,2.7-2,.75-1.16,1.53-2.3,2.24-3.48a8.74,8.74,0,0,0,1.35-3.47c.24-2-.9-4.39-3.08-4.73-2.41-.37-4.32,1.83-4.64,4a12.64,12.64,0,0,0,.38,4.41,8,8,0,0,1,.1,4.33c-.42,1.22,1.51,1.74,1.93.53Z"/>
    </g>
    <g class="cls-2">
      <path d="M146.75,93.61c2.37-.27,4.09-1.72,6-3a6.76,6.76,0,0,1,2.86-1.23,2.52,2.52,0,0,1,2.09.65,1.32,1.32,0,0,1-.31,1.81,4,4,0,0,1-2.81,1,25.29,25.29,0,0,1-3.58-.29l-1.87-.21c-.31,0-.62-.06-.93-.11l-.2,0c-.34,0-.46.26-.37.88l-.51-.13.11,0c1.15.57,2.16-1.16,1-1.73A1.48,1.48,0,0,0,146.18,93c.36,1.26,1.93,1.25,3,1.37,1.34.15,2.68.33,4,.45a8.47,8.47,0,0,0,3.81-.37c2-.77,3.89-3.11,2.58-5.26-1.14-1.88-3.73-2.12-5.62-1.41a16.1,16.1,0,0,0-3.56,2.08,8.34,8.34,0,0,1-3.63,1.74,1,1,0,0,0-1,1,1,1,0,0,0,1,1Z"/>
    </g>
    <g class="cls-2">
      <path d="M53.84,91.61c-2.41-.28-4.2-2.41-6.29-3.43-1.91-.94-4.49-1.23-6.1.47S41,93,42.86,94.12c2.27,1.28,5.08.65,7.52.38l2.14-.25a2.21,2.21,0,0,0,1.68-.82,1.47,1.47,0,0,0-1.87-2.13c-1.16.57-.14,2.3,1,1.73l.1,0-.5.13c.09-.62,0-.91-.38-.88l-.19,0c-.31,0-.63.07-.94.11l-1.87.21a25.15,25.15,0,0,1-3.57.29,4,4,0,0,1-2.81-1,1.33,1.33,0,0,1-.32-1.81A2.52,2.52,0,0,1,45,89.41a6.76,6.76,0,0,1,2.86,1.23c1.93,1.25,3.66,2.7,6,3a1,1,0,0,0,1-1,1,1,0,0,0-1-1Z"/>
    </g>
    <g class="cls-2">
      <path d="M68.74,56.37c-1.58-1.69-1.5-4.3-2.2-6.37s-2.49-4.25-5-4.11-3.73,2.68-3.11,4.94c.66,2.41,3,3.75,5,5l2,1.32a3.41,3.41,0,0,0,2,.81,1.53,1.53,0,0,0,1.45-1.44,1.34,1.34,0,0,0-1-1.45,1,1,0,0,0-1.23.7,1,1,0,0,0,.7,1.23s-.46-.34-.44-.57.11-.3.31-.38c.36-.14.15,0,0-.13s-.16-.1-.23-.15c-.47-.29-.93-.6-1.39-.9-.87-.58-1.74-1.14-2.6-1.72-1.23-.82-2.69-1.92-2.73-3.54a1.78,1.78,0,0,1,.57-1.48,1.82,1.82,0,0,1,1.86-.06c1.49.67,2,2.41,2.31,3.87.47,2.07.81,4.2,2.32,5.81.88.94,2.29-.47,1.42-1.41Z"/>
    </g>
  </g>
</svg>
