<svg xmlns="http://www.w3.org/2000/svg" width="200" height="200" viewBox="0 0 200 200">
  <g id="baggrunde">
    <g>
      <path d="M88,78.92c-4.79,2.92-11.61.49-15.75,4.86-2.41,2.55-2.62,6.3-2.95,9.6q-.62,6.15-.78,12.34c-.11,4.11-.08,8.24.1,12.35.09,2,.16,4,.38,5.9a13.62,13.62,0,0,0,1.39,5c2.86,5.28,9.65,6.3,15.07,6.52a209.73,209.73,0,0,0,24-.5q3.07-.23,6.13-.54c2-.2,4-.35,5.89-.71A8.29,8.29,0,0,0,126,131.6a10.17,10.17,0,0,0,2.27-3.63,23.13,23.13,0,0,0,1.15-4.34c.36-2,.66-4,.93-6,.54-4,.9-8.07,1.09-12.12s.2-8,0-11.93q-.12-3-.37-6.08a33.72,33.72,0,0,0-.66-5.5,4.94,4.94,0,0,0-3-3.6,20.26,20.26,0,0,0-5.44-.78q-6-.51-12-.62a179.19,179.19,0,0,0-24.4,1.23q-2.93.34-5.83.78a1,1,0,0,0-.7,1.23,1,1,0,0,0,1.23.7A176.83,176.83,0,0,1,103.39,79q5.86-.12,11.73.16c1.87.09,3.74.21,5.61.35a34.58,34.58,0,0,1,5.38.58,3.24,3.24,0,0,1,2.5,3,51.4,51.4,0,0,1,.54,5.27q.43,5.76.4,11.56a136.38,136.38,0,0,1-2.07,23c-.46,2.57-1.06,5.52-3.06,7.38a7.54,7.54,0,0,1-4.23,1.64c-1.92.26-3.86.45-5.78.63a228.68,228.68,0,0,1-23.11,1,69,69,0,0,1-9.75-.45,15.53,15.53,0,0,1-7.27-2.66,8,8,0,0,1-2.35-2.89,13.77,13.77,0,0,1-1.06-5c-.29-3.83-.41-7.68-.42-11.52s.1-7.83.35-11.73q.18-2.9.47-5.79A33.39,33.39,0,0,1,72,88.55a7.15,7.15,0,0,1,2.15-3.81,7.62,7.62,0,0,1,3.1-1.48c2.66-.67,5.44-.61,8.12-1.2A12,12,0,0,0,89,80.64a1,1,0,0,0-1-1.72Z"/>
      <path d="M83.93,134.92l1.29-16.13a4.89,4.89,0,0,0-.26-2.91,2.18,2.18,0,0,0-2.32-.85A5.52,5.52,0,0,1,80,115a5.21,5.21,0,0,1-2.1-1.35,4.23,4.23,0,0,1-1-5.12l-.43.24,7.36-.29a.5.5,0,0,0,.5-.5c0-4.5-.76-9.56,1.91-13.52a6.55,6.55,0,0,1,4.93-3,4.12,4.12,0,0,1,4.24,2.31,3.57,3.57,0,0,1-1.18,4.51l.61.08c-1.82-1.67-4.6-.8-6,.93-2,2.47-1.17,6-.41,8.83a.5.5,0,0,0,.48.37c3.07-.18,5.61,3.55,4.19,6.33l.69-.18a3.2,3.2,0,0,0-4.07.54c-1.4,1.37-1.45,3.53-1.49,5.34q-.15,7.18-.31,14.38a.5.5,0,0,0,1,0l.27-12.41c0-1.79-.16-3.85.55-5.54.55-1.31,2.22-2.47,3.54-1.45a.51.51,0,0,0,.69-.18c1.74-3.41-1.19-8.06-5.06-7.83l.48.37c-.63-2.33-1.5-5.38,0-7.58,1-1.47,3.33-2.58,4.82-1.22a.49.49,0,0,0,.6.08,4.33,4.33,0,0,0,2-4.5,4.84,4.84,0,0,0-3.53-4A7,7,0,0,0,87.08,92a10.52,10.52,0,0,0-3.4,6.11c-.68,3.22-.3,6.53-.34,9.8l.5-.5-4.91.19a20,20,0,0,0-2.45.1c-.49.09-.67.62-.83,1.05A5.4,5.4,0,0,0,77,114.21a6.46,6.46,0,0,0,2.51,1.68,6,6,0,0,0,3.1.15c.68-.11,1.36-.09,1.58.68a6.25,6.25,0,0,1,0,2.07l-.4,5-.89,11.16c-.05.65.95.64,1,0Z"/>
    </g>
  </g>
</svg>
