<svg xmlns="http://www.w3.org/2000/svg" width="200" height="200" viewBox="0 0 200 200">
  <g id="baggrunde">
    <g>
      <path d="M101,74.81a39.64,39.64,0,0,0-12,0,20.54,20.54,0,0,0-9.34,3.36,12.88,12.88,0,0,0-4.81,8.27,59.57,59.57,0,0,0-.6,11.17q0,6,.59,12.08a45,45,0,0,0,1.78,10.45A16,16,0,0,0,82.28,128a23.46,23.46,0,0,0,8.41,3.67,68.32,68.32,0,0,0,10.36,1.54,108.56,108.56,0,0,0,12.23.38c2-.06,3.92-.16,5.87-.32a48.58,48.58,0,0,0,5.77-.69,9.14,9.14,0,0,0,6.78-5.52c1.22-2.87,1.41-6,1.61-9.11l.76-12.2.76-12.19c.12-2,.26-4.11.38-6.16A18.87,18.87,0,0,0,135,82c-1.49-6.29-8.45-7.62-14-8a165.56,165.56,0,0,0-23.88-.41c-2,.14-3.89.37-5.82.65a1,1,0,0,0-.74,1l-.09,2.5c0,1.28,2,1.28,2,0l.09-2.5-.73,1c7.55-1.12,15.22-1,22.82-.55a87.58,87.58,0,0,1,9.72.75c2.48.41,5.14,1.13,6.94,3,2.23,2.27,2.07,5.56,1.88,8.5q-.36,5.85-.73,11.7l-.73,11.7c-.21,3.5-.29,7-.73,10.54-.31,2.46-.94,5.18-2.75,7a7.61,7.61,0,0,1-4.07,1.92,48.83,48.83,0,0,1-5.27.6,104.92,104.92,0,0,1-22.82-.64c-5.5-.77-11.72-2.22-15.31-6.84-2-2.55-2.83-5.78-3.33-8.91a100.58,100.58,0,0,1-1-11q-.3-5.8-.13-11.61c.09-3,.22-6.28,1.58-9.07a11.08,11.08,0,0,1,6.72-5.48A32.44,32.44,0,0,1,95,76.31a37.12,37.12,0,0,1,5.47.43,1,1,0,0,0,1.23-.7,1,1,0,0,0-.7-1.23Z"/>
      <path d="M106.33,94.25c-5.15-.84-10.82.94-14.07,5.16a12,12,0,0,0-.46,13.7,10.93,10.93,0,0,0,6.52,4.33,22.35,22.35,0,0,0,9.17.48,9.59,9.59,0,0,0,6.63-4.16,11.43,11.43,0,0,0,1.66-7c-.47-6.43-5.79-11-11.22-13.67-.57-.29-1.08.58-.5.86,4.5,2.2,9,5.7,10.38,10.76,1.19,4.52-.47,9.93-5.12,11.67a17.64,17.64,0,0,1-8.36.53,12.17,12.17,0,0,1-7.31-3.11,10.89,10.89,0,0,1-1.57-12.31c2.6-4.9,8.68-7.16,14-6.29.63.1.9-.86.26-1Z"/>
      <path d="M118.07,86.77a5.16,5.16,0,0,0-3.44,4.15,5,5,0,0,0,.34,2.84,2.24,2.24,0,0,0,.89,1.06,3.74,3.74,0,0,0,1.18.51,4.91,4.91,0,0,0,4.77-1.65,3.82,3.82,0,0,0-.19-5A4.54,4.54,0,0,0,116,87.59c-.54.34,0,1.21.51.86,2.47-1.56,6.44,1.42,4.84,4.19a3.86,3.86,0,0,1-3.48,1.79,2.5,2.5,0,0,1-1.76-.7,3.44,3.44,0,0,1-.52-2.15,4.24,4.24,0,0,1,2.78-3.85.5.5,0,0,0-.27-1Z"/>
    </g>
  </g>
</svg>
