<svg xmlns="http://www.w3.org/2000/svg" width="200" height="200" viewBox="0 0 200 200">
  <defs>
    <style>
      .cls-1 {
        fill: #e7bf44;
        isolation: isolate;
      }
    </style>
  </defs>
  <g id="for-_baggrund" data-name="for- + baggrund">
    <path class="cls-1" d="M152.08,67.76a24.25,24.25,0,0,0-7.68-8.12,2.92,2.92,0,0,0-1.84-.51l-.06-.06c-2.09-3.59-5.61-5.85-9.77-7.22a3.68,3.68,0,0,0-1.38-.41c-7.74-2.12-17.26-1.45-23.9-.44-2.59.4-5.14.94-7.66,1.59-2.87.57-5.69,1.26-8.4,2.06A88.66,88.66,0,0,0,58.78,72.36c-9.41,8.09-18.2,18.59-19,31.48C39,116.93,45.65,129.73,54.54,139c9.1,9.42,21.16,15.13,33.89,17.75,13.36,2.74,27.68,2,39.25-5.88a78,78,0,0,0,24.87-28.28,50.28,50.28,0,0,0,5-15.11,39.33,39.33,0,0,0,1.51-4.8A43,43,0,0,0,152.08,67.76Zm-50.44,38.62-1.12.49a1,1,0,0,0,0-.17c.42-.16.81-.31,1.16-.46ZM116,148.8l1-.44a55.82,55.82,0,0,0,12.22-7.62A43.7,43.7,0,0,1,116,148.8Z"/>
    <g>
      <path d="M48,80.39l-.67-3.31A1.49,1.49,0,0,0,45.71,76a1.52,1.52,0,0,0-1.3,1.48l-1,19.44-.49,9.6a86,86,0,0,0-.19,9.22,26.35,26.35,0,0,0,5.1,14.72,33.62,33.62,0,0,0,10.93,9.29c10.28,5.58,22.3,5.84,33.69,5.24,12.75-.67,25.49-1.66,38.23-2.5l19.39-1.28c2.75-.18,5.74-.28,7.82-2.37,1.77-1.78,2.33-4.33,2.55-6.75.28-3,.26-6,.3-9q.07-4.83,0-9.66-.15-9.52-.9-19c-.24-3.14-.51-6.28-.88-9.41a21.26,21.26,0,0,0-2.3-8.27c-2.24-3.88-6.3-6.06-10.58-7a48.62,48.62,0,0,0-13.63-.42q-9.5.75-19,1.07-19.17.62-38.35-.57c-3.21-.2-6.42-.43-9.62-.71-3-.25-6-.66-8.94-.67a16.45,16.45,0,0,0-8.19,1.79,10.69,10.69,0,0,0-4.55,5.37,7.5,7.5,0,0,0,.46,6.56c1,1.65,3.6.14,2.59-1.52a3.84,3.84,0,0,1-.59-2.44,6.32,6.32,0,0,1,.79-2.5,7.64,7.64,0,0,1,4.57-3.62,21,21,0,0,1,8-.5c2.95.24,5.89.54,8.84.77,12.33,1,24.72,1.37,37.09,1.21q9.29-.1,18.55-.66c5.15-.3,10.32-.94,15.48-.84,4,.07,8.14.58,11.48,2.85a10.2,10.2,0,0,1,3.64,4.44A26,26,0,0,1,156.17,87a312.25,312.25,0,0,1,1.56,37.08c0,2.76,0,5.57-.32,8.33-.21,1.92-.82,4-2.58,5a8.26,8.26,0,0,1-3.26.7c-1.49.11-3,.2-4.49.3l-9.44.62-37.29,2.47c-11.44.75-23.45,1.86-34.52-1.91-8.18-2.78-16.11-8.76-18.9-17.15-1.84-5.52-1.24-11.46-1-17.16l1-18.7.47-9.1-2.95.39.68,3.32a1.52,1.52,0,0,0,1.84,1A1.53,1.53,0,0,0,48,80.39Z"/>
      <path d="M46,76.47q10.08,7.44,20.38,14.58T87.22,105q6,3.85,12,7.61a1.46,1.46,0,0,0,1.51,0l39.06-27.75,11-7.81a1.54,1.54,0,0,0,.54-2,1.51,1.51,0,0,0-2.05-.54l-39.06,27.75-11,7.81h1.51Q90.1,103.39,79.67,96.44T59,82.23q-5.79-4.12-11.51-8.35a1.5,1.5,0,0,0-2,.53A1.54,1.54,0,0,0,46,76.47Z"/>
      <path d="M77,97.41a159.74,159.74,0,0,1-19.31,26.47q-3.13,3.47-6.47,6.76c-1.38,1.36.75,3.48,2.12,2.12a163.78,163.78,0,0,0,21.31-25.89q2.58-3.9,4.94-7.94A1.5,1.5,0,0,0,77,97.41Z"/>
      <path d="M118.24,99.58q12,14.51,23.37,29.54,3.21,4.26,6.37,8.55a1.54,1.54,0,0,0,2.05.54,1.51,1.51,0,0,0,.54-2.05q-11.34-15.43-23.38-30.35-3.39-4.2-6.83-8.35a1.5,1.5,0,0,0-2.12,2.12Z"/>
    </g>
  </g>
</svg>
