<svg xmlns="http://www.w3.org/2000/svg" width="200" height="200" viewBox="0 0 200 200">
  <defs>
    <style>
      .cls-1 {
        fill: #e7bf44;
        isolation: isolate;
      }
    </style>
  </defs>
  <g id="baggrunde">
    <path class="cls-1" d="M146.31,70.68A23.34,23.34,0,0,0,139,62.91a2.83,2.83,0,0,0-1.75-.48l-.06-.06c-2-3.43-5.37-5.59-9.34-6.9a3.81,3.81,0,0,0-1.32-.4c-7.4-2-16.51-1.38-22.85-.41a69.89,69.89,0,0,0-7.32,1.52c-2.75.54-5.44,1.2-8,2A84.74,84.74,0,0,0,57.11,75.08c-9,7.73-17.4,17.77-18.13,30.09-.74,12.51,5.58,24.76,14.08,33.57,8.7,9,20.23,14.46,32.4,17,12.77,2.63,26.46,1.88,37.52-5.61a74.68,74.68,0,0,0,23.78-27,48.33,48.33,0,0,0,4.81-14.45A38,38,0,0,0,153,104,41.1,41.1,0,0,0,146.31,70.68ZM98.08,107.6c-.34.16-.7.31-1.06.46a.83.83,0,0,1,0-.15l1.1-.44A.57.57,0,0,1,98.08,107.6Zm13.75,40.55,1-.42a53.25,53.25,0,0,0,11.68-7.28A41.32,41.32,0,0,1,111.83,148.15Z"/>
    <path d="M74.38,150.55q1.26-15.92,1.85-31.87t.52-31.79q0-9-.29-18a.5.5,0,0,0-1,0q.44,15.94.22,31.91t-1.09,31.78q-.5,9-1.21,18c0,.64,1,.64,1,0Z"/>
    <path d="M126.79,71.46q-.45,16.31-1.42,32.59t-2.49,32.53q-.85,9.13-1.87,18.26c-.08.64.92.64,1,0q1.8-16.2,3.09-32.47t2-32.57q.42-9.17.67-18.34a.5.5,0,0,0-1,0Z"/>
    <path d="M73.94,152.23c11.79-.22,23.53,1,35.19,2.62,1.64.23,3.27.45,4.9.69l2.45.34,1.23.18c.2,0,.41,0,.61.09l.14,0c.25.13.41,0,.49-.39l.23.29,0,0,0,.38,0-.07c.3-.57-.57-1.07-.86-.5-.48.94,1.12,1.31,1.3.39a.9.9,0,0,0-.71-1,13.87,13.87,0,0,0-2.49-.38q-5.09-.74-10.18-1.41c-6.86-.89-13.75-1.64-20.66-2q-5.79-.31-11.6-.22a.5.5,0,0,0,0,1Z"/>
    <path d="M76.09,130.63a64.94,64.94,0,0,1,7.1-5.49c1.19-.79,2.4-1.55,3.64-2.26a11.56,11.56,0,0,0,2.84-2,2.85,2.85,0,0,0,.87-2.56c-.28-1.25-1.56-2.29-2.38-3.21l-6.23-7c-1.14-1.28-2.33-2.54-3.41-3.88a5.89,5.89,0,0,1-1.67-4.3c0-.32-.47-.32-.5,0-.29,2.51,1.64,4.5,3.18,6.22l6.15,6.94,3.11,3.52c.91,1,1.81,2.11.92,3.46a8.13,8.13,0,0,1-2.93,2.29q-1.87,1.07-3.66,2.25a66.57,66.57,0,0,0-7.38,5.7c-.24.21.11.56.35.35Z"/>
    <path d="M75.65,139.21l10.53-6.59,5.26-3.29,2.32-1.45c.54-.33.87-.66,1.49-.21a12,12,0,0,1,1.15,1.1,192.6,192.6,0,0,1,15.29,16.64q4.09,5,7.84,10.3l.4-.3-1.38-1.55c-.21-.24-.57.11-.35.35l1.37,1.56c.19.21.56-.07.39-.31a193.85,193.85,0,0,0-14.7-18.27q-4-4.4-8.26-8.53c-.35-.35-.71-.69-1.07-1a3.16,3.16,0,0,0-.79-.67c-.69-.3-1.41.35-2,.69l-5.47,3.42L75.4,138.78c-.28.17,0,.6.25.43Z"/>
    <g>
      <path d="M94.82,113.29C92.08,108,89.54,102.55,87.26,97s-4.48-11-5.6-16.84c-1-5.13-.92-10.8,1.32-15.47a22,22,0,0,1,8.71-9.3,24.81,24.81,0,0,1,12.36-3.5c4.6,0,9.56,1.25,13.1,4.34,4,3.47,5.55,8.86,5.69,14A34.81,34.81,0,0,1,119.24,86a67.4,67.4,0,0,1-9.31,14c-3.8,4.58-7.85,8.94-11.81,13.37L95,116.83l2.35.3-3.47-6.46c-.92-1.7-3.51-.18-2.59,1.52l3.47,6.45a1.52,1.52,0,0,0,2.36.31c4.26-4.76,8.57-9.47,12.75-14.29a86.59,86.59,0,0,0,10.55-14.42,41.4,41.4,0,0,0,5.35-16.85c.44-5.68-.6-12-4.09-16.63-6.47-8.6-19.06-9.5-28.35-5.52A26.27,26.27,0,0,0,82.3,60a24.32,24.32,0,0,0-4.22,15.54c.31,6.11,2.23,12,4.42,17.64q3.45,8.89,7.65,17.48,1,2.09,2.08,4.15a1.5,1.5,0,0,0,2.59-1.52Z"/>
      <path d="M103.62,65.51a7.31,7.31,0,0,0-7.2.23,10.28,10.28,0,0,0-4.21,5.34c-1.36,3.67-.63,8.4,2.29,11.13,3.47,3.26,9.23,3,13.22.84a7.35,7.35,0,0,0,4-5.24,12.79,12.79,0,0,0-1.12-6.94,11.46,11.46,0,0,0-4.47-5.28,8.08,8.08,0,0,0-3.46-1.16c-1.39-.11-2.94.74-2.9,2.29.05,1.93,3.05,1.93,3,0,0,.17-.28.49-.33.63l0,0c-.11,0-.12.06,0,0s.08,0,.09,0a11.37,11.37,0,0,1,1.12.28,6.42,6.42,0,0,1,1.7,1,9.26,9.26,0,0,1,2.63,3.58,10.89,10.89,0,0,1,.9,4.64,4.18,4.18,0,0,1-2.36,3.46c-2.64,1.53-7,2-9.47.07a6.15,6.15,0,0,1-2.08-3.2,8.34,8.34,0,0,1-.17-4,7.61,7.61,0,0,1,2.59-4.47,4.38,4.38,0,0,1,4.79-.66c1.7.93,3.21-1.66,1.52-2.59Z"/>
    </g>
    <path d="M75.88,69,80,68.75a.51.51,0,0,0,.5-.5.5.5,0,0,0-.5-.5L75.88,68a.5.5,0,0,0-.5.5.51.51,0,0,0,.5.5Z"/>
    <path d="M126,70.65a1.26,1.26,0,0,0-.5-.32,1.22,1.22,0,0,0-.6,0,.46.46,0,0,0-.3.23.58.58,0,0,0-.06.32.51.51,0,0,0,.49.43l2.3.29a.46.46,0,0,0,.35-.14.49.49,0,0,0,.15-.36.52.52,0,0,0-.5-.5l-2.3-.29.14,1c-.19,0,0,0,0,0s-.09,0,0,0l.06,0h0l.06,0c-.06,0-.07,0,0,0l0,0a.5.5,0,0,0,.71,0,.52.52,0,0,0,0-.71Z"/>
    <path d="M81.29,61.49l-6.74.17a5.17,5.17,0,0,0-3.11.84,4.62,4.62,0,0,0-1.54,2.3,18.5,18.5,0,0,0-.55,5.89c0,2.2.18,4.39.4,6.58.42,4.32.87,8.62,1,13s-.09,8.71-.39,13.06c-.58,8.68-1.66,17.33-2.28,26-.31,4.31-.5,8.63-.47,13,0,3.79-.12,8.24,2.25,11.45s6.31,4.49,10.17,4.79c2.18.17,4.36.08,6.54.07s4.44,0,6.66.09A217.33,217.33,0,0,1,119.41,161c2,.3,4.2.59,5.67-1.14,1.23-1.45,1.36-3.38,1.57-5.18l1.54-13.35c1-8.84,2.06-17.67,3.05-26.51a234.75,234.75,0,0,0,1.6-26.37c0-4.45-.15-8.91-.4-13.35-.13-2.23-.27-4.45-.47-6.67a4.74,4.74,0,0,0-1.06-3,3.64,3.64,0,0,0-2.2-1,9.79,9.79,0,0,0-2.23,0,5.45,5.45,0,0,1-2-.06c-1.86-.55-2.65,2.35-.8,2.89,1.48.44,3,.09,4.53.07.27,0-.05,0,.2,0,.07,0,.4.12.17,0,.08,0,.14,0,.09,0s0,0,.07.07c-.11-.12.08.14.11.22a4.67,4.67,0,0,1,.16,1.23c.05.54.09,1.07.13,1.61.32,4.23.53,8.48.63,12.72a211.79,211.79,0,0,1-.89,25.44c-.81,8.46-1.88,16.9-2.85,25.34l-1.47,12.74-.73,6.3c-.18,1.59-.13,3.39-.88,4.64a1,1,0,0,1-.34.38,1.91,1.91,0,0,1-1,.18,22.9,22.9,0,0,1-2.71-.37c-2.17-.31-4.34-.6-6.51-.85Q106,156.34,99.71,156T87,155.58c-3.74,0-7.85.45-11.39-1a7.71,7.71,0,0,1-3.5-2.74,10.12,10.12,0,0,1-1.39-4.68,96.26,96.26,0,0,1,0-12.13c.36-8.33,1.33-16.62,2.07-24.93a159.31,159.31,0,0,0,.72-24.9c-.28-4.18-.91-8.34-1.09-12.53a32.27,32.27,0,0,1,.14-6.06c0,.11,0-.25.07-.3a3,3,0,0,1,.13-.52,2.42,2.42,0,0,1,.31-.68.78.78,0,0,1,.6-.35,7.27,7.27,0,0,1,1.4-.08l6.24-.16c1.92,0,1.93-3,0-3Z"/>
    <path d="M76.74,85.93a44.26,44.26,0,0,1,3.64,4c.57.7,1.11,1.43,1.63,2.16.18.25,1.6,2.07,1.31,2.29s0,.62.25.43c.67-.51,0-1.36-.36-1.85-.59-.9-1.21-1.77-1.87-2.61a44.51,44.51,0,0,0-4.24-4.75c-.24-.22-.59.13-.36.35Z"/>
    <path d="M102.85,111.84,112,123.75c1.1,1.42,2.29,3.77,4.44,3.23a7.76,7.76,0,0,0,3.82-3c1.22-1.54,2.33-3.27,4.14-4.18.28-.15,0-.58-.26-.43-2.89,1.46-3.94,4.87-6.61,6.58-1,.64-2.14.95-3.08.08a20.26,20.26,0,0,1-2.09-2.61l-4.29-5.57-4.82-6.24c-.2-.25-.63,0-.43.25Z"/>
    <path d="M121,135.69l2,2.57.39-.3-.4-.36c-.23-.22-.59.13-.35.35l.4.36a.25.25,0,0,0,.39-.3l-2-2.58a.25.25,0,0,0-.34-.08.26.26,0,0,0-.09.34Z"/>
    <path d="M121.58,135.44a.4.4,0,0,1-.17-.48,1.28,1.28,0,0,1,.39-.65c.49-.42,1.09-.68,1.33-1.32a.25.25,0,0,0-.49-.14,1.57,1.57,0,0,1-.62.68,3.6,3.6,0,0,0-.79.66c-.37.48-.54,1.33.09,1.68a.25.25,0,0,0,.26-.43Z"/>
  </g>
</svg>
