<svg xmlns="http://www.w3.org/2000/svg" width="200" height="200" viewBox="0 0 200 200">
  <defs>
    <style>
      .cls-1 {
        fill: #e7bf44;
        isolation: isolate;
      }

      .cls-2 {
        fill: #020202;
      }

      .cls-3 {
        fill: none;
        stroke: #1d1d1b;
        stroke-miterlimit: 10;
        stroke-width: 3px;
      }
    </style>
  </defs>
  <g id="for-_baggrund" data-name="for- + baggrund">
    <path class="cls-1" d="M150.8,60.38a24.28,24.28,0,0,0-7.69-8.12,2.91,2.91,0,0,0-1.83-.51l-.07-.07c-2.09-3.58-5.61-5.84-9.76-7.21a3.73,3.73,0,0,0-1.39-.41c-7.74-2.12-17.26-1.45-23.9-.44a73.82,73.82,0,0,0-7.66,1.59c-2.87.57-5.68,1.26-8.39,2.06A88.58,88.58,0,0,0,57.5,65c-9.42,8.09-18.2,18.59-19,31.47-.77,13.1,5.83,25.9,14.73,35.12,9.1,9.42,21.16,15.12,33.89,17.74,13.35,2.75,27.67,2,39.24-5.87a78,78,0,0,0,24.88-28.28,50.81,50.81,0,0,0,5-15.12,42.35,42.35,0,0,0,1.51-4.79A43,43,0,0,0,150.8,60.38ZM100.35,99c-.36.17-.74.32-1.11.48l0-.16,1.16-.46Zm14.38,42.41c.34-.14.68-.28,1-.44A55.69,55.69,0,0,0,128,133.36,43.51,43.51,0,0,1,114.73,141.41Z"/>
    <path class="cls-2" d="M122.92,124.71c-2,1-3.92,2.08-5.84,3.21a.12.12,0,0,0,.13.21q2.87-1.68,5.84-3.2c.14-.08,0-.29-.13-.22Z"/>
    <path class="cls-2" d="M116.17,123.55a5,5,0,0,1,.27,1.16c0,.36,0,.72.06,1.09A13.61,13.61,0,0,0,117,128a.13.13,0,0,0,.24-.07,11.08,11.08,0,0,1-.53-2.26,7.15,7.15,0,0,0-.33-2.15c0-.15-.29-.09-.24.07Z"/>
    <path class="cls-2" d="M116.39,123.72c.89-.38,1.76-.79,2.62-1.24.41-.22.83-.45,1.23-.69l.64-.4.32-.21s.26-.19.23-.19l-.09-.09.08-.12c-.15,0-.22.19-.06.25s.29,0,.23-.2,0-.08-.09-.08-.3.14-.43.22l-.63.41c-.43.26-.87.51-1.31.75-.91.5-1.85.94-2.81,1.35-.15.06-.08.3.07.24Z"/>
    <path class="cls-2" d="M121.41,120.85a4,4,0,0,1,.39.93l.35,1,.7,2.06c.05.15.3.08.24-.07l-.72-2.14L122,121.6a4.5,4.5,0,0,0-.38-.87c-.09-.14-.31,0-.22.12Z"/>
    <path class="cls-2" d="M116.56,115.73s0,.07,0,0h.23l.33,0a4.31,4.31,0,0,0,.61-.1,5.67,5.67,0,0,0,1.2-.41c.15-.07,0-.28-.12-.22a5.49,5.49,0,0,1-1.41.44,5.85,5.85,0,0,1-.72.07c-.17,0-.42,0-.36.27a.12.12,0,0,0,.24-.06Z"/>
    <path class="cls-2" d="M118.77,115.21c.38.79.71,1.6,1,2.42l.45,1.17.24.62.09.24a1.17,1.17,0,0,1,.09.24l.14-.06,0,0,0,.15h0c.13-.1,0-.28-.17-.18h0a.12.12,0,0,0,0,.15c0,.06.06.09.12.09s.12,0,.14,0,0-.28-.07-.44l-.23-.59-.51-1.35c-.34-.87-.69-1.72-1.08-2.56-.07-.15-.28,0-.22.12Z"/>
    <path class="cls-2" d="M120.76,119.8c-1.69.77-3,2.16-4.74,2.89-.14.07,0,.28.13.22,1.72-.73,3-2.12,4.74-2.89.14-.07,0-.29-.13-.22Z"/>
    <path class="cls-2" d="M116.33,115.8a27.92,27.92,0,0,1-.22,3.42,13,13,0,0,0-.19,3.3c0,.16.27.16.25,0a14.08,14.08,0,0,1,.22-3.49,29,29,0,0,0,.19-3.23c0-.16-.24-.16-.25,0Z"/>
    <path class="cls-2" d="M115.87,122.38a1.27,1.27,0,0,0,0,.2.35.35,0,0,0,0,.11.36.36,0,0,0,0,.11.11.11,0,0,0,.07.06.17.17,0,0,0,.1,0s.05,0,.05-.08v0a.19.19,0,0,0,0-.07h0v0a.57.57,0,0,1,0-.14v0a.43.43,0,0,1,0-.16v0a.1.1,0,0,0,0-.09.11.11,0,0,0-.07-.06.12.12,0,0,0-.1,0,.24.24,0,0,0-.06.08Z"/>
    <path class="cls-2" d="M110.58,116.64h0l.09,0,0,0-.09.12c.9-.33,1.8-.63,2.72-.92.15,0,.09-.29-.07-.24-.91.29-1.82.59-2.72.92,0,0-.1.06-.09.12a.19.19,0,0,0,.24.19c.15,0,.09-.27-.07-.24Z"/>
    <path class="cls-2" d="M113.3,118.47q-1.77,1.48-3.61,2.87c-.12.1,0,.32.13.22,1.25-.94,2.46-1.91,3.65-2.91.13-.11,0-.28-.17-.18Z"/>
    <path class="cls-2" d="M113.41,119.75,109,123.12c-.12.1,0,.31.13.22l4.41-3.38c.12-.09,0-.31-.13-.21Z"/>
    <path class="cls-2" d="M113.6,114.62c-1,.22-2,.79-3,1-.16,0-.09.27.06.24,1-.19,2-.76,3-1,.16,0,.09-.27-.06-.24Z"/>
    <path class="cls-2" d="M111.71,109.6a2.39,2.39,0,0,1,.67,1.12c.18.43.35.87.51,1.3.33.89.63,1.78.91,2.69l.08-.16a1.63,1.63,0,0,1-.58.13c-.16,0-.16.26,0,.25a1.8,1.8,0,0,0,.65-.14.13.13,0,0,0,.09-.15c-.31-1-.65-2-1-3-.18-.46-.35-.92-.55-1.38a2,2,0,0,0-.63-.89c-.13-.1-.26.12-.13.21Z"/>
    <path class="cls-2" d="M111.48,109.14l.06.07,0,.05h0l.12.16a3.24,3.24,0,0,1,.21.35.13.13,0,1,0,.22-.12,3.9,3.9,0,0,0-.49-.71.12.12,0,0,0-.17,0,.13.13,0,0,0,0,.18Z"/>
    <path class="cls-2" d="M112.56,104.57a10.42,10.42,0,0,1,1,2.36c.31.84.61,1.69.9,2.54.6,1.72,1.18,3.46,1.72,5.21,0,.15.29.09.24-.07-.56-1.81-1.16-3.61-1.78-5.4-.31-.88-.62-1.76-.94-2.63a10.1,10.1,0,0,0-1-2.14c-.09-.13-.31,0-.22.13Z"/>
    <path class="cls-2" d="M116.27,114.81c1.62.37,3.15-.42,4.54-1.15l5.11-2.7c.14-.08,0-.3-.13-.22l-4.61,2.44c-1.47.78-3.11,1.79-4.84,1.39-.16,0-.23.2-.07.24Z"/>
    <path class="cls-2" d="M126,111.6c-2.1,1.13-4.18,2.32-6.35,3.32-.15.07,0,.28.12.22,2.17-1,4.26-2.19,6.36-3.32.14-.08,0-.29-.13-.22Z"/>
    <path class="cls-2" d="M119.61,115a10.92,10.92,0,0,0,1,1.87c.39.81.75,1.62,1.12,2.43l2.27,5c.07.14.29,0,.22-.13l-2.2-4.8-1-2.3a8.11,8.11,0,0,0-.53-1,4.2,4.2,0,0,1-.6-1.1.13.13,0,0,0-.24.07Z"/>
    <path class="cls-2" d="M124.18,124.43a56.84,56.84,0,0,0,6.16-3.75c.13-.09,0-.31-.13-.21a56.63,56.63,0,0,1-6.15,3.74.13.13,0,0,0,.12.22Z"/>
    <path class="cls-2" d="M126,111.8q2.2,4.33,4,8.83c.06.15.3.08.24-.07q-1.83-4.53-4-8.88c-.08-.15-.29,0-.22.12Z"/>
    <path class="cls-2" d="M113.26,115.79a12.76,12.76,0,0,0,.17,2.69c0,.15.27.09.24-.07a12.82,12.82,0,0,1-.16-2.62.13.13,0,0,0-.25,0Z"/>
    <path class="cls-2" d="M113.44,120a58.61,58.61,0,0,1,.63,7.25.13.13,0,0,0,.25,0,57.69,57.69,0,0,0-.64-7.31c0-.16-.26-.1-.24.06Z"/>
    <path class="cls-2" d="M114.16,127.07a23.3,23.3,0,0,0-4.54,3.5.13.13,0,0,0,.18.18,23.22,23.22,0,0,1,4.49-3.47.12.12,0,0,0-.13-.21Z"/>
    <path class="cls-2" d="M105.41,129a43.65,43.65,0,0,0,4.29,1.8c.15.06.21-.18.06-.24-1.41-.57-2.87-1.07-4.22-1.78-.15-.07-.27.14-.13.22Z"/>
    <path class="cls-2" d="M104.36,130.35a30.3,30.3,0,0,1,6.58,2.74c.14.08.27-.14.13-.22a30.71,30.71,0,0,0-6.65-2.76c-.15-.05-.22.19-.06.24Z"/>
    <path class="cls-2" d="M111,133a17,17,0,0,1-3.58,1.75c-.15.06-.09.3.06.24a17.13,17.13,0,0,0,3.65-1.78c.13-.09,0-.31-.13-.21Z"/>
    <path class="cls-2" d="M111.81,133.29a5.87,5.87,0,0,1-1.54,1.06l-1.83,1c-.14.08,0,.29.13.22l1.89-1a6.44,6.44,0,0,0,1.53-1.06c.11-.12-.06-.3-.18-.18Z"/>
    <path class="cls-2" d="M111.88,133.58a33.54,33.54,0,0,1,4.31,1.86c.14.07.27-.15.13-.22a33.77,33.77,0,0,0-4.38-1.88c-.15-.06-.21.19-.06.24Z"/>
    <path class="cls-2" d="M116.15,135.34q1.91,4.77,4.25,9.35c.08.15.29,0,.22-.12q-2.33-4.55-4.23-9.29c-.06-.15-.3-.09-.24.06Z"/>
    <path class="cls-2" d="M120.41,144.49l-.35.79a.14.14,0,0,0,0,.17.13.13,0,0,0,.17,0l.35-.8a.13.13,0,0,0,0-.17.12.12,0,0,0-.17.05Z"/>
    <path class="cls-2" d="M113.71,135.54c-.3.35-.61.7-.94,1l-.48.48-.26.24-.12.12-.06.05s-.08.05,0,.07l.08.05h0v.1l-.06.06-.14-.06h0c.1.13.32,0,.22-.13h0a.12.12,0,0,0-.14-.06.15.15,0,0,0-.07.24c.12.12.25,0,.33-.09l.64-.61c.43-.43.83-.87,1.21-1.33.11-.12-.07-.3-.17-.17Z"/>
    <path class="cls-2" d="M113.71,135.86c.89-.25,1.7,1,2.17,1.61a16.48,16.48,0,0,1,1.48,2.22,17.18,17.18,0,0,1,1.8,4.8.12.12,0,0,0,.24-.06,17.22,17.22,0,0,0-2.12-5.37,16.66,16.66,0,0,0-1.64-2.28c-.49-.57-1.13-1.4-2-1.16a.12.12,0,0,0,.06.24Z"/>
    <path class="cls-2" d="M114.23,128c-.74.4-1.5.78-2.2,1.25a4.35,4.35,0,0,0-1.55,1.58c-.08.14.14.27.21.12a4.37,4.37,0,0,1,1.56-1.55c.68-.44,1.4-.8,2.11-1.19.14-.07,0-.29-.13-.21Z"/>
    <path class="cls-2" d="M110.43,131.2c1.63.67,3.3,1.27,5,1.79.15,0,.22-.19.07-.24q-2.53-.78-5-1.79c-.14-.06-.21.18-.06.24Z"/>
    <path class="cls-2" d="M115.71,132.93a7.47,7.47,0,0,0-.38-2.65c-.13-.43-.29-.85-.46-1.27-.08-.2-.16-.41-.25-.61s-.1-.33-.23-.42a.12.12,0,0,0-.13,0l0,0a.11.11,0,0,0-.06.14v0a.12.12,0,0,0,.24-.06v0l-.06.14,0,0h-.13a1,1,0,0,1,.11.26c0,.1.08.2.13.3s.16.38.23.58c.15.38.29.76.4,1.14a7.07,7.07,0,0,1,.33,2.46.13.13,0,0,0,.25,0Z"/>
    <path class="cls-2" d="M117.14,129.11c.71,2.22,1.57,4.39,2.37,6.58a28.84,28.84,0,0,0,2.61,5.74c.09.13.3,0,.22-.13a28.77,28.77,0,0,1-2.67-5.9c-.78-2.11-1.6-4.21-2.29-6.35,0-.15-.29-.09-.24.06Z"/>
    <path class="cls-2" d="M119.2,131q2.22,5,4.58,10c.07.15.28,0,.22-.12q-2.37-5-4.58-10c-.07-.14-.28,0-.22.13Z"/>
    <path class="cls-2" d="M122.41,141.59c1.48-.49,3-1,4.4-1.62a34.89,34.89,0,0,0,4.41-2.52c2.95-1.85,6.13-3.35,9.22-4.95.15-.08,0-.29-.12-.22-3,1.57-6.13,3-9,4.83a38.4,38.4,0,0,1-4.2,2.46,45.27,45.27,0,0,1-4.75,1.78c-.15.05-.09.3.07.24Z"/>
    <path class="cls-2" d="M123.56,144.26c.13.28.25.56.36.85a.13.13,0,0,0,.23,0,.43.43,0,0,0,.1-.29c0-.06-.06-.12-.12-.12a.14.14,0,0,0-.13.12s0,.06,0,.08l0,.08.22,0a8,8,0,0,0-.39-.91.13.13,0,0,0-.17,0,.13.13,0,0,0,0,.17Z"/>
    <path class="cls-2" d="M123.79,144.22a35.37,35.37,0,0,1,4.1-2.54c.14-.08,0-.29-.13-.22a35.85,35.85,0,0,0-4.09,2.55c-.13.09,0,.31.12.21Z"/>
    <path class="cls-2" d="M117.49,97l-2.76,1.42c-.14.08,0,.29.13.22l2.76-1.43c.14-.07,0-.29-.13-.21Z"/>
    <path class="cls-2" d="M117.38,97.38a13.22,13.22,0,0,1,3.08,2.84,16.51,16.51,0,0,1,1.75,3.16c1.14,2.53,2.2,5.09,3.3,7.63.06.15.28,0,.21-.12-1.15-2.67-2.24-5.38-3.46-8a15.33,15.33,0,0,0-1.79-3.06,13.84,13.84,0,0,0-3-2.65c-.13-.1-.26.12-.13.21Z"/>
    <path class="cls-2" d="M117.8,93.77h0l.13,0h0l0,0h0v.1h0l-.08,0h0l0,0s.07.11.11.17l.11.18.2.34a7.29,7.29,0,0,1,.37.74.12.12,0,0,0,.17,0,.13.13,0,0,0,0-.17,9.71,9.71,0,0,0-.53-1L118.1,94a.89.89,0,0,0-.16-.22.14.14,0,1,0-.07.23c.15-.05.09-.29-.07-.24Z"/>
    <path class="cls-2" d="M118.57,95.12a12.8,12.8,0,0,0-3,1.88c-.12.1,0,.27.18.17a13,13,0,0,1,3-1.84c.15-.06,0-.28-.13-.21Z"/>
    <path class="cls-2" d="M118.1,96.62a8.35,8.35,0,0,1,1.73,1.63l.17-.18-.07-.08a.12.12,0,0,0-.17.18l.07.08c.11.12.27-.06.17-.18a8.26,8.26,0,0,0-1.77-1.67c-.14-.09-.26.13-.13.22Z"/>
    <path class="cls-2" d="M118.15,96.53a4.52,4.52,0,0,1,.88-.36l-.14-.18-.06.09a.13.13,0,0,0,.22.12l.06-.09a.12.12,0,0,0-.14-.18,4.13,4.13,0,0,0-1,.39.12.12,0,1,0,.13.21Z"/>
    <path class="cls-2" d="M119.12,96.06v0l-.23.1c.1.18.16.38.25.56s.1.2.16.3a1.92,1.92,0,0,0,.17.26.55.55,0,0,1,.14.22,2.31,2.31,0,0,0,.1.28,1.05,1.05,0,0,1,.06.24.74.74,0,0,0,.07.21c.1.12.32,0,.22-.13a.41.41,0,0,1,0-.19,2.25,2.25,0,0,0-.08-.24c-.08-.18-.09-.38-.24-.52a1.25,1.25,0,0,1-.16-.24c-.06-.1-.12-.2-.17-.3s-.15-.39-.25-.58-.25,0-.23.1a.19.19,0,0,0,.07.12c.1.13.28,0,.17-.17Z"/>
    <path class="cls-2" d="M118.72,93.39l-.12-.17a.13.13,0,0,0-.23.1,5.5,5.5,0,0,0,.74,1.57c.09.13.31,0,.21-.13a5.2,5.2,0,0,1-.7-1.51l-.23.1.11.17c.09.13.31,0,.22-.13Z"/>
    <path class="cls-2" d="M119.67,95.8a9.36,9.36,0,0,0,.6,1.63c.12.26.26.52.4.77a4.83,4.83,0,0,1,.43.81c.05.15.29.08.24-.07a3.45,3.45,0,0,0-.38-.74c-.15-.26-.3-.52-.43-.79a10,10,0,0,1-.62-1.68.13.13,0,0,0-.24.07Z"/>
    <path class="cls-2" d="M119.89,95.78a.13.13,0,0,0,0-.25.13.13,0,0,0,0,.25Z"/>
    <path class="cls-2" d="M119.89,95.73l3.25-2a17.69,17.69,0,0,0,2.82-2c.12-.11-.06-.28-.18-.17a18.94,18.94,0,0,1-2.87,2l-3.14,2c-.14.09,0,.31.12.22Z"/>
    <path class="cls-2" d="M125.87,91.8a11.21,11.21,0,0,0,1.06,1.67,8.57,8.57,0,0,1,.87,1.9c0,.16.29.09.24-.06a8.6,8.6,0,0,0-.83-1.86,11.84,11.84,0,0,1-1.1-1.71c-.06-.15-.3-.09-.24.06Z"/>
    <path class="cls-2" d="M127.89,95.29c-2.24,1.15-4.44,2.34-6.62,3.59a.12.12,0,0,0,.12.21c2.18-1.24,4.39-2.44,6.62-3.58.15-.08,0-.29-.12-.22Z"/>
    <path class="cls-2" d="M119.37,95.06a36.08,36.08,0,0,0,4.68-2.85c.13-.09,0-.31-.13-.21a36.45,36.45,0,0,1-4.68,2.84c-.14.07,0,.29.13.22Z"/>
    <path class="cls-2" d="M122.16,90.18l-.06-.11-.17.17a5.88,5.88,0,0,1,1.61,1.32c.07.09.14.17.21.27a1.57,1.57,0,0,1,.2.3v-.08L124,92h0l.12,0h0l0,.15h0c.08-.14-.14-.27-.21-.12h0a.14.14,0,0,0,0,.15.17.17,0,0,0,.15,0,.14.14,0,0,0,.09-.09c0-.13-.08-.23-.15-.33l-.23-.3a5.47,5.47,0,0,0-.51-.56,5.82,5.82,0,0,0-1.24-.91.13.13,0,0,0-.17.17l.07.11a.12.12,0,0,0,.21-.12Z"/>
    <path class="cls-2" d="M122.67,89.72l-.24-.21-.15.2a9.53,9.53,0,0,1,2.07,1.89c.1.13.28,0,.18-.17a10,10,0,0,0-2.12-1.94c-.12-.08-.26.1-.16.2l.24.21c.12.11.29-.07.18-.18Z"/>
    <path class="cls-2" d="M122,99.91c2-1.48,4.39-2.27,6.45-3.65.13-.09,0-.3-.13-.21-2.06,1.37-4.45,2.17-6.45,3.65-.13.09,0,.31.13.21Z"/>
    <path class="cls-2" d="M128.39,96.4l0,0a.1.1,0,0,0,0-.09.16.16,0,0,0,0-.08.17.17,0,0,0-.1,0,.16.16,0,0,0-.08.06l0,0a.17.17,0,0,0,0,.1.11.11,0,0,0,.06.07.1.1,0,0,0,.09,0,.11.11,0,0,0,.08,0Z"/>
    <path class="cls-2" d="M128.42,96.28a37.57,37.57,0,0,0,4.84-2.7c.13-.09,0-.31-.13-.22a36.91,36.91,0,0,1-4.84,2.7c-.15.07,0,.28.13.22Z"/>
    <path class="cls-2" d="M133.12,93.69l1.21,2.72a10.07,10.07,0,0,1,.94,2.7c0,.16.27.16.25,0a9.5,9.5,0,0,0-.89-2.63l-1.29-2.91c-.07-.15-.28,0-.22.12Z"/>
    <path class="cls-2" d="M121.8,100q2.53,5.18,4.69,10.52c.06.15.3.09.24-.06q-2.17-5.38-4.71-10.59c-.07-.14-.29,0-.22.13Z"/>
    <path class="cls-2" d="M127,111.62q1.59,3.39,3.31,6.71c.08.15.29,0,.22-.12-1.15-2.22-2.26-4.46-3.31-6.72-.07-.14-.29,0-.22.13Z"/>
    <path class="cls-2" d="M130.34,118.39c3.1-1.28,6.07-2.85,9.07-4.34l9.56-4.73c.14-.07,0-.28-.13-.21l-9.34,4.62c-3.05,1.51-6.08,3.12-9.23,4.41-.14.07-.08.31.07.25Z"/>
    <path class="cls-2" d="M130.52,118.85a.61.61,0,0,1,.18.31l.16.49.33,1c.05.15.29.09.24-.06l-.36-1.08-.17-.5a.67.67,0,0,0-.25-.35c-.13-.09-.26.13-.13.22Z"/>
    <path class="cls-2" d="M130.65,118.82c3.19-1.37,6.29-2.9,9.38-4.46a23,23,0,0,1,2.26-.89,19.48,19.48,0,0,0,2.16-1l4.78-2.47c.14-.07,0-.29-.12-.21l-4.79,2.47a17.46,17.46,0,0,1-2.4,1.12,16.69,16.69,0,0,0-2,.81c-3.09,1.56-6.19,3.08-9.37,4.45-.15.07,0,.28.12.22Z"/>
    <path class="cls-2" d="M117.44,129.19c4.91-2.42,9.23-5.86,14.16-8.23.15-.07,0-.28-.12-.21-4.93,2.37-9.26,5.8-14.16,8.22-.15.08,0,.29.12.22Z"/>
    <path class="cls-2" d="M119.27,131.07q12.06-7.14,24.18-14.19l6.94-4c.14-.08,0-.3-.13-.22q-12.1,7-24.2,14.15l-6.92,4.08a.13.13,0,0,0,.13.22Z"/>
    <path class="cls-2" d="M149.11,109.91a13.19,13.19,0,0,1,.78,2.24c.35.79.73,1.57,1.08,2.37s.71,1.7,1,2.57c.17.43.33.87.49,1.31.06.19.1.53.29.64a.13.13,0,0,0,.17,0l0,0a.13.13,0,0,0,0-.17h0c-.13-.1-.26.11-.13.21l0,0,0-.17,0,0,.17,0c-.11-.06-.2-.54-.24-.66l-.24-.66-.44-1.14c-.3-.75-.6-1.49-.92-2.22s-.79-1.59-1.08-2.41a8,8,0,0,0-.68-2c-.08-.13-.3,0-.21.13Z"/>
    <path class="cls-2" d="M148.06,105.48l5.49,12.23c.06.14.28,0,.21-.13l-5.49-12.22c-.06-.15-.28,0-.21.12Z"/>
    <path class="cls-2" d="M146.05,103.84a27.63,27.63,0,0,1,2.77,5.31c.05.15.3.08.24-.07a28.27,28.27,0,0,0-2.8-5.37c-.08-.13-.3,0-.21.13Z"/>
    <path class="cls-2" d="M156.11,109.2a.42.42,0,0,0-.47,0l-.79.32-.86.35a1.75,1.75,0,0,0-.58.33,2.43,2.43,0,0,0-.43.58c-.17.24-.32.49-.48.74-.33.51-.65,1-1,1.54a.13.13,0,0,0,.22.13c.51-.85,1-1.69,1.58-2.52a2.27,2.27,0,0,1,1.18-.75l.67-.27.36-.14c.08,0,.3-.16.39-.08s.29-.07.17-.18Z"/>
    <path class="cls-2" d="M156.06,101.2A11.14,11.14,0,0,0,154,102l-2.22,1a16.79,16.79,0,0,0-3.77,2.21c-.12.11.06.28.18.18a16.1,16.1,0,0,1,3.72-2.17l2.08-1a11.08,11.08,0,0,1,2.14-.88c.16,0,.09-.28-.07-.24Z"/>
    <path class="cls-2" d="M147.91,104.6a6.38,6.38,0,0,0,1.94-.91c.65-.38,1.32-.72,2-1,1.39-.69,2.81-1.32,4.17-2.09.14-.07,0-.29-.13-.21-1.31.74-2.68,1.36-4,2-.68.33-1.35.67-2,1a6.7,6.7,0,0,1-2,1c-.16,0-.09.27.07.24Z"/>
    <path class="cls-2" d="M152.79,91.87a60.42,60.42,0,0,1-7.49,6.81c-.12.1,0,.32.13.22A60.46,60.46,0,0,0,153,92.05c.11-.12-.06-.3-.18-.18Z"/>
    <path class="cls-2" d="M145.31,98.86a58.8,58.8,0,0,0,2.46,5.71c.07.14.29,0,.22-.13a58.42,58.42,0,0,1-2.43-5.64c-.06-.15-.3-.09-.25.06Z"/>
    <path class="cls-2" d="M141,90.52c1.4,2.53,2.46,5.26,3.62,7.91.06.15.28,0,.21-.13-1.16-2.64-2.21-5.38-3.62-7.91-.07-.14-.29,0-.21.13Z"/>
    <path class="cls-2" d="M144.93,98.43a46,46,0,0,1,3.83-3.26c.63-.6,1.15-1.3,1.84-1.85a12.53,12.53,0,0,0,2-1.93c.1-.12-.07-.3-.17-.18a12.84,12.84,0,0,1-1.94,1.89c-.71.56-1.25,1.27-1.9,1.89-1.22,1.16-2.72,2-3.83,3.27-.1.12.08.3.18.17Z"/>
    <path class="cls-2" d="M139.71,90.07a46.61,46.61,0,0,1,3.63,7.15c1,2.38,1.9,4.77,3,7.07.07.15.29,0,.22-.12-1.21-2.42-2.17-5-3.2-7.45a46.62,46.62,0,0,0-3.48-6.78c-.08-.13-.3,0-.22.13Z"/>
    <path class="cls-2" d="M146.29,84.61a2.3,2.3,0,0,1-.38.79c-.15.25-.3.51-.44.77a12.49,12.49,0,0,0-.72,1.68c-.06.15.18.21.24.06a13.77,13.77,0,0,1,.75-1.72c.14-.26.29-.52.45-.77a2.06,2.06,0,0,0,.35-.75c0-.16-.22-.22-.25-.06Z"/>
    <path class="cls-2" d="M147,85.19c-.35.7-.73,1.39-1.15,2.06-.08.13.13.25.22.12l0-.06c.09-.13-.12-.26-.22-.12l0,.06.22.12a21.72,21.72,0,0,0,1.15-2.06c.07-.14-.15-.27-.22-.12Z"/>
    <path class="cls-2" d="M146,87.5a8.57,8.57,0,0,1,2,0l1,.08.5,0c.12,0,.21,0,.3-.05a.13.13,0,0,0,0-.15.16.16,0,0,0-.1-.08.14.14,0,0,0-.16.09h0c-.06.15.18.22.24.07h0l-.15.08,0,0,0-.15c.05,0-.11,0-.15,0l-.25,0-.44,0-1-.08a8.42,8.42,0,0,0-1.81,0c-.16,0-.09.27.06.24Z"/>
    <path class="cls-2" d="M137.23,82.56a21.58,21.58,0,0,0,1.63,3.68c.32.6.64,1.19.94,1.81.16.32.3.64.44,1a1.71,1.71,0,0,0,.36.66c.12.1.3-.07.18-.18a2.21,2.21,0,0,1-.41-.81c-.13-.3-.26-.6-.41-.89-.28-.57-.58-1.14-.88-1.7a20,20,0,0,1-1.6-3.61.13.13,0,0,0-.25.06Z"/>
    <path class="cls-2" d="M140.71,89.69A26,26,0,0,1,145,87.93l-.12-.21-.07.06c-.13.1.05.27.17.17l.08-.06c.1-.08,0-.24-.12-.21a26.85,26.85,0,0,0-4.33,1.79c-.14.08,0,.29.13.22Z"/>
    <path class="cls-2" d="M141.23,90.54l4.4-2.05c.15-.07,0-.28-.12-.21l-4.4,2c-.15.07,0,.28.12.21Z"/>
    <path class="cls-2" d="M145.56,88.42c1.61,0,3.22.11,4.82.23.16,0,.16-.24,0-.25-1.6-.12-3.21-.19-4.82-.23a.13.13,0,0,0,0,.25Z"/>
    <path class="cls-2" d="M136.7,84c.1,0,.28.47.32.56s.22.4.32.6c.22.42.43.85.63,1.27.41.86.79,1.74,1.14,2.62,0,.15.3.08.24-.07-.38-1-.8-1.91-1.25-2.85-.22-.47-.46-.94-.7-1.4-.12-.23-.24-.46-.37-.69s-.14-.28-.33-.29-.16.24,0,.25Z"/>
    <path class="cls-2" d="M136.52,83.66c-1.52,1.19-3,2.46-4.58,3.54s-3.13,2.14-4.79,3c-.14.08,0,.29.13.22,1.7-.94,3.31-2,4.92-3.15s3-2.31,4.5-3.48c.12-.1,0-.28-.18-.18Z"/>
    <path class="cls-2" d="M128.66,85.38h0a.14.14,0,0,0,0-.16.15.15,0,0,0-.1,0,.13.13,0,0,0-.12.09c0,.09,0,.17.07.25l.15.31.31.64.3.63.15.31c0,.09.08.18.18.22a.12.12,0,0,0,.12,0,.17.17,0,0,0,0-.15.14.14,0,0,0-.12-.09h0c-.16,0-.16.26,0,.25h0l-.12-.09h0l0-.12h0l.13,0h0l.07.06a3.71,3.71,0,0,1-.26-.53l-.26-.54-.27-.55-.13-.27-.06-.12s0-.15-.06-.09l-.12.09h0l-.09,0h0l0-.15h0a.13.13,0,0,0,.22.12Z"/>
    <path class="cls-2" d="M129.51,84.8h0l-.18.14a.85.85,0,0,1,.09.14,1.57,1.57,0,0,1,.1.28l.09.28c0,.09.08.16.11.25a3.28,3.28,0,0,0,.25.58c.1.19.17.4.27.6a.12.12,0,0,0,.19,0,.23.23,0,0,0,.07-.19.13.13,0,0,0-.25,0s0,0,0,0l.19,0c-.09-.21-.17-.42-.28-.63L130,86c0-.1-.06-.21-.11-.31a5.27,5.27,0,0,1-.19-.56,1.14,1.14,0,0,0-.26-.42.13.13,0,0,0-.19.14.17.17,0,0,0,.06.1c.12.11.3-.07.18-.17Z"/>
    <path class="cls-2" d="M130.41,87.19c2.06-1.47,4.11-3,6.14-4.45.13-.1,0-.31-.12-.22q-3.06,2.25-6.15,4.45c-.13.09,0,.31.13.22Z"/>
    <path class="cls-2" d="M124.63,87.8a6.78,6.78,0,0,1,1,.72,4.28,4.28,0,0,1,.45.4l.22.23.11.11,0,0,0,0s0,0,.06-.07h.09l.06.08,0,.09h0l-.12,0h0a.15.15,0,0,0,.16-.09c0-.06,0-.15-.09-.16s-.23.11-.15.22a.15.15,0,0,0,.28-.08c0-.13-.13-.24-.21-.32l-.33-.34a7.63,7.63,0,0,0-1.48-1.11c-.14-.08-.27.13-.13.21Z"/>
    <path class="cls-2" d="M126.65,89.26a10.94,10.94,0,0,0-2.45,2.15c-.1.12.07.3.18.18a10.52,10.52,0,0,1,2.4-2.11c.13-.09,0-.31-.13-.22Z"/>
    <path class="cls-2" d="M125.37,87.36l.95,1a6.39,6.39,0,0,0,.93.87c.13.1.25-.12.12-.21a6.17,6.17,0,0,1-.9-.87l-.92-1c-.11-.12-.29.06-.18.17Z"/>
    <path class="cls-2" d="M127.34,89.19l2.34-1.47a.12.12,0,0,0,0-.21l-.11-.07c-.14-.08-.26.13-.13.22l.12.06v-.21L127.22,89c-.14.08,0,.3.12.21Z"/>
    <path class="cls-2" d="M127.16,90.11a5.39,5.39,0,0,1-.93.7.12.12,0,0,0,.13.21,5.8,5.8,0,0,0,1-.73.13.13,0,0,0-.18-.18Z"/>
    <path class="cls-2" d="M126.21,90.93a2.85,2.85,0,0,0,.55.87c.25.31.5.64.73,1a12.84,12.84,0,0,1,1.15,2.13c.06.15.3.08.24-.07a13.68,13.68,0,0,0-1.1-2.07c-.2-.31-.42-.62-.65-.91a3.41,3.41,0,0,1-.68-1c0-.15-.29-.09-.24.07Z"/>
    <path class="cls-2" d="M128.71,95q2.65-1.62,5.45-3c1.71-.86,3.65-1.49,5.14-2.71.13-.1-.05-.28-.17-.18a11.69,11.69,0,0,1-2.52,1.45c-.92.42-1.84.85-2.75,1.31q-2.7,1.36-5.28,2.94a.12.12,0,0,0,.13.21Z"/>
    <path class="cls-2" d="M139.75,89.93c-1.92,1.22-4.24,1.66-6.1,3-.13.1,0,.31.13.22,1.85-1.35,4.17-1.79,6.1-3,.13-.08,0-.3-.13-.21Z"/>
    <path class="cls-2" d="M133.75,93.06A35.59,35.59,0,0,1,136,98.38a9.93,9.93,0,0,0,1.08,2.28,11.12,11.12,0,0,1,1.38,2.59c.05.16.29.09.24-.06a10.5,10.5,0,0,0-1.3-2.51,10.74,10.74,0,0,1-1.22-2.53A34.33,34.33,0,0,0,134,92.93c-.07-.14-.29,0-.21.13Z"/>
    <path class="cls-2" d="M135.66,99.82a12.49,12.49,0,0,1,1,1.65,8.44,8.44,0,0,1,.69,1.72c-.14.06,0,.28.13.22s.05-.55,0-.73c-.13-.34-.27-.69-.43-1a11.84,11.84,0,0,0-1.16-2c-.09-.13-.31,0-.21.13Z"/>
    <path class="cls-2" d="M138.81,103.45a2.76,2.76,0,0,0-4,1.14,4.53,4.53,0,0,0-.39,2.59c.15,1.13.64,2.36,0,3.41-.09.13.12.26.21.12a3.3,3.3,0,0,0,.28-2.39,6.65,6.65,0,0,1-.13-2.84,3,3,0,0,1,1.5-2,2.3,2.3,0,0,1,2.42.16c.13.1.31-.08.18-.18Z"/>
    <path class="cls-2" d="M135.23,111c.37-1.19,1.77-1.42,2.77-1.84a4,4,0,0,0,2.1-1.71,3,3,0,0,0-1.87-4.23c-.15,0-.22.2-.07.24a2.71,2.71,0,0,1,1.1,4.66,8.51,8.51,0,0,1-2.62,1.28A2.62,2.62,0,0,0,135,111c-.05.16.2.22.24.07Z"/>
    <path class="cls-2" d="M138.29,105.14a1,1,0,0,0-1.27-.36,1.48,1.48,0,0,0-.72,1.4,1.33,1.33,0,0,0,.27.85,1,1,0,0,0,.7.35,1.22,1.22,0,0,0,1.25-.92,1.64,1.64,0,0,0-.08-1,1,1,0,0,0-.27-.43.22.22,0,0,0-.36.11c0,.15.22.22.24.06l0,0,0,0a.43.43,0,0,1,0,.07l.09.16a2.06,2.06,0,0,1,.12.35,1.31,1.31,0,0,1-.06.71,1,1,0,0,1-1,.63.81.81,0,0,1-.5-.28,1.14,1.14,0,0,1-.19-.67,1.29,1.29,0,0,1,.5-1.13.74.74,0,0,1,1,.21c.07.14.29,0,.21-.12Z"/>
    <path class="cls-2" d="M134.45,110.65a.61.61,0,0,0,.86.35.13.13,0,0,0,0-.17.12.12,0,0,0-.17,0h0s0,0,0,0H135l-.09,0h0l0,0,0,0s0,0,0,0l0,0,0,0h0v0l0,0s0,0,0,0v0a.12.12,0,1,0-.24.06Z"/>
    <path class="cls-2" d="M135.24,99a34.37,34.37,0,0,1-5.37,2.57c-.14.06-.08.3.07.24a35,35,0,0,0,5.42-2.6c.14-.08,0-.3-.12-.21Z"/>
    <path class="cls-2" d="M135.5,99.76l-2.85,1.46a11.26,11.26,0,0,1-2.84,1.14c-.15,0-.09.28.07.25a11.71,11.71,0,0,0,2.8-1.12l2.95-1.52c.14-.07,0-.28-.13-.21Z"/>
    <path class="cls-2" d="M129.67,101.68a3.78,3.78,0,0,1,.06.82.13.13,0,0,0,.13.13.12.12,0,0,0,.12-.13,4.35,4.35,0,0,0-.07-.88.12.12,0,0,0-.15-.09.13.13,0,0,0-.09.15Z"/>
    <path class="cls-2" d="M140.47,106.57h0a.11.11,0,0,0,0-.15.14.14,0,0,0-.19-.08.18.18,0,0,0-.08.23c.05.14.12.28.18.42l.18.43.34.82.17.42.08.19s.11.19.09.25l.06-.08h.07l0,.09v0c0-.16-.24-.16-.25,0s.33.21.34,0a1,1,0,0,0-.15-.4l-.19-.46-.36-.87-.18-.44-.09-.22-.05-.1s0-.11,0-.08l-.07.06h0l-.1,0,0,0,0-.15h0c-.12.12.06.3.17.18Z"/>
    <path class="cls-2" d="M141.27,108.91c-1.42.59-2.84,1.19-4.28,1.75l.15.09,0-.16a.13.13,0,0,0-.24.07l0,.15a.14.14,0,0,0,.16.09c1.43-.56,2.86-1.16,4.28-1.75.15-.06.08-.3-.07-.24Z"/>
    <path class="cls-2" d="M139.5,108.13l.11.4.06.2,0,.09a.07.07,0,0,0,0,.05h0s0,0,.1-.08l.06,0a.11.11,0,0,1,0,.11l0,0h0l0,0h-.06a.12.12,0,0,0,.15-.09.12.12,0,0,0-.08-.15.15.15,0,0,0-.18.13.17.17,0,0,0,.08.14.15.15,0,0,0,.2-.07.21.21,0,0,0,0-.19l-.2-.71a.13.13,0,0,0-.15-.09.13.13,0,0,0-.09.16Z"/>
    <path class="cls-2" d="M139.68,108.78,136.56,110a.13.13,0,0,0-.08.16,1.88,1.88,0,0,0,.32.63c.09.13.31,0,.21-.13a1.71,1.71,0,0,1-.29-.57l-.09.16,3.12-1.27c.15-.06.08-.3-.07-.24Z"/>
    <path class="cls-2" d="M108.32,142.07c-3.7,4.36-7.06,9-10.5,13.57-.09.13.12.25.22.12,3.42-4.55,6.77-9.17,10.46-13.52.1-.12-.08-.3-.18-.17Z"/>
    <path class="cls-2" d="M97.88,155.89a33.12,33.12,0,0,1,4.32,3.42,22,22,0,0,0,4,3.12c.15.08.27-.14.13-.21a23.22,23.22,0,0,1-4.19-3.28A31,31,0,0,0,98,155.68c-.14-.09-.26.13-.13.21Z"/>
    <path class="cls-2" d="M106.47,162.57a84.66,84.66,0,0,1,5.63-7.18,30.43,30.43,0,0,0,2.44-3,15.92,15.92,0,0,1,2.53-3.29.12.12,0,0,0-.17-.18,14,14,0,0,0-2.35,3,32,32,0,0,1-2.78,3.47,87.36,87.36,0,0,0-5.52,7.05c-.09.14.12.26.22.13Z"/>
    <path class="cls-2" d="M104.62,139.25a17.78,17.78,0,0,0-4.68,2.32c-.65.49-1.26,1-1.85,1.58a7.93,7.93,0,0,0-1.54,1.78c-.08.14.14.26.22.13a8.21,8.21,0,0,1,1.49-1.73,19.59,19.59,0,0,1,1.92-1.62,17.69,17.69,0,0,1,4.51-2.22c.15-.05.09-.29-.07-.24Z"/>
    <path class="cls-2" d="M93.55,139.76c1,1.24,1.93,2.51,2.85,3.79.1.13.31,0,.22-.12-.94-1.31-1.9-2.59-2.9-3.84-.1-.13-.27,0-.17.17Z"/>
    <path class="cls-2" d="M94.37,139.06q1.47,2,3,3.87c.1.12.28-.05.18-.18q-1.48-1.89-2.93-3.82c-.1-.12-.32,0-.22.13Z"/>
    <path class="cls-2" d="M97.4,143a19.84,19.84,0,0,1,6.58-4.22c.14-.07,0-.29-.13-.22a20,20,0,0,0-6.62,4.27c-.11.11.06.29.17.17Z"/>
    <path class="cls-2" d="M96.6,143.38a.9.9,0,0,0-.41.49c-.14.26-.29.51-.44.76a14.13,14.13,0,0,1-1,1.44c-.09.12.08.3.18.18q.5-.65.93-1.32l.41-.7.18-.34c.05-.09.1-.23.21-.27s.08-.3-.07-.24Z"/>
    <path class="cls-2" d="M91.43,141.71c.63.74,1.24,1.5,1.84,2.26l.89,1.17.44.61c.09.12.18.33.34.37a.13.13,0,0,0,.14-.06.14.14,0,0,0,0-.14.13.13,0,0,0-.12-.09h0c-.16,0-.16.26,0,.25h0l-.12-.09v-.06l.14-.05c-.06,0-.16-.21-.19-.26l-.22-.3-.4-.54-.83-1.08c-.57-.73-1.16-1.46-1.76-2.17-.1-.12-.28.06-.18.18Z"/>
    <path class="cls-2" d="M90.82,142.23q1.84,2.31,3.51,4.75c.09.14.3,0,.21-.12q-1.68-2.48-3.55-4.8c-.1-.13-.27.05-.17.17Z"/>
    <path class="cls-2" d="M88.76,147.46c.92,1.33,1.9,2.61,2.91,3.87a.13.13,0,0,0,.22-.09l0-.13c0-.16-.26-.16-.25,0l0,.13.21-.09q-1.5-1.86-2.87-3.81c-.1-.13-.31,0-.22.12Z"/>
    <path class="cls-2" d="M88.6,148.77a8,8,0,0,0,1.27,1.5,4.16,4.16,0,0,1,.64.75,6.6,6.6,0,0,0,.59.8c.11.12.29-.06.18-.18a7.27,7.27,0,0,1-.58-.79,4.73,4.73,0,0,0-.61-.72,7.77,7.77,0,0,1-1.27-1.48c-.09-.14-.31,0-.22.12Z"/>
    <path class="cls-2" d="M91.07,151.75a3.34,3.34,0,0,1-.79,1.14c-.16.17-.33.32-.5.48l-.28.25-.15.12-.08.07s-.08.06,0,.06l.12.09h0l0,.12h0l-.15,0h0c.13.09.25-.12.12-.22h0a.11.11,0,0,0-.15,0,.14.14,0,0,0,0,.14.12.12,0,0,0,.12.09c.13,0,.24-.14.33-.21l.33-.29.57-.54a3.81,3.81,0,0,0,.86-1.27c.06-.15-.18-.21-.24-.06Z"/>
    <path class="cls-2" d="M91.53,152.83a3.3,3.3,0,0,1-1,1.1,6.76,6.76,0,0,1-.61.44l-.33.21a3,3,0,0,1-.38.24h.07l.09.12v0l-.06.11h0l-.15,0h0c.12.1.3-.08.18-.18h0a.14.14,0,0,0-.15,0,.16.16,0,0,0-.08.14s0,.11.09.12.28-.1.39-.17l.39-.25c.22-.15.45-.31.66-.47A3.66,3.66,0,0,0,91.75,153c.07-.14-.14-.27-.22-.12Z"/>
    <path class="cls-2" d="M91.65,153c4.08,3.52,8.09,7.15,12.43,10.34.13.1.26-.12.13-.21-4.32-3.18-8.32-6.81-12.38-10.3-.13-.11-.3.07-.18.17Z"/>
    <path class="cls-2" d="M96.78,145.18l0-.16-.18.14a36.7,36.7,0,0,1,3.08,2.48l.09-.21-.18,0c-.16,0-.16.24,0,.25l.18,0a.13.13,0,0,0,.08-.22A37.63,37.63,0,0,0,96.69,145c-.1-.07-.21,0-.19.14l0,.16c0,.15.28.09.25-.07Z"/>
    <path class="cls-2" d="M96.24,145.65a6.65,6.65,0,0,1,1.53,1.11l1.54,1.3a.13.13,0,0,0,.18,0c.14-.14.39-.5.09-.63a.14.14,0,0,0-.12,0h0c-.12.11.06.29.18.18v0l-.12,0h0l-.07-.05c.05.06-.12.22-.15.25h.18l-1.65-1.38a6.41,6.41,0,0,0-1.54-1.09c-.15-.06-.21.18-.06.24Z"/>
    <path class="cls-2" d="M96.26,145.56a27.32,27.32,0,0,0-2.11,3.21.13.13,0,0,0,0,.17,39.47,39.47,0,0,1,3.86,3.2c.12.11.3-.07.18-.18a39,39,0,0,0-3.91-3.23l.05.17a26,26,0,0,1,2.1-3.21c.1-.13-.12-.26-.21-.13Z"/>
    <path class="cls-2" d="M94,149.42v0a.13.13,0,0,0-.06-.14.15.15,0,0,0-.17,0,.15.15,0,0,0-.06.14c.05.14.19.19.31.26s.35.24.52.36c.36.28.71.57,1.06.86l2.11,1.71a.12.12,0,0,0,.19,0l.33-.54c.08-.14-.13-.26-.22-.13l-.32.55.19,0-2-1.66-1-.78-.47-.35-.26-.17-.19-.11-.06.14h-.09l-.06-.14h0c0,.16.21.22.24.07Z"/>
    <path class="cls-2" d="M93.8,149.42c-.49.93-1,1.84-1.59,2.72l.23.06v0c0-.16-.26-.16-.25,0v0a.13.13,0,0,0,.24.07c.56-.89,1.09-1.79,1.59-2.72.07-.14-.14-.27-.22-.13Z"/>
    <path class="cls-2" d="M94.34,146.81a25.72,25.72,0,0,1-2.61,4.29c-.1.13.12.26.21.13a25.07,25.07,0,0,0,2.61-4.29c.07-.15-.14-.28-.21-.13Z"/>
    <path class="cls-2" d="M92.29,152.29q3.43,3.14,7.06,6.07c1.11.9,2.23,1.79,3.26,2.79a15,15,0,0,0,2.93,2.46c.14.08.27-.14.13-.22a15.46,15.46,0,0,1-3-2.56c-1-1-2.18-1.89-3.3-2.8q-3.53-2.86-6.87-5.91c-.12-.11-.3.07-.18.17Z"/>
    <path class="cls-2" d="M118.46,149.9c-4.09,4.18-7.51,8.93-11.19,13.46-.1.12.08.3.18.18,3.68-4.53,7.09-9.29,11.18-13.46.12-.11-.06-.29-.17-.18Z"/>
    <path class="cls-2" d="M117.48,149.33c-3.83,4.71-7.7,9.4-11.46,14.17-.1.12.08.3.18.17,3.76-4.76,7.63-9.45,11.46-14.16.1-.12-.08-.3-.18-.18Z"/>
    <path class="cls-3" d="M155.19,113.43c2.59-8.41,1.64-19.78-6.58-27a12.42,12.42,0,0,0-3.88-3,10.11,10.11,0,0,0-2.84-.8c-8.58-1.81-16.31,3.77-21.53,8.52-7.21,6.55-9,15.43-9.79,24.91a11.46,11.46,0,0,0-.26,1.13,33.65,33.65,0,0,1-.58,3.87,15.63,15.63,0,0,1-1.62,3.74c-2.84,5-4.35,4.8-4.28,6.39.12,2.81,4.81,3.42,12,10,1,.95,1.94,1.87,2.77,2.69a4.65,4.65,0,0,0,1.08,1c1.35,1.26,2.41,2,3.23,1.8.6-.17.73-.78,1-1.58,0,0,.09,0,.11-.11l3.85-3.51c2.41-.77,5-2.89,10.39-7.35,3.46-2.86,5.42-4.47,6.86-6A30.51,30.51,0,0,0,155.19,113.43Z"/>
    <path class="cls-3" d="M100.05,136.15a47.29,47.29,0,0,1,4.26,2.72c1.78,1.26,3,2.34,4.38,3.48,3.13,2.68,2.75,2.7,4.38,4,3.75,2.91,5.77,2.85,6.14,4.28.27,1-.69,1.33-3.26,4.65-1.69,2.18-1.47,2.29-2.86,3.95-2,2.36-3,3.54-4.61,4.09-2.56.87-5.27.1-7.25-.47a37,37,0,0,1-6.12-2.87c-4.14-2.17-4.8-2.89-5.21-3.5-.67-1-.81-2.12-1.07-4.37a15.24,15.24,0,0,1,0-5.17,10.07,10.07,0,0,1,2.43-5.14c.64-.69.52-.33,2.15-1.78,2.07-1.83,2.44-2.56,3.8-3.17A7.72,7.72,0,0,1,100.05,136.15Z"/>
    <path class="cls-2" d="M93.45,75.15c.09,2.22.12,4.45.09,6.67a.13.13,0,0,0,.25,0c0-2.22,0-4.45-.09-6.67,0-.16-.26-.16-.25,0Z"/>
    <path class="cls-2" d="M98,80.21A7.67,7.67,0,0,0,96,81a10.7,10.7,0,0,1-2.24.66c-.15,0-.08.29.07.25a13.34,13.34,0,0,0,2.16-.62c.34-.17.67-.36,1-.51a5.1,5.1,0,0,1,1.08-.3c.16,0,.1-.27-.06-.25Z"/>
    <path class="cls-2" d="M98,80.32a27.24,27.24,0,0,1-.13-5.78.15.15,0,0,0-.07-.11h0a.12.12,0,0,0-.15,0l0,0a.13.13,0,0,0,0,.12.29.29,0,0,0,.07.12c.12.11.3-.07.18-.18h0l0,.12,0,0h-.15l0,0-.06-.11a27.24,27.24,0,0,0,.13,5.78c0,.16.27.16.25,0Z"/>
    <path class="cls-2" d="M97.8,74.32a3.67,3.67,0,0,0-1,.11l-1.12.21-2.16.41c-.16,0-.09.27.07.24l2.07-.39,1-.2a4.45,4.45,0,0,1,1.09-.13c.16,0,.16-.24,0-.25Z"/>
    <path class="cls-2" d="M104.71,76.5c.2,0,.15-.27.08-.41a5.93,5.93,0,0,1-.31-.68,5.61,5.61,0,0,1-.32-1.46c0-.16-.26-.16-.25,0a5.41,5.41,0,0,0,.24,1.25,4.71,4.71,0,0,0,.22.59c0,.09.08.18.13.27a1.19,1.19,0,0,0,.08.16.11.11,0,0,1,0,.06s0,0,.05,0a.12.12,0,0,0,.06.24Z"/>
    <path class="cls-2" d="M104,73.83c-1,.07-1.89.2-2.83.34l-1.36.2-.63.1c-.16,0-.31,0-.41.15a.15.15,0,0,0,.16.21.12.12,0,0,0,.12-.09v0c0-.16-.22-.23-.24-.07v0l.12-.09h0l.1.07v.1a2,2,0,0,1,.51-.08l.56-.08,1.27-.2c.89-.13,1.77-.24,2.67-.31.15,0,.16-.26,0-.25Z"/>
    <path class="cls-2" d="M98.78,74.61c.17,1.85-.38,3.69-.18,5.55,0,.16.27.16.25,0-.2-1.86.35-3.7.18-5.55,0-.16-.26-.16-.25,0Z"/>
    <path class="cls-2" d="M104.57,76.28a28.4,28.4,0,0,0-2.79,1.82A13.65,13.65,0,0,1,98.93,80c-.14.06,0,.28.13.21a12.12,12.12,0,0,0,2.73-1.76,29.75,29.75,0,0,1,2.91-1.91.12.12,0,0,0-.13-.21Z"/>
    <path class="cls-2" d="M99,80h0l0,0a.57.57,0,0,1-.13.08l0,0-.14,0h0a.12.12,0,0,0-.09,0,.11.11,0,0,0,0,.08.12.12,0,0,0,0,.09.18.18,0,0,0,.09,0,.72.72,0,0,0,.21,0,.78.78,0,0,0,.18-.11.12.12,0,0,0,0-.18.12.12,0,0,0-.08,0A.13.13,0,0,0,99,80Z"/>
    <path class="cls-2" d="M106.57,82a.18.18,0,0,0,.28.11.14.14,0,0,0,.06-.14c-.16-.94-.34-1.88-.55-2.82,0-.16-.27-.09-.24.07.2.93.39,1.87.54,2.82l.06-.14.09,0c0-.16-.29-.09-.24.06Z"/>
    <path class="cls-2" d="M103.63,80.38c-.28,1.53-.53,3.07-.73,4.62,0,.16.23.16.25,0,.2-1.52.44-3,.72-4.55,0-.16-.21-.23-.24-.07Z"/>
    <path class="cls-2" d="M102.46,80.94l-.76,5.5c0,.16.22.23.24.07l.76-5.5c0-.16-.22-.22-.24-.07Z"/>
    <path class="cls-2" d="M106.83,78.35c.32,1,.28,2.09.63,3.09.06.15.3.09.24-.06-.35-1-.31-2.09-.63-3.09,0-.16-.29-.09-.24.06Z"/>
    <path class="cls-2" d="M112.49,77.24a2.14,2.14,0,0,0-1.15-.11l-1.48.21c-1,.16-2,.35-3,.57a.13.13,0,0,0-.09.16,2,2,0,0,0,.2.63c.07.14.29,0,.21-.13A1.88,1.88,0,0,1,107,78l-.09.16c.9-.2,1.8-.38,2.71-.53l1.41-.2a2.47,2.47,0,0,1,1.35,0c.14.07.27-.15.12-.21Z"/>
    <path class="cls-2" d="M103.24,83.7a4.07,4.07,0,0,0-.85-.07.12.12,0,0,0-.13.12.14.14,0,0,0,.13.13,3.38,3.38,0,0,1,.78.06.14.14,0,0,0,.16-.09.13.13,0,0,0-.09-.15Z"/>
    <path class="cls-2" d="M116.33,74a10.16,10.16,0,0,0-2.46.23l-2.78.49q-2.73.49-5.43,1.08c-.16,0-.09.28.07.24q2.59-.55,5.22-1l2.57-.46a11.62,11.62,0,0,1,2.81-.29c.16,0,.16-.24,0-.25Z"/>
    <path class="cls-2" d="M105.77,75.88c-1.13-1.23-1.13-3-1.17-4.55l-.17-5.56a.13.13,0,0,0-.25,0c.06,2,.11,4.07.18,6.11a6.26,6.26,0,0,0,1.23,4.18c.11.11.29-.06.18-.18Z"/>
    <path class="cls-2" d="M103.34,66c0,2.39,0,4.79.25,7.17,0,.16.26.16.25,0-.2-2.38-.2-4.78-.25-7.17,0-.16-.26-.16-.25,0Z"/>
    <path class="cls-2" d="M103.7,73a5.16,5.16,0,0,1-1.36,0,9.65,9.65,0,0,0-1.2.06l-2.5.21-5.11.45c-.16,0-.16.26,0,.25l5.31-.46,2.58-.23a15.32,15.32,0,0,0,2.35,0c.15,0,.09-.28-.07-.25Z"/>
    <path class="cls-2" d="M93.57,73.92a57.74,57.74,0,0,1,.22-7.2c0-.16-.23-.16-.25,0a57.74,57.74,0,0,0-.22,7.2.13.13,0,0,0,.25,0Z"/>
    <path class="cls-2" d="M103.4,65.84q-4.87.22-9.7.87c-.15,0-.16.27,0,.25q4.83-.64,9.7-.87c.16,0,.16-.26,0-.25Z"/>
    <path class="cls-2" d="M106.1,78.94a12.26,12.26,0,0,1-2.36,1.15c-.15.06-.08.3.07.25a13.88,13.88,0,0,0,2.42-1.18c.14-.08,0-.3-.13-.22Z"/>
    <path class="cls-2" d="M102.39,80.85a56.62,56.62,0,0,0-6.68,3.05c-.14.08,0,.3.13.22a57.29,57.29,0,0,1,6.62-3c.15-.06.08-.3-.07-.24Z"/>
    <path class="cls-2" d="M95.72,83.93a23.67,23.67,0,0,1-.8,5.62.13.13,0,0,0,.24.07A23.82,23.82,0,0,0,96,83.93a.13.13,0,0,0-.25,0Z"/>
    <path class="cls-2" d="M98.78,92.26A21.43,21.43,0,0,1,97,90.93l-1.83-1.47c-.13-.1-.31.08-.18.18l1.89,1.51c.58.46,1.17.93,1.79,1.33.14.09.26-.13.13-.22Z"/>
    <path class="cls-2" d="M98.13,93.91a30.82,30.82,0,0,0-5.68-4.42c-.14-.08-.26.14-.13.22A30.55,30.55,0,0,1,98,94.08c.12.12.3-.06.18-.17Z"/>
    <path class="cls-2" d="M92.16,89.6a17,17,0,0,0,.25,4c0,.16.27.16.25,0a17,17,0,0,1-.25-4c0-.16-.23-.16-.25,0Z"/>
    <path class="cls-2" d="M91.47,89a6.29,6.29,0,0,0-.16,1.89l0,2.11c0,.16.26.16.25,0l0-2a6.44,6.44,0,0,1,.15-1.91c.05-.15-.19-.22-.24-.06Z"/>
    <path class="cls-2" d="M91.61,89a34.28,34.28,0,0,0-3.79-2.87c-.14-.09-.26.13-.13.21a34.39,34.39,0,0,1,3.74,2.84c.13.1.3-.07.18-.18Z"/>
    <path class="cls-2" d="M87.73,86.06q-5.07.68-10.17.9c-.16,0-.16.26,0,.25,3.42-.15,6.84-.46,10.23-.91.16,0,.1-.27-.06-.24Z"/>
    <path class="cls-2" d="M77.52,87l-.52.7a.12.12,0,1,0,.21.12l.52-.69a.13.13,0,0,0,0-.17.13.13,0,0,0-.17,0Z"/>
    <path class="cls-2" d="M88.59,88.45a18.86,18.86,0,0,0-.58,1.8,6.8,6.8,0,0,0-.22.89.17.17,0,0,0,.12.21.14.14,0,0,0,.17-.15.12.12,0,0,0-.09-.12h0a.13.13,0,0,0-.07.24h0l-.09-.12v0L88,91.1h0l.09,0q0,.1,0,0l0-.1a.75.75,0,0,1,0-.16c0-.12,0-.24.08-.36s.12-.44.19-.66q.2-.67.45-1.35c0-.15-.19-.21-.24-.06Z"/>
    <path class="cls-2" d="M88.79,88.6a1.56,1.56,0,0,0-1.29-1,15,15,0,0,0-3-.44,17.5,17.5,0,0,0-6.18.79c-.15,0-.08.29.07.24a17,17,0,0,1,5.34-.8,15.77,15.77,0,0,1,2.74.24c.68.12,1.91.21,2.12,1,0,.15.27.09.24-.07Z"/>
    <path class="cls-2" d="M94.85,84.35c0,1.48.25,3.22-.58,4.54-.08.14.14.26.22.12.85-1.36.64-3.13.61-4.66a.13.13,0,0,0-.25,0Z"/>
    <path class="cls-2" d="M94.39,89.05q-2.08-1.64-4-3.46c-.12-.11-.29.07-.18.18,1.29,1.21,2.63,2.37,4,3.46.12.09.3-.08.17-.18Z"/>
    <path class="cls-2" d="M90.23,85.7a7.07,7.07,0,0,1,2.3-.92,10.26,10.26,0,0,1,1.21-.22l.62-.09.33,0,.16,0q.18,0,0-.15l.11-.06h0c-.16,0-.16.24,0,.25a.15.15,0,0,0,.15-.2c-.05-.17-.31-.09-.43-.07-.53.06-1.06.12-1.58.22a8,8,0,0,0-3,1.07c-.13.09,0,.3.13.22Z"/>
    <path class="cls-2" d="M92.66,82.12c-2.12.44-4.26.74-6.39,1.09a30.32,30.32,0,0,1-6.72.64c-.16,0-.16.24,0,.25a29.88,29.88,0,0,0,6.54-.6c2.21-.37,4.44-.68,6.63-1.14.16,0,.1-.27-.06-.24Z"/>
    <path class="cls-2" d="M90,81.26c-3.66.37-7.32.7-11,1-.16,0-.16.26,0,.25,3.67-.27,7.33-.6,11-1,.16,0,.16-.26,0-.25Z"/>
    <path class="cls-2" d="M79.51,83.87a46.05,46.05,0,0,1-.82-5.24,47.52,47.52,0,0,1,.1-4.92c.1-3.31-.14-6.64-.26-9.95,0-.16-.26-.16-.25,0,.13,3.39.38,6.8.26,10.19a40.4,40.4,0,0,0-.07,5c.16,1.67.48,3.31.8,5,0,.16.27.09.24-.07Z"/>
    <path class="cls-2" d="M76.38,84c-.33,0-.66.06-1,.11l.14.18a.22.22,0,0,1,.1-.13.14.14,0,0,0,0-.18.13.13,0,0,0-.17,0,.5.5,0,0,0-.2.23.13.13,0,0,0,.14.18c.31,0,.61-.08.92-.1a.12.12,0,0,0,.13-.12.13.13,0,0,0-.13-.13Z"/>
    <path class="cls-2" d="M76.54,84a35.27,35.27,0,0,0,.2-4.82c0-.16-.26-.16-.25,0a35.27,35.27,0,0,1-.2,4.82c0,.16.24.16.25,0Z"/>
    <path class="cls-2" d="M120.33,66.27A14.51,14.51,0,0,0,116.78,65a15.2,15.2,0,0,0-3.93-.06c-2.84.24-5.68.61-8.51.92-.16,0-.16.27,0,.25,2.68-.3,5.36-.62,8-.88a17.79,17.79,0,0,1,3.79-.06,13.29,13.29,0,0,1,4,1.28c.14.07.27-.15.13-.22Z"/>
    <path class="cls-2" d="M120.64,65.27a8.74,8.74,0,0,0-2.33-.72c-.16,0-.23.2-.07.24l.1,0c.16,0,.23-.21.07-.25l-.1,0-.07.24a8.19,8.19,0,0,1,2.27.7c.14.07.27-.15.13-.22Z"/>
    <path class="cls-2" d="M120.43,64.56a.22.22,0,0,0,.14,0,.13.13,0,0,0,0-.25c-.22,0-.43.06-.65.07a2.14,2.14,0,0,1-.62,0,1.32,1.32,0,0,0-.52.05,2.74,2.74,0,0,0-.28,0,.36.36,0,0,1-.2.06c-.16,0-.16.23,0,.25a.38.38,0,0,0,.21-.05l.27-.06.25-.05a.57.57,0,0,1,.26,0,1.83,1.83,0,0,0,.33,0h.3c.22,0,.43-.07.65-.07l0-.24h0c-.15,0-.22.21-.06.24Z"/>
    <path class="cls-2" d="M120.38,63.48a9.63,9.63,0,0,1-1.76.28,8.29,8.29,0,0,1-.86,0,4.2,4.2,0,0,0-.87,0c-.16,0-.09.27.06.25a4.62,4.62,0,0,1,.91,0,6.68,6.68,0,0,0,.89,0,9.88,9.88,0,0,0,1.7-.28.13.13,0,0,0-.07-.24Z"/>
    <path class="cls-2" d="M120.65,63.49l.15-3.58a20.47,20.47,0,0,1,.3-3.59c0-.16-.2-.23-.24-.07a19.69,19.69,0,0,0-.31,3.52l-.15,3.72c0,.16.24.16.25,0Z"/>
    <path class="cls-2" d="M120.83,56.11a11.8,11.8,0,0,1-2-.11,8.76,8.76,0,0,0-2,.19c-.16,0-.09.28.07.24a8.28,8.28,0,0,1,2-.17,11.88,11.88,0,0,0,2,.1c.16,0,.16-.27,0-.25Z"/>
    <path class="cls-2" d="M116.59,56.32q.15,3.76.14,7.53a.13.13,0,0,0,.25,0q0-3.76-.14-7.53c0-.16-.26-.16-.25,0Z"/>
    <path class="cls-2" d="M121.49,63.62a37.14,37.14,0,0,1,.17-5.48c0-.16-.23-.16-.25,0a37.14,37.14,0,0,0-.17,5.48c0,.16.26.16.25,0Z"/>
    <path class="cls-2" d="M124.11,59h.12a.13.13,0,0,0,.07-.23,5.91,5.91,0,0,0-1.43-.64,6.74,6.74,0,0,0-.75-.17l-.39-.05a.42.42,0,0,0-.31,0,.15.15,0,0,0,0,.13.16.16,0,0,0,.11.1.12.12,0,0,0,.14-.06h0c.08-.13-.13-.26-.22-.12h0l.15-.06h0l.09.08h0l0,.12h0l-.09,0a2.82,2.82,0,0,1,.71.09,4.74,4.74,0,0,1,.65.16,5.91,5.91,0,0,1,1.28.58l.06-.23h-.12c-.16,0-.16.24,0,.25Z"/>
    <path class="cls-2" d="M124.19,58.36l.3.1c.13,0,.22-.17.09-.23a9.75,9.75,0,0,0-2.72-.89c-.16,0-.23.21-.07.24a9.93,9.93,0,0,1,2.67.86l.1-.23-.31-.09c-.15,0-.22.19-.06.24Z"/>
    <path class="cls-2" d="M116,63.73c.29-2.46-.19-4.94,0-7.41,0-.16-.24-.16-.25,0-.18,2.47.3,5,0,7.41,0,.16.23.16.25,0Z"/>
    <path class="cls-2" d="M115.84,56.56l0,0a.13.13,0,0,0,0-.17.12.12,0,0,0-.1,0,.13.13,0,0,0-.07,0l0,0a.12.12,0,0,0,0,.1s0,.06.06.07a.11.11,0,0,0,.1,0,.18.18,0,0,0,.07,0Z"/>
    <path class="cls-2" d="M116,56.35a35.34,35.34,0,0,1,0-5.54c0-.16-.24-.16-.25,0a35.34,35.34,0,0,0,0,5.54c0,.16.26.16.25,0Z"/>
    <path class="cls-2" d="M115.64,50.73l-3.09.3a9.71,9.71,0,0,0-2.78.53c-.14.06-.08.3.07.24a10,10,0,0,1,2.82-.53l3-.29c.16,0,.16-.27,0-.25Z"/>
    <path class="cls-2" d="M115.75,63.69q-5.77.36-11.5,1.12c-.16,0-.16.27,0,.25q5.73-.77,11.5-1.12c.16,0,.16-.26,0-.25Z"/>
    <path class="cls-2" d="M103.09,64.93c-2.49.2-5,.34-7.47.44a.13.13,0,0,0,0,.25c2.49-.1,5-.24,7.47-.44.16,0,.16-.26,0-.25Z"/>
    <path class="cls-2" d="M95.78,65.55c-.42-3.39-.52-6.82-.71-10.23l-.59-10.41c0-.16-.26-.16-.25,0l.59,10.41c.19,3.41.29,6.84.71,10.23,0,.16.27.16.25,0Z"/>
    <path class="cls-2" d="M95.17,65.44a.7.7,0,0,0-.45,0l-.53.1-1.08.21c-.16,0-.09.27.07.24l1-.19.47-.09a.71.71,0,0,1,.43,0c.15.07.27-.14.13-.21Z"/>
    <path class="cls-2" d="M95.25,65.53c-.37-3.45-.58-6.9-.75-10.36a16.38,16.38,0,0,0-.3-2.2,19,19,0,0,1-.2-2.72L93.79,45c0-.16-.26-.16-.25,0l.2,5.13c0,.81,0,1.63.14,2.43a25.22,25.22,0,0,1,.37,2.61c.17,3.46.38,6.91.75,10.36,0,.15.27.16.25,0Z"/>
    <path class="cls-2" d="M92.75,82.13c-.31-5.46.55-10.91.17-16.37,0-.16-.26-.16-.25,0,.38,5.46-.48,10.91-.17,16.37,0,.16.26.17.25,0Z"/>
    <path class="cls-2" d="M90.22,81.48q.25-14.08.41-28.16l.09-7.91a.13.13,0,0,0-.25,0q-.15,14-.36,28.08c0,2.66-.09,5.32-.14,8a.13.13,0,0,0,.25,0Z"/>
    <path class="cls-2" d="M93.65,44.83a12.39,12.39,0,0,0-2.33.42c-.8.09-1.6.13-2.39.21s-1.53.18-2.3.29c-.44.06-.87.12-1.31.2l-.56.09c-.13,0-.64.19-.74.12l0,.17,0,0-.17.05h0c.15.06.28-.16.13-.22h0a.13.13,0,0,0-.17,0l0,0a.13.13,0,0,0,0,.17c.16.1.39,0,.56,0l1.31-.22c1-.15,1.92-.28,2.89-.39s1.72-.15,2.58-.24a15.52,15.52,0,0,1,2.42-.42c.16,0,.16-.24,0-.25Z"/>
    <path class="cls-2" d="M98,43.56,84.68,44.81c-.16,0-.16.27,0,.25L98,43.81c.16,0,.16-.27,0-.25Z"/>
    <path class="cls-2" d="M100.44,44.49a28.46,28.46,0,0,0-6,.22c-.16,0-.09.27.07.25a27.81,27.81,0,0,1,6-.22c.16,0,.16-.24,0-.25Z"/>
    <path class="cls-2" d="M97.55,34.79a11,11,0,0,1,.29,2.28c.06.74.11,1.48.17,2.22a16.21,16.21,0,0,1-.05,4.4c0,.15.22.22.25.06a17.07,17.07,0,0,0,.05-4.46c-.06-.8-.12-1.6-.19-2.4a9.84,9.84,0,0,0-.28-2.16.12.12,0,0,0-.24.06Z"/>
    <path class="cls-2" d="M99.1,43.44a6.61,6.61,0,0,1-.16-2.13c0-.76,0-1.53-.07-2.29-.1-1.52-.24-3-.24-4.57a.13.13,0,0,0-.25,0c0,1.59.15,3.17.25,4.75,0,.76.07,1.52.06,2.29a6.24,6.24,0,0,0,.17,2c0,.15.29.08.24-.07Z"/>
    <path class="cls-2" d="M107.28,32.9a61.7,61.7,0,0,0-2.24,10c0,.15.23.15.25,0A60.62,60.62,0,0,1,107.52,33c0-.16-.19-.22-.24-.07Z"/>
    <path class="cls-2" d="M105.06,42.68a59.58,59.58,0,0,1-6.1.68c-.16,0-.16.26,0,.25a57.92,57.92,0,0,0,6.17-.69c.16,0,.09-.26-.07-.24Z"/>
    <path class="cls-2" d="M114.5,42.29c-2.89,0-5.79.46-8.66.75-.16,0-.16.27,0,.25,2.87-.29,5.77-.72,8.66-.75.16,0,.17-.26,0-.25Z"/>
    <path class="cls-2" d="M105.93,43.11c.57-1.6.55-3.31,1-5,.22-.88.56-1.7.71-2.6a12.36,12.36,0,0,1,.68-2.59c.06-.15-.18-.21-.24-.06a12.2,12.2,0,0,0-.68,2.59c-.15.89-.49,1.72-.71,2.59-.41,1.64-.39,3.36-1,5,0,.15.19.22.24.06Z"/>
    <path class="cls-2" d="M115.54,43.21a46.33,46.33,0,0,0-7.81.34c-2.61.34-5.22.73-7.85.87-.16,0-.17.26,0,.25,2.63-.14,5.24-.53,7.85-.87a46.33,46.33,0,0,1,7.81-.34.13.13,0,0,0,0-.25Z"/>
    <path class="cls-2" d="M123.23,41.67a20.68,20.68,0,0,1-3.92.39c-.64,0-1.29,0-1.93.07l-.88.07a2.83,2.83,0,0,1-1,.06c-.15,0-.22.19-.06.24a1.67,1.67,0,0,0,.77,0c.34,0,.68-.07,1-.09.69,0,1.38-.07,2.07-.08a20.53,20.53,0,0,0,4-.4.13.13,0,0,0-.07-.24Z"/>
    <path class="cls-2" d="M115.63,42.41a26,26,0,0,0-.58-4.65c0-.11-.22-.12-.24,0v.1c0,.15.21.22.24.06v-.09h-.24a25.27,25.27,0,0,1,.57,4.58c0,.16.26.16.25,0Z"/>
    <path class="cls-2" d="M114.63,42.37l-.39-4.84c0-.16-.26-.16-.25,0l.39,4.84c0,.16.26.16.25,0Z"/>
    <path class="cls-2" d="M122.51,43c-.08-.12-.18-.13-.32-.14l-.84,0c-.52,0-1,0-1.56.08-1.05.07-2.09.18-3.14.33-.15,0-.09.26.07.24,1-.13,1.9-.24,2.85-.31.44,0,.89-.06,1.33-.07l.67,0c.09,0,.68-.07.73,0s.3,0,.21-.13Z"/>
    <path class="cls-2" d="M122.45,43a71.07,71.07,0,0,0-1.12,11.46.13.13,0,0,0,.25,0,70.43,70.43,0,0,1,1.11-11.4c0-.15-.22-.22-.24-.06Z"/>
    <path class="cls-2" d="M125.24,50.93h0l-.15,0h0v-.17s-.07,0-.09,0h-.17l-.29,0-.6,0-.59,0a3.94,3.94,0,0,1-.6,0l.09,0,0,0,0,.12h0l-.09.09h0l-.14-.06h0c.07.14.29,0,.21-.13h0a.11.11,0,0,0-.14,0,.14.14,0,0,0-.11.1.13.13,0,0,0,0,.12c.09.07.17,0,.28,0l.34,0L124,51l.7,0,.34,0c.09,0,.2,0,.27-.07a.12.12,0,0,0,0-.17h0a.12.12,0,0,0-.15,0h0c-.13.09,0,.31.12.22Z"/>
    <path class="cls-2" d="M125.1,50a.16.16,0,0,0,.12,0,.13.13,0,0,0,0-.23.92.92,0,0,0-.52,0l-.29.06-.33.05-.33.06h-.3c-.22,0-.44.05-.66.07l.12.15s0,0,0,0,0-.29-.13-.21-.11.07-.12.15a.13.13,0,0,0,.12.16l.62-.07a3.79,3.79,0,0,0,.58,0l.57-.09c.1,0,.19-.05.29-.06h.24l0-.22h0c-.15,0-.21.19-.06.24Z"/>
    <path class="cls-2" d="M122.89,50.13q.39-3.78.84-7.54c0-.16-.23-.16-.25,0q-.45,3.77-.84,7.54c0,.16.23.16.25,0Z"/>
    <path class="cls-2" d="M125.08,55.24a7.38,7.38,0,0,0-1.71-.74,3.74,3.74,0,0,0-.45-.12.56.56,0,0,0-.36,0c-.25.13.06.44.19.22a.15.15,0,0,0,0-.13h0c-.09-.13-.31,0-.21.13h0v-.13h0l.07-.06.08,0,0,.09c-.07.06-.07.09,0,.09l.09,0,.13,0,.29.07.61.2a6.94,6.94,0,0,1,1.13.55c.14.08.27-.14.13-.22Z"/>
    <path class="cls-2" d="M122.44,54.42a10.85,10.85,0,0,1-.65,3.13c-.06.15.18.21.24.06a10.86,10.86,0,0,0,.66-3.19c0-.16-.24-.16-.25,0Z"/>
    <path class="cls-2" d="M125,54.36l-1.31-.31a5.88,5.88,0,0,1-1.22-.36c-.14-.07-.27.15-.13.22a6,6,0,0,0,1.23.37l1.36.32c.16,0,.22-.21.07-.24Z"/>
    <path class="cls-2" d="M122.66,53.79l.12-2.76-.19.1.12.07a.13.13,0,0,0,.12-.22l-.11-.06a.12.12,0,0,0-.19.11l-.12,2.76c0,.16.24.16.25,0Z"/>
    <path class="cls-2" d="M121.46,54.33a5.59,5.59,0,0,0-.16,1.22.13.13,0,0,0,.25,0,5.49,5.49,0,0,1,.15-1.15c0-.16-.2-.23-.24-.07Z"/>
    <path class="cls-2" d="M121.39,55.38a3.62,3.62,0,0,1-1.22-.09,10.09,10.09,0,0,0-1.09-.12,12.72,12.72,0,0,0-2.31.07c-.16,0-.16.26,0,.25a12,12,0,0,1,2.4-.06,9.81,9.81,0,0,1,1.2.14,3.34,3.34,0,0,0,1.09.06c.16,0,.09-.27-.07-.25Z"/>
    <path class="cls-2" d="M116.94,55.46c.06-2,0-4,0-6s-.53-4-.2-6c0-.16-.22-.22-.24-.07a26.91,26.91,0,0,0,.18,5.81q.16,3.12.06,6.24c0,.16.24.16.25,0Z"/>
    <path class="cls-2" d="M115.4,43.35c-.11,2.28.64,4.52.39,6.79,0,.16.24.16.25,0,.25-2.27-.5-4.51-.39-6.79,0-.16-.24-.16-.25,0Z"/>
    <path class="cls-2" d="M115.89,49.87a36,36,0,0,0-5.58.61,10.79,10.79,0,0,1-3,.2,10.1,10.1,0,0,0-2.69.11c-.16,0-.09.27.06.24a11.73,11.73,0,0,1,3-.08,9.71,9.71,0,0,0,2.52-.18,35.53,35.53,0,0,1,5.73-.65.13.13,0,0,0,0-.25Z"/>
    <path class="cls-2" d="M109.07,51.55a12,12,0,0,0-2.32,0c-.36,0-.72.07-1.08.13-.2,0-.65,0-.63.34s.26.16.25,0a4.82,4.82,0,0,1,.93-.17c.31,0,.63-.06.94-.07a12.2,12.2,0,0,1,1.91.06c.16,0,.16-.24,0-.25Z"/>
    <path class="cls-2" d="M109.7,51.78a35.35,35.35,0,0,0,.42,6c0,.16.26.1.24-.06a34.65,34.65,0,0,1-.41-5.93.13.13,0,0,0-.25,0Z"/>
    <path class="cls-2" d="M108.94,51.9c0,1.09.09,2.18.14,3.27a11.47,11.47,0,0,0,.41,3c.05.15.29.09.24-.07a12.29,12.29,0,0,1-.41-3.08c0-1-.08-2.1-.13-3.15a.13.13,0,0,0-.25,0Z"/>
    <path class="cls-2" d="M110.33,57.68a5,5,0,0,0-.81.38.13.13,0,0,0,0,.17.12.12,0,0,0,.17,0,5.12,5.12,0,0,1,.75-.35.13.13,0,0,0,.09-.15.14.14,0,0,0-.16-.09Z"/>
    <path class="cls-2" d="M104.51,65.12h0l-.1-.12v0l.08-.06h.08l0,0,.06.08a1.91,1.91,0,0,1,0-.48l0-.48-.06-1,0-.48a.82.82,0,0,0-.06-.38c-.12-.18-.41,0-.3.16s.3,0,.22-.12v.08l-.13,0v.06s0,.08,0,.11l0,.23,0,.48.06.94,0,.45a2.12,2.12,0,0,0,0,.44.17.17,0,0,0,.17.16.15.15,0,0,0,.13-.16.12.12,0,0,0-.09-.12h0c-.15,0-.22.19-.07.24Z"/>
    <path class="cls-2" d="M104.24,62.18c-1.54.11-3.08.2-4.61.34a.12.12,0,0,0-.12.16l0,.15c0,.16.27.09.24-.07l0-.15-.12.16c1.53-.14,3.07-.23,4.61-.34.16,0,.16-.26,0-.25Z"/>
    <path class="cls-2" d="M103.27,63.86l-.14-.72a.28.28,0,0,0-.06-.15.15.15,0,0,0-.24.18.16.16,0,0,0,.09.07.16.16,0,0,0,.13,0,.13.13,0,1,0-.18-.18h0l0,0H103l.06,0s0,.1,0,.15l-.06,0-.07,0h0s0,0,0,0l0,.1,0,.21.08.42a.13.13,0,0,0,.15.09.14.14,0,0,0,.09-.16Z"/>
    <path class="cls-2" d="M102.87,63l-3.35.26.12.09a1.79,1.79,0,0,1,0-.61c0-.16-.22-.22-.24-.06a2,2,0,0,0,0,.73c0,.05.07.1.12.1l3.35-.26c.16,0,.16-.26,0-.25Z"/>
    <path class="cls-2" d="M85.57,96.36c-2,5.35-4.33,10.54-6.6,15.76-.07.15.15.28.21.13,2.29-5.24,4.66-10.45,6.63-15.83,0-.15-.19-.21-.24-.06Z"/>
    <path class="cls-2" d="M79.06,112.1a31,31,0,0,0-4.89-2,23.47,23.47,0,0,1-4.92-2c-.13-.09-.26.13-.12.21a22,22,0,0,0,4.64,1.95,32.93,32.93,0,0,1,5.16,2.08c.14.08.27-.14.13-.22Z"/>
    <path class="cls-2" d="M69.1,108.28q1.89-4,3.38-8.17A32.31,32.31,0,0,1,74.1,96a15.12,15.12,0,0,0,1.51-3.65c0-.15-.21-.22-.24-.06a16,16,0,0,1-1.59,3.78,31.17,31.17,0,0,0-1.47,3.76,86.18,86.18,0,0,1-3.42,8.33c-.07.14.14.27.21.13Z"/>
    <path class="cls-2" d="M89.84,98.31a17.82,17.82,0,0,1,.3,4.94,20.46,20.46,0,0,1-.45,2.46,8.32,8.32,0,0,1-.78,2.23c-.08.14.13.27.21.13a8.45,8.45,0,0,0,.81-2.29,23.69,23.69,0,0,0,.44-2.35,18,18,0,0,0-.29-5.18c0-.16-.27-.1-.24.06Z"/>
    <path class="cls-2" d="M95.17,107.89c-1.59-.24-3.18-.45-4.77-.62-.16,0-.16.23,0,.25,1.57.17,3.14.37,4.7.61.16,0,.23-.21.07-.24Z"/>
    <path class="cls-2" d="M95.31,106.82c-1.59-.21-3.18-.43-4.77-.67-.16,0-.22.22-.07.24,1.61.25,3.22.47,4.84.68.16,0,.15-.23,0-.25Z"/>
    <path class="cls-2" d="M90.59,106.46A20.05,20.05,0,0,0,91,98.59c0-.16-.26-.16-.25,0a19.89,19.89,0,0,1-.43,7.8c0,.16.19.22.24.07Z"/>
    <path class="cls-2" d="M90.2,107.29a.64.64,0,0,1-.16.4l-.2.31c-.14.23-.27.46-.39.7-.25.46-.47.94-.68,1.42-.06.15.18.21.24.07a16.16,16.16,0,0,1,.73-1.51c.13-.23.26-.46.4-.69s.34-.44.31-.7-.27-.16-.25,0Z"/>
    <path class="cls-2" d="M94.52,110.69c-.92-.17-1.84-.33-2.77-.46q-.66-.11-1.32-.18l-.64-.08-.32,0c-.07,0-.36,0-.41-.05l0,.15,0,0-.14,0h0c.07.15.29,0,.21-.12v0a.14.14,0,0,0-.15-.06.18.18,0,0,0-.11.08.15.15,0,0,0,0,.16c.09.1.25.08.38.1l.75.08c.5.06,1,.13,1.51.21,1,.14,2,.3,2.93.48.16,0,.22-.21.07-.24Z"/>
    <path class="cls-2" d="M94.37,111.49q-3-.48-5.94-.72c-.16,0-.16.24,0,.25,2,.16,3.92.39,5.87.71.16,0,.22-.22.07-.24Z"/>
    <path class="cls-2" d="M90.76,115.85c-1.58-.15-3.16-.36-4.73-.62l0,.23.12-.06c.15-.06,0-.28-.12-.21l-.12,0a.12.12,0,0,0,0,.23c1.59.27,3.19.48,4.79.63.16,0,.16-.24,0-.25Z"/>
    <path class="cls-2" d="M89.71,116.63a8,8,0,0,1-1.93-.38,5.26,5.26,0,0,0-.88-.17,6.78,6.78,0,0,1-1-.11.13.13,0,0,0-.07.24,6.27,6.27,0,0,0,1,.12,4.79,4.79,0,0,1,1,.18,7.85,7.85,0,0,0,1.93.37c.16,0,.16-.24,0-.25Z"/>
    <path class="cls-2" d="M85.72,116a3.8,3.8,0,0,0-.68,1.4c-.07.25-.13.51-.18.77l-.09.44c0,.1-.09.25,0,.35a.13.13,0,0,0,.15.06.16.16,0,0,0,.1-.11.13.13,0,0,0-.06-.14h0c-.14-.07-.27.15-.12.21h0l0-.14h0l.09-.09h0l.14.06s0-.15.05-.17l0-.21c0-.11,0-.23.07-.34s.1-.45.17-.68a3.51,3.51,0,0,1,.61-1.26c.1-.12-.08-.3-.18-.18Z"/>
    <path class="cls-2" d="M84.51,116.2a3.83,3.83,0,0,0-.52,1.58c0,.27-.06.55-.08.83l0,.44c0,.13,0,.27.05.37a.14.14,0,0,0,.15,0,.14.14,0,0,0,.08-.13.12.12,0,0,0-.09-.12h0c-.16-.05-.22.19-.07.24h0l-.09-.12h0l.06-.1h0l.16,0,0,0,0,.09a5.37,5.37,0,0,1,0-.8,6.51,6.51,0,0,1,.07-.76,3.44,3.44,0,0,1,.49-1.42c.09-.13-.13-.26-.22-.13Z"/>
    <path class="cls-2" d="M84.57,116.09c-5-1.81-10.17-3.5-15.07-5.69-.15-.07-.28.15-.13.21,4.92,2.2,10.06,3.9,15.13,5.72.15,0,.22-.19.07-.24Z"/>
    <path class="cls-2" d="M77.61,115.59a4.29,4.29,0,0,0-.43.89c0,.07-.05.15-.08.23a.46.46,0,0,0,0,.23.15.15,0,0,0,.2.11.14.14,0,0,0,.08-.21.12.12,0,0,0-.17,0c-.05,0-.09.12-.05.17h0l0-.06h0l0-.07h0l.06,0h0l.06,0h0l0,.05v0l0,0a.31.31,0,0,1,0-.08,1,1,0,0,1,.05-.16,2.49,2.49,0,0,1,.11-.29,4.25,4.25,0,0,1,.31-.6c.09-.14-.13-.26-.21-.12Z"/>
    <path class="cls-2" d="M77.68,115.28l-5.85-2.43c-.15-.06-.21.18-.07.24l5.85,2.43c.15.06.22-.18.07-.24Z"/>
    <path class="cls-2" d="M88.86,108.24l.15,0a.12.12,0,0,0,0-.23,37.57,37.57,0,0,0-3.73-1.48.13.13,0,0,0-.14.19l.1.14c.09.13.31,0,.22-.12l-.1-.15-.15.18a37.54,37.54,0,0,1,3.68,1.46l0-.23-.16,0c-.15,0-.08.29.07.24Z"/>
    <path class="cls-2" d="M88.8,108.5a6.65,6.65,0,0,0-1.71-.79l-2-.73.09.15s.13-.24.08-.28l0-.12v0a.13.13,0,0,0,.24.07v0a.13.13,0,0,0,0-.12c-.25-.2-.45.19-.5.39a.13.13,0,0,0,.09.16l1.91.71a6.45,6.45,0,0,1,1.73.79c.12.1.25-.12.12-.22Z"/>
    <path class="cls-2" d="M88.5,108.51a26.23,26.23,0,0,1-1.75,3.42l.17-.05a39.83,39.83,0,0,0-4.74-1.8c-.16,0-.22.2-.07.24a40.6,40.6,0,0,1,4.68,1.78.14.14,0,0,0,.18,0,27.54,27.54,0,0,0,1.75-3.42c.06-.15-.15-.27-.22-.13Z"/>
    <path class="cls-2" d="M86.64,112.66h0l-.16,0h0l-.06-.1v0l.09-.12s0,0,0,0l-.15-.08-.26-.14-.52-.22-1.16-.46-2.47-1,.08.18.31-.55c.08-.14-.14-.27-.22-.13l-.31.55a.13.13,0,0,0,.08.19l2.55,1c.43.16.85.32,1.27.5l.53.25c.12.07.24.18.39.15a.13.13,0,0,0,.09-.12.18.18,0,0,0-.08-.15.14.14,0,0,0-.15,0h0c-.12.11.06.29.17.18Z"/>
    <path class="cls-2" d="M86.35,112.55c-.56.89-1.08,1.8-1.57,2.73-.07.11,0,.22.17.17l0,0c.14-.06,0-.28-.13-.21l-.05,0,.17.17c.49-.92,1-1.83,1.58-2.72.09-.14-.13-.26-.22-.13Z"/>
    <path class="cls-2" d="M88.36,110.8a26,26,0,0,0-2.44,4.38c-.07.15.15.28.21.13a25.5,25.5,0,0,1,2.45-4.39c.09-.13-.12-.25-.22-.12Z"/>
    <path class="cls-2" d="M84.89,115.17c-2.84-.93-5.64-1.93-8.42-3-1.29-.51-2.57-1-3.89-1.45a17.65,17.65,0,0,1-4-1.46c-.14-.08-.27.14-.13.22a15.79,15.79,0,0,0,3.66,1.36c1.39.4,2.73,1,4.08,1.48q4.27,1.68,8.64,3.1c.15,0,.22-.19.07-.24Z"/>
    <path class="cls-2" d="M73.75,91.4c-1.61,5.62-4.07,10.94-6.19,16.37-.06.15.18.22.24.07,2.12-5.44,4.58-10.75,6.19-16.37,0-.15-.2-.22-.24-.07Z"/>
    <path class="cls-2" d="M74.72,92c-2.2,5.66-4.37,11.33-6.66,17-.06.15.18.21.24.06C70.59,103.37,72.76,97.7,75,92c0-.15-.19-.21-.25-.07Z"/>
    <path class="cls-3" d="M87.59,41.53c6-6.4,16.39-11.2,26.75-7.62a12.38,12.38,0,0,1,4.49,1.91,9.9,9.9,0,0,1,2.11,2.07c5.81,6.57,4.76,16,3.21,22.93-2.14,9.51-9,15.45-16.83,20.81-.24.24-.51.49-.86.78a32.9,32.9,0,0,0-3.08,2.42,15.4,15.4,0,0,0-2.45,3.25c-3,4.94-2,6.16-3.45,6.88-2.5,1.28-5.35-2.5-14.63-5.48-1.33-.43-2.59-.77-3.71-1.09A4.57,4.57,0,0,1,77.7,88c-1.76-.55-3-1.08-3.16-1.91-.14-.61.33-1,.87-1.69a.29.29,0,0,1,0-.15l1.17-5.08c-.53-2.48,0-5.76,1.26-12.67a87.09,87.09,0,0,1,1.8-8.9A30.49,30.49,0,0,1,87.59,41.53Z"/>
    <path class="cls-3" d="M95,100.7a47.55,47.55,0,0,0-4.47-2.37c-2-.92-3.53-1.49-5.19-2.09-3.87-1.4-3.7-1.06-5.6-1.86-4.38-1.82-5.32-3.61-6.75-3.23-1,.27-.82,1.26-2.43,5.13-1.07,2.55-1.28,2.41-2,4.44-1.07,2.89-1.61,4.34-1.29,6,.51,2.66,2.52,4.63,4,6.07a37.13,37.13,0,0,0,5.52,3.91c3.93,2.53,4.88,2.75,5.61,2.8,1.21.1,2.25-.34,4.33-1.22a15.22,15.22,0,0,0,4.53-2.51,10,10,0,0,0,3.26-4.64c.29-.9,0-.62.49-2.76.58-2.7,1-3.38.89-4.87A7.74,7.74,0,0,0,95,100.7Z"/>
    <path class="cls-2" d="M104.47,51a3.13,3.13,0,0,0,.28,1.09.12.12,0,0,0,.14.06l.69-.16a.12.12,0,0,0,.09-.15.13.13,0,0,0-.15-.09l-.7.16L105,52a3,3,0,0,1-.24-1,.12.12,0,0,0-.12-.13.13.13,0,0,0-.13.13Z"/>
    <path class="cls-2" d="M103.14,64c.18,0,.19-.23.06-.32a.2.2,0,0,0-.22,0,.42.42,0,0,0-.08.21c0,.18,0,.36,0,.53V65a.13.13,0,0,0,.25,0V64a.43.43,0,0,0,0,0h0s-.06,0-.11,0,0-.06,0-.08l0-.05h0c-.17,0-.17.26,0,.25Z"/>
    <path class="cls-2" d="M126.08,109.79l1.2,2.18c.07.14.29,0,.21-.13l-1.19-2.18c-.08-.14-.29,0-.22.13Z"/>
  </g>
</svg>
