<svg id="original" xmlns="http://www.w3.org/2000/svg" width="250" height="250" viewBox="0 0 250 250">
  <defs>
    <style>
      .cls-1 {
        fill: #020202;
      }

      .cls-2 {
        fill: none;
        stroke: #1d1d1b;
        stroke-miterlimit: 10;
        stroke-width: 3px;
      }
    </style>
  </defs>
  <g>
    <path class="cls-1" d="M139,158.4c-2.55,1.3-5.07,2.68-7.54,4.13-.14.09,0,.3.12.22,2.48-1.45,5-2.83,7.55-4.14.14-.07,0-.29-.13-.21Z"/>
    <path class="cls-1" d="M130.26,156.85a7.9,7.9,0,0,1,.36,1.51c0,.47,0,.94.07,1.41a17.89,17.89,0,0,0,.68,2.78.13.13,0,0,0,.24-.07,14.16,14.16,0,0,1-.68-2.93,9.58,9.58,0,0,0-.43-2.76c-.05-.15-.29-.09-.24.06Z"/>
    <path class="cls-1" d="M130.5,157.05c1.14-.48,2.27-1,3.37-1.59.54-.29,1.07-.58,1.59-.9.28-.16.56-.33.83-.51l.41-.26s.58-.36.3-.45-.22.19-.07.24.32,0,.25-.21c0,0,0-.08-.09-.08s-.37.18-.52.28l-.82.53c-.55.34-1.11.66-1.68,1-1.19.64-2.4,1.22-3.64,1.74-.15.06-.08.3.07.24Z"/>
    <path class="cls-1" d="M137,153.37a5.28,5.28,0,0,1,.51,1.2l.45,1.33.9,2.66c.06.15.3.08.24-.07l-.93-2.76c-.16-.45-.31-.91-.47-1.37a5,5,0,0,0-.48-1.12c-.09-.13-.31,0-.22.13Z"/>
    <path class="cls-1" d="M130.7,146.78c0,.05,0,.05,0,0a.33.33,0,0,1,.1,0H131l.43,0a7.28,7.28,0,0,0,.77-.13,7.88,7.88,0,0,0,1.55-.53c.14-.06,0-.28-.13-.21a6.92,6.92,0,0,1-1.83.56,4.91,4.91,0,0,1-.94.09c-.18,0-.49.05-.42.31s.28.09.24-.07Z"/>
    <path class="cls-1" d="M133.62,146.09c.48,1,.91,2.07,1.32,3.13.19.5.38,1,.58,1.51l.3.8.12.31c0,.06.14.27.11.34l.15-.06,0,0,0,.15,0,0c.12-.1-.05-.28-.18-.18l0,0a.12.12,0,0,0,0,.15.15.15,0,0,0,.13.1.12.12,0,0,0,.14-.06c.08-.19,0-.34-.09-.53l-.29-.76c-.22-.59-.45-1.17-.67-1.75-.43-1.11-.88-2.21-1.39-3.29-.06-.15-.28,0-.21.12Z"/>
    <path class="cls-1" d="M136.17,152.06c-2.19,1-3.89,2.79-6.11,3.74-.15.06,0,.27.12.21,2.22-.95,3.93-2.74,6.11-3.73.15-.07,0-.28-.12-.22Z"/>
    <path class="cls-1" d="M130.47,146.87a36.18,36.18,0,0,1-.28,4.42,16.35,16.35,0,0,0-.25,4.25c0,.16.27.16.25,0a18.52,18.52,0,0,1,.29-4.52,38.34,38.34,0,0,0,.24-4.15c0-.16-.24-.16-.25,0Z"/>
    <path class="cls-1" d="M129.88,155.36a1.13,1.13,0,0,0,0,.26.77.77,0,0,0,.07.26s.05.05.08.06a.09.09,0,0,0,.09,0,.12.12,0,0,0,.06-.08.14.14,0,0,0,0-.09h0v0a.06.06,0,0,1,0,0,.36.36,0,0,1,0-.1v0a.61.61,0,0,1,0-.19v0a.12.12,0,0,0,0-.1s-.05-.05-.08-.05a.12.12,0,0,0-.15.08Z"/>
    <path class="cls-1" d="M123,148h.06v0l-.09.12c1.16-.42,2.33-.82,3.51-1.19a.13.13,0,0,0-.07-.24c-1.18.37-2.35.77-3.51,1.19a.13.13,0,0,0-.09.12.21.21,0,0,0,.26.21c.16,0,.09-.27-.07-.24Z"/>
    <path class="cls-1" d="M126.55,150.34q-2.28,1.92-4.66,3.71c-.13.1,0,.31.13.22q2.4-1.82,4.7-3.75c.13-.11,0-.28-.17-.18Z"/>
    <path class="cls-1" d="M126.69,152,121,156.35c-.13.09,0,.31.13.21l5.68-4.35c.13-.1,0-.31-.12-.22Z"/>
    <path class="cls-1" d="M126.92,145.38c-1.34.28-2.53,1-3.87,1.26-.16,0-.09.27.06.24,1.35-.23,2.54-1,3.87-1.26.16,0,.09-.27-.06-.24Z"/>
    <path class="cls-1" d="M124.49,138.84a3.15,3.15,0,0,1,.89,1.47c.22.55.44,1.11.65,1.67.42,1.15.81,2.3,1.17,3.47l.09-.16a2.21,2.21,0,0,1-.76.17c-.16,0-.16.26,0,.25a2.5,2.5,0,0,0,.82-.17.13.13,0,0,0,.09-.16c-.39-1.29-.83-2.57-1.31-3.84-.23-.59-.46-1.19-.71-1.78a2.47,2.47,0,0,0-.8-1.13c-.13-.09-.26.12-.13.21Z"/>
    <path class="cls-1" d="M124.2,138.25a5.54,5.54,0,0,1,.58.85.12.12,0,0,0,.17,0,.13.13,0,0,0,0-.17,5,5,0,0,0-.62-.9.12.12,0,0,0-.17,0,.13.13,0,0,0,0,.18Z"/>
    <path class="cls-1" d="M125.6,132.36a13.84,13.84,0,0,1,1.42,3.22c.38,1.06.76,2.12,1.13,3.18q1.15,3.31,2.19,6.65c0,.16.29.09.24-.06-.72-2.31-1.47-4.6-2.27-6.88-.4-1.14-.8-2.28-1.22-3.41a12,12,0,0,0-1.27-2.83c-.09-.13-.31,0-.22.13Z"/>
    <path class="cls-1" d="M130.37,145.56c2.08.47,4-.54,5.83-1.49l6.58-3.48c.15-.08,0-.29-.12-.22l-5.95,3.15c-1.91,1-4,2.31-6.28,1.79-.15,0-.22.21-.06.25Z"/>
    <path class="cls-1" d="M142.91,141.48c-2.72,1.46-5.41,3-8.2,4.29-.15.06,0,.28.12.21,2.8-1.29,5.49-2.82,8.21-4.28.14-.08,0-.29-.13-.22Z"/>
    <path class="cls-1" d="M134.7,145.85a14.12,14.12,0,0,0,1.31,2.41c.5,1,1,2.09,1.44,3.14l2.93,6.4c.07.15.28,0,.22-.13l-2.84-6.18c-.45-1-.9-2-1.36-3a12.49,12.49,0,0,0-.68-1.31,5.23,5.23,0,0,1-.78-1.43.13.13,0,0,0-.24.07Z"/>
    <path class="cls-1" d="M140.55,158a74,74,0,0,0,7.94-4.83c.13-.09,0-.31-.13-.22a73.77,73.77,0,0,1-7.94,4.84c-.14.07,0,.29.13.21Z"/>
    <path class="cls-1" d="M143,141.69q2.84,5.59,5.19,11.4c.06.15.3.09.24-.06-1.58-3.9-3.31-7.72-5.22-11.46-.07-.15-.28,0-.21.12Z"/>
    <path class="cls-1" d="M126.5,146.85a17.41,17.41,0,0,0,.23,3.46c0,.16.26.09.24-.06a16.85,16.85,0,0,1-.22-3.4c0-.16-.24-.16-.25,0Z"/>
    <path class="cls-1" d="M126.74,152.31a73.27,73.27,0,0,1,.81,9.36.13.13,0,0,0,.25,0,74.38,74.38,0,0,0-.82-9.43c0-.16-.26-.09-.24.07Z"/>
    <path class="cls-1" d="M127.66,161.44A30.24,30.24,0,0,0,121.8,166c-.11.11.07.29.18.17a30,30,0,0,1,5.8-4.48.12.12,0,1,0-.12-.21Z"/>
    <path class="cls-1" d="M116.36,163.8a58.19,58.19,0,0,0,5.53,2.32c.14.06.21-.18.06-.24-1.82-.73-3.72-1.38-5.46-2.29-.14-.08-.27.14-.13.21Z"/>
    <path class="cls-1" d="M115,165.6a40.28,40.28,0,0,1,8.5,3.54c.14.08.27-.14.12-.21a39.41,39.41,0,0,0-8.56-3.57.12.12,0,0,0-.06.24Z"/>
    <path class="cls-1" d="M123.56,169a22.6,22.6,0,0,1-4.63,2.27c-.15.06-.08.3.07.24a22.18,22.18,0,0,0,4.69-2.3c.13-.09,0-.31-.13-.21Z"/>
    <path class="cls-1" d="M124.63,169.46a7.84,7.84,0,0,1-2,1.37l-2.36,1.28c-.14.08,0,.3.12.22l2.44-1.32a8.18,8.18,0,0,0,2-1.37c.11-.12-.07-.29-.18-.18Z"/>
    <path class="cls-1" d="M124.7,169.77a43.49,43.49,0,0,1,5.57,2.4c.14.08.27-.14.13-.21a44,44,0,0,0-5.64-2.43c-.15-.05-.21.19-.06.24Z"/>
    <path class="cls-1" d="M130.23,172.08c1.65,4.09,3.48,8.12,5.49,12,.07.14.29,0,.22-.13q-3-5.87-5.47-12c-.06-.15-.3-.08-.24.07Z"/>
    <path class="cls-1" d="M135.73,183.9l-.45,1a.14.14,0,0,0,.05.17.13.13,0,0,0,.17,0l.45-1a.14.14,0,0,0,0-.17.13.13,0,0,0-.17,0Z"/>
    <path class="cls-1" d="M127.07,172.36c-.38.46-.78.91-1.2,1.34-.2.21-.41.42-.62.62l-.33.32-.16.15a1.93,1.93,0,0,0-.15.16l.07.06v0l0,.1-.06,0-.14-.06h0c.09.13.31,0,.21-.12h0a.12.12,0,0,0-.14-.06.16.16,0,0,0-.07.26c.13.12.28,0,.37-.13.28-.26.56-.52.83-.79a22.76,22.76,0,0,0,1.56-1.7c.1-.12-.07-.3-.18-.18Z"/>
    <path class="cls-1" d="M127.05,172.71c1.16-.32,2.21,1.3,2.83,2.09a22.14,22.14,0,0,1,4.24,9.08c0,.16.28.09.24-.07a22.48,22.48,0,0,0-2.73-6.92,21.67,21.67,0,0,0-2.11-2.92c-.62-.73-1.45-1.8-2.54-1.5-.15.05-.09.29.07.24Z"/>
    <path class="cls-1" d="M127.74,162.68c-.95.52-1.93,1-2.84,1.61a5.77,5.77,0,0,0-2,2,.13.13,0,0,0,.22.12,5.75,5.75,0,0,1,2-2c.87-.56,1.81-1,2.72-1.53.14-.07,0-.29-.13-.21Z"/>
    <path class="cls-1" d="M122.83,166.7c2.11.87,4.26,1.65,6.44,2.32.15,0,.22-.19.06-.24-2.18-.68-4.32-1.45-6.44-2.32-.14-.06-.21.18-.06.24Z"/>
    <path class="cls-1" d="M129.6,169a9.4,9.4,0,0,0-.49-3.41c-.17-.55-.37-1.1-.59-1.63l-.32-.78c-.08-.17-.12-.43-.29-.54a.13.13,0,0,0-.12,0l0,0a.12.12,0,0,0-.06.14v0c0,.15.29.09.24-.07v0l-.05.14,0,0h-.12c.06,0,.11.27.14.34s.12.26.17.39.21.5.31.76q.28.72.51,1.47a9.26,9.26,0,0,1,.43,3.18.13.13,0,0,0,.25,0Z"/>
    <path class="cls-1" d="M131.51,164c.92,2.87,2,5.69,3.08,8.53a36.11,36.11,0,0,0,3.35,7.35c.08.13.3,0,.21-.13a37,37,0,0,1-3.4-7.53c-1-2.75-2.1-5.49-3-8.29-.05-.15-.29-.09-.24.07Z"/>
    <path class="cls-1" d="M134.17,166.5q2.87,6.51,5.91,12.94c.07.15.28,0,.21-.12q-3-6.44-5.91-12.95c-.06-.14-.28,0-.21.13Z"/>
    <path class="cls-1" d="M138.26,180.12c2-.67,4-1.34,5.88-2.19a43,43,0,0,0,5.39-3.1c3.84-2.42,8-4.37,12-6.45.14-.07,0-.29-.13-.21-4,2-8,4-11.8,6.32a48.1,48.1,0,0,1-5.38,3.14c-2,.88-4,1.56-6,2.24-.16,0-.09.3.06.25Z"/>
    <path class="cls-1" d="M139.79,183.57c.17.36.33.73.48,1.1a.12.12,0,0,0,.22,0,.62.62,0,0,0,.13-.34.12.12,0,0,0-.12-.13.13.13,0,0,0-.13.13.47.47,0,0,1-.09.22l.23,0c-.15-.4-.32-.78-.51-1.17,0-.06-.11-.07-.17,0a.13.13,0,0,0,0,.17Z"/>
    <path class="cls-1" d="M140,183.51a45.68,45.68,0,0,1,5.29-3.28c.14-.08,0-.29-.13-.22a44.31,44.31,0,0,0-5.28,3.29c-.13.09,0,.31.12.21Z"/>
    <path class="cls-1" d="M132,122.62l-3.56,1.84c-.14.07,0,.28.13.21l3.55-1.84c.15-.07,0-.29-.12-.21Z"/>
    <path class="cls-1" d="M131.81,123.08a17.26,17.26,0,0,1,3.89,3.54,21.76,21.76,0,0,1,2.32,4.13c1.48,3.28,2.86,6.62,4.29,9.92.06.15.27,0,.21-.12-1.48-3.44-2.89-6.91-4.46-10.31a20,20,0,0,0-2.35-4,18.27,18.27,0,0,0-3.77-3.36c-.13-.1-.26.12-.13.22Z"/>
    <path class="cls-1" d="M132.35,118.48h0l.12,0,0,0v.09h0l-.07.06c-.06,0-.08,0,0,0l0,.06.07.12.15.23c.09.14.18.29.26.44.17.31.33.63.47,1,.07.15.28,0,.22-.12a12.49,12.49,0,0,0-.68-1.31c-.06-.1-.13-.2-.19-.31a1.42,1.42,0,0,0-.2-.28.16.16,0,0,0-.26.07.14.14,0,0,0,.18.17c.16,0,.09-.29-.06-.24Z"/>
    <path class="cls-1" d="M133.35,120.22a16.67,16.67,0,0,0-3.93,2.41c-.13.1.05.28.17.18a16.65,16.65,0,0,1,3.88-2.38c.15-.06,0-.28-.12-.21Z"/>
    <path class="cls-1" d="M132.74,122.09A10.62,10.62,0,0,1,135,124.2l.18-.18-.09-.1a.13.13,0,0,0-.18.18l.09.1c.12.12.28-.06.18-.18a11.4,11.4,0,0,0-2.29-2.15c-.13-.09-.26.13-.12.22Z"/>
    <path class="cls-1" d="M132.76,122a5.24,5.24,0,0,1,1.15-.47l-.14-.18-.07.11c-.09.14.13.26.21.13l.08-.12a.12.12,0,0,0-.14-.18,5.37,5.37,0,0,0-1.22.49c-.14.08,0,.3.13.22Z"/>
    <path class="cls-1" d="M134,121.42v0l-.23.1c.13.23.2.49.32.73s.14.26.21.38a3.7,3.7,0,0,0,.21.33.85.85,0,0,1,.19.3c0,.13.08.25.13.37a1.47,1.47,0,0,1,.08.3.58.58,0,0,0,.09.26c.09.13.31,0,.21-.12a.72.72,0,0,1-.07-.25,1.19,1.19,0,0,0-.1-.32,1.65,1.65,0,0,0-.3-.66,1.36,1.36,0,0,1-.21-.32,2.71,2.71,0,0,1-.21-.37c-.13-.25-.2-.52-.33-.76a.13.13,0,0,0-.23.1.3.3,0,0,0,.07.15c.11.12.29-.06.18-.18Z"/>
    <path class="cls-1" d="M133.48,118l-.14-.23a.13.13,0,0,0-.23.1,6.89,6.89,0,0,0,.94,2c.09.13.31,0,.22-.12a6.94,6.94,0,0,1-.92-2l-.23.1.15.22c.08.14.3,0,.21-.12Z"/>
    <path class="cls-1" d="M134.78,121.06a11.9,11.9,0,0,0,.77,2.09,9.33,9.33,0,0,0,.52,1,5.87,5.87,0,0,1,.56,1c.05.15.29.09.24-.06a5,5,0,0,0-.49-.95,10,10,0,0,1-.55-1A12.06,12.06,0,0,1,135,121c0-.16-.28-.09-.24.07Z"/>
    <path class="cls-1" d="M135,121a.13.13,0,0,0,0-.25.13.13,0,1,0,0,.25Z"/>
    <path class="cls-1" d="M135,120.94l4.19-2.61a24.15,24.15,0,0,0,3.63-2.51.12.12,0,0,0-.17-.18,24.25,24.25,0,0,1-3.72,2.55l-4.05,2.54c-.14.08,0,.3.12.21Z"/>
    <path class="cls-1" d="M142.77,115.9a14.74,14.74,0,0,0,1.37,2.15,10.36,10.36,0,0,1,1.13,2.46c0,.15.29.08.24-.07a10.84,10.84,0,0,0-1.07-2.38,16.81,16.81,0,0,1-1.42-2.23c-.06-.14-.31-.08-.25.07Z"/>
    <path class="cls-1" d="M145.36,120.44q-4.32,2.22-8.54,4.63c-.14.08,0,.29.13.21q4.22-2.4,8.54-4.63c.14-.07,0-.28-.13-.21Z"/>
    <path class="cls-1" d="M134.33,120.07a45.22,45.22,0,0,0,6-3.67c.13-.09,0-.31-.12-.21a47.66,47.66,0,0,1-6,3.67c-.15.07,0,.29.12.21Z"/>
    <path class="cls-1" d="M137.93,113.83l-.09-.14-.17.17a7.33,7.33,0,0,1,1.47,1.06,6.35,6.35,0,0,1,.62.65l.28.35a2.65,2.65,0,0,1,.26.39v-.07l.09-.09h0l.12,0v0l0,.16v0c.08-.14-.14-.26-.21-.12h0a.14.14,0,0,0,0,.15.14.14,0,0,0,.15,0,.11.11,0,0,0,.09-.08c0-.15-.1-.28-.18-.39a4,4,0,0,0-.29-.39,7.73,7.73,0,0,0-.67-.73,7.84,7.84,0,0,0-1.58-1.16.12.12,0,0,0-.17.17l.08.15c.08.13.3,0,.22-.13Z"/>
    <path class="cls-1" d="M138.58,113.25l-.3-.27-.15.19a12.21,12.21,0,0,1,2.67,2.45c.11.13.28-.05.18-.17a12.44,12.44,0,0,0-2.73-2.49c-.11-.08-.25.1-.15.19l.31.28c.11.11.29-.07.17-.18Z"/>
    <path class="cls-1" d="M137.72,126.34c2.57-1.91,5.66-2.93,8.32-4.71.13-.09,0-.31-.13-.22-2.65,1.78-5.74,2.8-8.32,4.71-.13.1,0,.32.13.22Z"/>
    <path class="cls-1" d="M146,121.82l0,0a.14.14,0,0,0,0-.09s0-.07-.06-.08a.14.14,0,0,0-.09,0,.16.16,0,0,0-.08.06l0,0a.12.12,0,0,0,0,.1.11.11,0,0,0,.06.07.13.13,0,0,0,.17,0Z"/>
    <path class="cls-1" d="M146,121.65a46.48,46.48,0,0,0,6.24-3.49c.14-.08,0-.3-.12-.21a46.53,46.53,0,0,1-6.25,3.48c-.14.07,0,.29.13.22Z"/>
    <path class="cls-1" d="M152.13,118.33l1.56,3.5a12.6,12.6,0,0,1,1.21,3.51c0,.16.27.16.25,0A11.63,11.63,0,0,0,154,122l-1.66-3.76c-.07-.14-.29,0-.22.13Z"/>
    <path class="cls-1" d="M137.52,126.46q3.27,6.69,6,13.59c.06.15.31.09.25-.06q-2.81-6.93-6.08-13.65c-.07-.15-.29,0-.22.12Z"/>
    <path class="cls-1" d="M144.18,141.46q2.06,4.36,4.27,8.66c.08.14.29,0,.22-.13q-2.22-4.28-4.27-8.66c-.07-.14-.29,0-.22.13Z"/>
    <path class="cls-1" d="M148.5,150.17c4-1.66,7.9-3.71,11.81-5.64l12.21-6.05c.15-.07,0-.29-.12-.21l-12,5.93c-4,2-7.88,4.05-12,5.73-.14.06-.08.3.07.24Z"/>
    <path class="cls-1" d="M148.77,150.77a.82.82,0,0,1,.23.43c.08.21.15.41.22.62l.42,1.26c.05.15.29.09.24-.07l-.47-1.39-.21-.63a.8.8,0,0,0-.31-.43c-.13-.09-.26.12-.12.21Z"/>
    <path class="cls-1" d="M148.9,150.73C153,149,157,147,161,145a30.11,30.11,0,0,1,3-1.2,25.92,25.92,0,0,0,2.76-1.33l6.14-3.17c.14-.07,0-.29-.13-.22l-6.13,3.17a23.93,23.93,0,0,1-3.12,1.46,21.1,21.1,0,0,0-2.66,1.07c-4,2-8,4-12.06,5.73-.15.06,0,.28.13.21Z"/>
    <path class="cls-1" d="M131.85,164.11c6.33-3.12,11.91-7.56,18.27-10.61.14-.07,0-.29-.13-.22-6.36,3.05-11.94,7.5-18.27,10.62-.14.07,0,.28.13.21Z"/>
    <path class="cls-1" d="M134.2,166.54q15.65-9.24,31.34-18.39l8.82-5.14c.14-.08,0-.29-.13-.21q-15.64,9.12-31.27,18.28l-8.88,5.24c-.14.09,0,.3.12.22Z"/>
    <path class="cls-1" d="M172.76,139.25a17.64,17.64,0,0,1,1,2.89c.44,1,.94,2,1.38,3.06s.93,2.2,1.35,3.32c.22.56.43,1.13.63,1.7.08.23.13.67.36.8a.14.14,0,0,0,.18-.05l0,0a.13.13,0,0,0,0-.17l0,0c-.13-.1-.25.12-.13.22l0,0,0-.17,0,0,.17,0c-.14-.08-.27-.7-.32-.86s-.21-.57-.32-.85c-.18-.5-.37-1-.56-1.48-.38-1-.77-1.91-1.19-2.85s-1-2-1.39-3.12a10.36,10.36,0,0,0-.87-2.51c-.09-.14-.3,0-.21.12Z"/>
    <path class="cls-1" d="M171.4,133.54l7.08,15.77c.07.15.29,0,.22-.13l-7.09-15.77c-.06-.14-.28,0-.21.13Z"/>
    <path class="cls-1" d="M168.81,131.42a36,36,0,0,1,3.57,6.86c.06.15.3.08.24-.07a35.54,35.54,0,0,0-3.6-6.92c-.08-.13-.3,0-.21.13Z"/>
    <path class="cls-1" d="M181.74,138.38a.53.53,0,0,0-.58,0c-.34.12-.68.27-1,.41l-1.11.45a2.29,2.29,0,0,0-.73.41,3.55,3.55,0,0,0-.55.74c-.21.32-.42.64-.62,1-.42.66-.83,1.33-1.24,2-.08.14.14.27.22.13.66-1.09,1.33-2.19,2-3.25a2.93,2.93,0,0,1,1.54-1l.87-.35.47-.19c.11,0,.4-.21.53-.09s.3-.07.18-.18Z"/>
    <path class="cls-1" d="M181.71,128.06a14.3,14.3,0,0,0-2.66,1.09l-2.86,1.34a21.09,21.09,0,0,0-4.85,2.85c-.13.1,0,.28.17.18a20.89,20.89,0,0,1,4.81-2.81l2.68-1.26a14,14,0,0,1,2.78-1.14c.15,0,.09-.28-.07-.25Z"/>
    <path class="cls-1" d="M171.16,132.38a8.21,8.21,0,0,0,2.51-1.17c.84-.48,1.7-.93,2.57-1.35,1.8-.89,3.63-1.71,5.38-2.69.14-.08,0-.3-.12-.22-1.7,1-3.47,1.76-5.21,2.61-.87.42-1.74.86-2.58,1.34a8.94,8.94,0,0,1-2.61,1.24c-.16,0-.09.27.06.24Z"/>
    <path class="cls-1" d="M177.51,116a79.1,79.1,0,0,1-9.68,8.8c-.12.09,0,.31.13.21a78.25,78.25,0,0,0,9.72-8.83c.11-.12-.06-.3-.17-.18Z"/>
    <path class="cls-1" d="M167.87,125a75.63,75.63,0,0,0,3.16,7.35c.07.14.29,0,.21-.13a73.35,73.35,0,0,1-3.13-7.29c-.06-.15-.3-.08-.24.07Z"/>
    <path class="cls-1" d="M162.33,114.23c1.81,3.27,3.17,6.79,4.67,10.21.06.14.28,0,.22-.13-1.5-3.41-2.86-6.94-4.67-10.2a.13.13,0,0,0-.22.12Z"/>
    <path class="cls-1" d="M167.31,124.44c1.42-1.66,3.36-2.73,4.93-4.22.82-.77,1.5-1.67,2.38-2.38a16.82,16.82,0,0,0,2.57-2.49c.1-.13-.07-.3-.17-.18a16.48,16.48,0,0,1-2.5,2.44c-.91.72-1.61,1.64-2.45,2.44-1.58,1.49-3.51,2.55-4.94,4.21-.1.12.07.3.18.18Z"/>
    <path class="cls-1" d="M160.64,113.65a60.65,60.65,0,0,1,4.62,9.09c1.27,3.11,2.48,6.25,4,9.27.07.14.29,0,.22-.13-1.58-3.14-2.81-6.41-4.15-9.65a59,59,0,0,0-4.47-8.7c-.08-.14-.3,0-.21.12Z"/>
    <path class="cls-1" d="M169.13,106.63a3.08,3.08,0,0,1-.5,1c-.2.33-.39.66-.57,1a17.66,17.66,0,0,0-.93,2.15c0,.16.19.22.24.07a16.39,16.39,0,0,1,1-2.23c.18-.34.38-.67.58-1a2.65,2.65,0,0,0,.44-1c0-.16-.21-.23-.24-.07Z"/>
    <path class="cls-1" d="M170.08,107.39a30.12,30.12,0,0,1-1.49,2.66c-.08.14.13.25.22.12l.05-.07c.1-.14-.12-.26-.21-.13l-.06.08.22.12a30,30,0,0,0,1.48-2.66c.08-.14-.14-.27-.21-.12Z"/>
    <path class="cls-1" d="M168.66,110.33a11.27,11.27,0,0,1,2.53,0l1.25.11.65.05a.41.41,0,0,0,.36-.05.13.13,0,0,0,0-.15.15.15,0,0,0-.11-.08.14.14,0,0,0-.16.09h0c-.06.15.18.22.24.07v0l-.15.09,0,0,0-.15a2.8,2.8,0,0,1-.55-.06l-.55,0-1.25-.11a10.68,10.68,0,0,0-2.33,0c-.16,0-.09.26.07.24Z"/>
    <path class="cls-1" d="M157.44,104a26.63,26.63,0,0,0,2.1,4.73c.41.77.83,1.54,1.21,2.33.2.42.39.85.57,1.28a2.17,2.17,0,0,0,.45.83c.12.11.3-.07.18-.18a2.77,2.77,0,0,1-.53-1c-.16-.39-.34-.78-.53-1.16-.36-.74-.75-1.46-1.13-2.19a25.3,25.3,0,0,1-2.08-4.67c0-.15-.29-.09-.24.07Z"/>
    <path class="cls-1" d="M161.87,113.15a33.13,33.13,0,0,1,5.51-2.28l-.12-.21-.1.08c-.12.1.05.27.18.17l.09-.07a.12.12,0,0,0-.12-.21,33.84,33.84,0,0,0-5.57,2.3.13.13,0,0,0,.13.22Z"/>
    <path class="cls-1" d="M162.55,114.25l5.67-2.64c.15-.07,0-.29-.12-.22L162.42,114c-.15.06,0,.28.13.21Z"/>
    <path class="cls-1" d="M168.15,111.51q3.1.06,6.21.29c.16,0,.16-.23,0-.25q-3.11-.22-6.21-.29a.13.13,0,0,0,0,.25Z"/>
    <path class="cls-1" d="M156.72,105.82c.15,0,.38.6.45.73s.27.52.41.78c.28.55.55,1.09.81,1.64.53,1.12,1,2.25,1.46,3.39.06.15.3.08.24-.07-.48-1.24-1-2.46-1.59-3.67-.3-.61-.6-1.21-.91-1.8l-.48-.89c-.1-.19-.17-.35-.39-.36s-.16.24,0,.25Z"/>
    <path class="cls-1" d="M156.51,105.43c-2,1.54-3.86,3.18-5.92,4.57s-4,2.76-6.17,3.93a.13.13,0,0,0,.12.22c2.2-1.21,4.27-2.64,6.35-4.05s3.88-3,5.8-4.49c.12-.1-.06-.28-.18-.18Z"/>
    <path class="cls-1" d="M146.31,107.61h0a.14.14,0,0,0,0-.15.13.13,0,0,0-.11,0,.13.13,0,0,0-.12.09c0,.11,0,.2.08.29l.2.4.4.83.39.81.19.4c.06.11.09.22.21.27a.14.14,0,0,0,.12,0,.17.17,0,0,0,0-.15s-.07-.1-.12-.09h0a.13.13,0,0,0,0,.25h0l-.13-.1v0l0-.12h0l.12,0h0l.07.06c-.13-.21-.22-.46-.33-.68l-.34-.71-.34-.7-.17-.35-.08-.15a.68.68,0,0,0-.08-.15l-.12.09h0l-.09,0h0l0-.15h0c-.08.14.13.27.21.13Z"/>
    <path class="cls-1" d="M147.41,106.89h0l-.19.14a.53.53,0,0,1,.13.2,1.86,1.86,0,0,1,.14.37l.12.36c0,.11.1.21.13.32a4.86,4.86,0,0,0,.32.74c.13.25.23.52.35.78a.13.13,0,0,0,.2,0,.29.29,0,0,0,.07-.22.13.13,0,0,0-.25,0s0,0,0,0l.19,0c-.12-.26-.22-.54-.36-.8s-.14-.27-.2-.41-.07-.26-.13-.39-.17-.49-.26-.73a1,1,0,0,0-.32-.52.12.12,0,0,0-.18.14.16.16,0,0,0,.07.11c.12.1.29-.07.17-.18Z"/>
    <path class="cls-1" d="M148.58,109.92q4-2.83,7.93-5.74c.13-.1,0-.31-.13-.22q-3.94,2.91-7.93,5.74c-.12.1,0,.31.13.22Z"/>
    <path class="cls-1" d="M141.17,110.72a9.86,9.86,0,0,1,1.33.92c.2.17.39.34.58.53l.29.29.13.15.06.06,0,0s0,0,.06,0l.1,0,.05.07,0,.09h0l-.12,0h0c.16,0,.23-.22.07-.24s-.23.1-.15.22a.16.16,0,0,0,.29-.08c0-.15-.17-.3-.26-.4s-.28-.29-.43-.43a9.85,9.85,0,0,0-1.9-1.43c-.14-.08-.26.14-.12.22Z"/>
    <path class="cls-1" d="M143.77,112.66a13.92,13.92,0,0,0-3.16,2.77c-.1.12.08.3.18.18a13.91,13.91,0,0,1,3.1-2.73c.14-.09,0-.31-.12-.22Z"/>
    <path class="cls-1" d="M142.13,110.16l1.22,1.33a7.89,7.89,0,0,0,1.19,1.12c.13.1.26-.12.13-.21a8.36,8.36,0,0,1-1.18-1.12L142.3,110c-.11-.12-.28.06-.17.18Z"/>
    <path class="cls-1" d="M144.63,112.51l3-1.9a.12.12,0,0,0,0-.21l-.14-.09c-.14-.08-.27.13-.13.21l.15.09v-.21l-3,1.89a.13.13,0,0,0,.13.22Z"/>
    <path class="cls-1" d="M144.44,113.75a7.6,7.6,0,0,1-1.21.9.13.13,0,0,0,.13.22,7.71,7.71,0,0,0,1.25-.94c.12-.11-.06-.29-.17-.18Z"/>
    <path class="cls-1" d="M143.22,114.77a3.52,3.52,0,0,0,.69,1.1,14.61,14.61,0,0,1,1,1.28,16.67,16.67,0,0,1,1.49,2.76c.06.14.3.08.24-.07a17,17,0,0,0-1.41-2.67c-.27-.4-.55-.79-.84-1.16a4.64,4.64,0,0,1-.88-1.31c-.05-.15-.3-.08-.24.07Z"/>
    <path class="cls-1" d="M146.38,120c2.3-1.4,4.66-2.71,7.07-3.91,2.2-1.1,4.69-1.91,6.6-3.48.12-.1-.05-.28-.18-.18a13.61,13.61,0,0,1-3.2,1.85c-1.19.55-2.38,1.11-3.55,1.69q-3.51,1.77-6.86,3.82c-.14.08,0,.3.12.21Z"/>
    <path class="cls-1" d="M160.67,113.52c-2.48,1.57-5.48,2.14-7.87,3.88-.13.09,0,.31.12.21,2.4-1.73,5.39-2.3,7.88-3.88.13-.08,0-.3-.13-.21Z"/>
    <path class="cls-1" d="M152.94,117.51a48.12,48.12,0,0,1,3,7,12.34,12.34,0,0,0,1.42,2.92,13.76,13.76,0,0,1,1.72,3.26c0,.15.29.09.24-.06a12.13,12.13,0,0,0-1.5-3,14.17,14.17,0,0,1-1.71-3.44,44.62,44.62,0,0,0-2.93-6.82c-.07-.15-.29,0-.21.12Z"/>
    <path class="cls-1" d="M155.4,126.23a16.61,16.61,0,0,1,1.3,2.13c.1.21,1.06,2.19.88,2.27s0,.28.12.22c.33-.15,0-.68,0-.89a12.67,12.67,0,0,0-.55-1.32,15.84,15.84,0,0,0-1.5-2.54c-.09-.13-.31,0-.21.13Z"/>
    <path class="cls-1" d="M159.41,131c-1.74-1.37-4.22-.38-5.15,1.45a5.71,5.71,0,0,0-.5,3.33c.19,1.46.82,3.05,0,4.41a.12.12,0,0,0,.21.13,4.17,4.17,0,0,0,.36-3.06,8.64,8.64,0,0,1-.17-3.68,3.91,3.91,0,0,1,2-2.63,3,3,0,0,1,3.16.22c.13.1.31-.07.18-.17Z"/>
    <path class="cls-1" d="M154.79,140.69c.48-1.55,2.29-1.85,3.6-2.4a5.11,5.11,0,0,0,2.69-2.19,3.82,3.82,0,0,0-2.4-5.4c-.15,0-.22.19-.07.24A3.52,3.52,0,0,1,160,137a11.09,11.09,0,0,1-3.4,1.66,3.27,3.27,0,0,0-2.09,1.95c-.05.15.19.21.24.06Z"/>
    <path class="cls-1" d="M158.74,133.13a1.22,1.22,0,0,0-1.59-.44,1.87,1.87,0,0,0-.91,1.77,1.68,1.68,0,0,0,.33,1.07,1.31,1.31,0,0,0,.88.44,1.54,1.54,0,0,0,1.57-1.16,2,2,0,0,0-.1-1.34,1.22,1.22,0,0,0-.33-.53.24.24,0,0,0-.4.12c0,.15.22.22.24.06l.11.15a2.12,2.12,0,0,1,.11.21,2,2,0,0,1,.16.47,1.73,1.73,0,0,1-.07.93,1.29,1.29,0,0,1-1.34.84,1.09,1.09,0,0,1-.66-.38,1.42,1.42,0,0,1-.25-.88,1.68,1.68,0,0,1,.66-1.49,1,1,0,0,1,1.37.28c.08.15.29,0,.22-.12Z"/>
    <path class="cls-1" d="M153.85,140.22a.74.74,0,0,0,1.05.43.12.12,0,0,0,0-.17.13.13,0,0,0-.17,0l0,0s0,0,0,0l-.06,0h-.2l-.12,0h0l-.06,0h0s0,0,0,0l-.05,0,0,0s0,0,0,0l0,0,0-.06s0,0,0,0v0a.13.13,0,0,0-.16-.08.12.12,0,0,0-.08.15Z"/>
    <path class="cls-1" d="M154.84,125.27a44,44,0,0,1-6.92,3.33c-.15.05-.09.29.07.24a46.14,46.14,0,0,0,7-3.35c.14-.08,0-.3-.13-.22Z"/>
    <path class="cls-1" d="M155.19,126.2l-3.68,1.89a14.94,14.94,0,0,1-3.67,1.48c-.16,0-.09.27.07.24a14.73,14.73,0,0,0,3.6-1.44l3.8-2c.14-.07,0-.29-.12-.22Z"/>
    <path class="cls-1" d="M147.68,128.64a5.61,5.61,0,0,1,.08,1.08.13.13,0,0,0,.25,0,6.12,6.12,0,0,0-.09-1.14.12.12,0,0,0-.15-.09.13.13,0,0,0-.09.15Z"/>
    <path class="cls-1" d="M161.56,134.94v0a.12.12,0,0,0,0-.15.15.15,0,0,0-.21-.08.19.19,0,0,0-.07.25,4.93,4.93,0,0,0,.22.53l.24.57.44,1.06.22.53.11.25c0,.08.14.25.11.34l.06-.08h0l0,.09v0c0-.16-.24-.16-.25,0s.35.23.36,0a1.36,1.36,0,0,0-.18-.51l-.25-.59L162,136l-.24-.56-.12-.28a2.49,2.49,0,0,1-.11-.26l-.08,0h-.08l0-.15h0c-.11.11.07.29.18.18Z"/>
    <path class="cls-1" d="M162.63,138c-1.84.76-3.68,1.53-5.53,2.25l.15.09-.05-.2c0-.16-.28-.09-.24.07l0,.19a.13.13,0,0,0,.16.09c1.85-.72,3.68-1.49,5.52-2.25.15-.06.09-.3-.06-.24Z"/>
    <path class="cls-1" d="M160.36,137l.15.52.07.26,0,.12s0,0,0,.06h0s0,0,.08-.06h.07a.1.1,0,0,1,0,.1l0,.05h0l0,0h-.06a.13.13,0,0,0,.16-.08.13.13,0,0,0-.09-.16.15.15,0,0,0-.09.28.16.16,0,0,0,.21-.07.36.36,0,0,0,0-.23l-.26-.91a.13.13,0,0,0-.24.07Z"/>
    <path class="cls-1" d="M160.57,137.85l-4,1.63a.13.13,0,0,0-.09.15,3.09,3.09,0,0,0,.41.81c.1.12.31,0,.22-.13a2.62,2.62,0,0,1-.39-.74l-.08.15,4-1.63c.15-.06.08-.3-.07-.24Z"/>
    <path class="cls-1" d="M120.12,180.78c-4.77,5.63-9.11,11.61-13.53,17.51-.1.13.12.25.21.12,4.42-5.88,8.74-11.84,13.5-17.45.1-.12-.07-.3-.18-.18Z"/>
    <path class="cls-1" d="M106.65,198.57a41.6,41.6,0,0,1,5.58,4.41,28.31,28.31,0,0,0,5.18,4c.14.08.27-.14.13-.21a30,30,0,0,1-5.41-4.23,40.11,40.11,0,0,0-5.35-4.21c-.14-.09-.26.13-.13.22Z"/>
    <path class="cls-1" d="M117.68,207.19A110.36,110.36,0,0,1,124.9,198a37.92,37.92,0,0,0,3.26-4,19.67,19.67,0,0,1,3.21-4.16c.12-.1-.06-.28-.18-.17a18,18,0,0,0-3,3.86,40.8,40.8,0,0,1-3.6,4.48,113.46,113.46,0,0,0-7.11,9.1c-.09.13.12.26.22.12Z"/>
    <path class="cls-1" d="M115.34,177.16a22.82,22.82,0,0,0-6,3,28.8,28.8,0,0,0-2.39,2,10.2,10.2,0,0,0-2,2.28.12.12,0,0,0,.21.13,10.39,10.39,0,0,1,1.94-2.24,27.52,27.52,0,0,1,2.48-2.1,23.23,23.23,0,0,1,5.83-2.86c.15-.05.08-.29-.07-.24Z"/>
    <path class="cls-1" d="M101.06,177.76c1.27,1.6,2.5,3.24,3.7,4.9.09.13.31,0,.21-.13-1.2-1.68-2.45-3.33-3.73-4.95-.1-.12-.27,0-.18.18Z"/>
    <path class="cls-1" d="M102.13,176.86c1.26,1.67,2.54,3.34,3.83,5,.1.13.28-.05.18-.17-1.28-1.63-2.55-3.28-3.79-4.94-.1-.12-.32,0-.22.13Z"/>
    <path class="cls-1" d="M106,182c2.36-2.53,5.38-4,8.49-5.46.14-.06,0-.28-.13-.21-3.12,1.43-6.16,2.95-8.54,5.5-.11.11.07.29.18.17Z"/>
    <path class="cls-1" d="M105,182.49c-.27.11-.38.38-.51.62s-.37.66-.57,1a21.17,21.17,0,0,1-1.28,1.86c-.09.12.08.3.18.18.42-.55.82-1.12,1.19-1.7.18-.29.36-.59.53-.89l.24-.44c.07-.13.14-.31.29-.37s.08-.3-.07-.24Z"/>
    <path class="cls-1" d="M98.34,180.27c.81,1,1.6,1.93,2.37,2.93.39.5.77,1,1.15,1.51l.57.78c.11.15.23.42.42.46a.13.13,0,0,0,.14-.06.16.16,0,0,0,0-.15.14.14,0,0,0-.12-.09h0c-.16,0-.16.26,0,.25h0l-.12-.09v0l.14-.06c-.08,0-.21-.27-.26-.34l-.29-.4-.51-.69c-.35-.46-.7-.93-1.06-1.39q-1.11-1.42-2.28-2.79c-.1-.13-.28.05-.17.17Z"/>
    <path class="cls-1" d="M97.54,181c1.59,2,3.11,4,4.54,6.14.09.13.3,0,.21-.13-1.44-2.12-3-4.19-4.57-6.19-.1-.13-.28,0-.18.18Z"/>
    <path class="cls-1" d="M94.89,187.71c1.19,1.7,2.45,3.36,3.76,5a.12.12,0,0,0,.21-.09l0-.17c0-.16-.26-.16-.25,0l0,.17.21-.08c-1.29-1.6-2.53-3.25-3.71-4.93-.09-.13-.31,0-.22.13Z"/>
    <path class="cls-1" d="M94.69,189.39a10.36,10.36,0,0,0,1.63,1.93,5.46,5.46,0,0,1,.83,1,8.44,8.44,0,0,0,.76,1c.11.12.28-.05.18-.17a8.66,8.66,0,0,1-.76-1,5.6,5.6,0,0,0-.78-.91,10.41,10.41,0,0,1-1.65-1.92c-.08-.14-.3,0-.21.12Z"/>
    <path class="cls-1" d="M97.88,193.26a4.38,4.38,0,0,1-1,1.49,7.45,7.45,0,0,1-.65.61l-.36.33-.19.16a1.57,1.57,0,0,1-.19.18l.12.09v0l0,.12h0l-.15,0h0c.13.09.25-.12.12-.22h0a.11.11,0,0,0-.15,0,.15.15,0,0,0,0,.15c0,.05.07.08.12.09s.29-.18.39-.27l.43-.38c.25-.22.5-.44.73-.68a4.73,4.73,0,0,0,1.11-1.62c.06-.15-.18-.22-.24-.07Z"/>
    <path class="cls-1" d="M98.47,194.66a4.43,4.43,0,0,1-1.25,1.44c-.26.2-.53.38-.8.56l-.43.28a5,5,0,0,1-.49.31h.06l.09.12v0l-.06.11h0l-.15,0h0c.12.1.3-.08.17-.18h0a.13.13,0,0,0-.15,0,.16.16,0,0,0-.08.14.14.14,0,0,0,.1.12c.17,0,.33-.13.47-.22l.49-.32c.3-.19.59-.39.86-.6a4.7,4.7,0,0,0,1.37-1.54c.07-.14-.14-.27-.22-.13Z"/>
    <path class="cls-1" d="M98.62,194.87c5.26,4.53,10.43,9.22,16,13.34.13.09.26-.13.13-.22-5.58-4.11-10.74-8.78-16-13.3-.12-.1-.3.08-.17.18Z"/>
    <path class="cls-1" d="M103.57,202a6.84,6.84,0,0,1-.47.72,2.69,2.69,0,0,1-.27.32,1,1,0,0,1-.14.15l-.07.08-.05.05h0l0,0,0,.1,0,0h0c.15,0,.22-.21.06-.24a.15.15,0,0,0-.18.16.16.16,0,0,0,.21.14c.1,0,.18-.14.25-.21l.2-.22a5.36,5.36,0,0,0,.7-1c.08-.15-.14-.27-.21-.13Z"/>
    <path class="cls-1" d="M103.9,202.09l6.46,5c.12.1.3-.07.18-.17l-6.46-5c-.12-.1-.3.08-.18.18Z"/>
    <path class="cls-1" d="M105.17,184.78l0-.2-.19.14a43.86,43.86,0,0,1,4,3.2l.09-.21-.23,0c-.16,0-.16.24,0,.25l.23,0a.12.12,0,0,0,.09-.21,44.63,44.63,0,0,0-4-3.24c-.1-.07-.2,0-.18.14l0,.2c0,.16.27.09.24-.07Z"/>
    <path class="cls-1" d="M104.52,185.35a8.49,8.49,0,0,1,2,1.44l2,1.68a.14.14,0,0,0,.18,0c.16-.17.48-.61.13-.75a.11.11,0,0,0-.12,0l0,0c-.12.11.06.29.18.18l0,0-.12,0-.25.33h.18l-2.13-1.78a7.59,7.59,0,0,0-2-1.4c-.14-.06-.21.18-.06.24Z"/>
    <path class="cls-1" d="M104.56,185.29a33.49,33.49,0,0,0-2.71,4.14.13.13,0,0,0,0,.17,51.82,51.82,0,0,1,5,4.13c.11.11.29-.07.17-.18a53,53,0,0,0-5-4.17l0,.18a35.7,35.7,0,0,1,2.72-4.15c.1-.13-.12-.25-.22-.12Z"/>
    <path class="cls-1" d="M101.62,190.23v0a.13.13,0,0,0-.06-.14.15.15,0,0,0-.17,0,.13.13,0,0,0-.06.15c0,.17.24.22.38.31s.45.3.67.46c.47.36.92.74,1.37,1.11l2.72,2.21a.13.13,0,0,0,.2,0l.42-.7a.13.13,0,0,0-.22-.12l-.42.7.2,0L104,192l-1.25-1c-.19-.15-.39-.3-.6-.44l-.33-.23s-.26-.12-.27-.16l-.06.14h-.07l-.06-.14v0a.12.12,0,0,0,.24.06Z"/>
    <path class="cls-1" d="M101.4,190.27c-.64,1.19-1.33,2.36-2.05,3.51l.23.06v-.07c0-.16-.26-.16-.25,0v.07a.12.12,0,0,0,.23.06c.73-1.14,1.42-2.31,2.06-3.5.07-.15-.14-.27-.22-.13Z"/>
    <path class="cls-1" d="M102.09,186.9a32.56,32.56,0,0,1-3.37,5.53c-.09.13.12.26.22.13a32.9,32.9,0,0,0,3.37-5.54c.07-.14-.15-.27-.22-.12Z"/>
    <path class="cls-1" d="M99.44,193.93c2.93,2.66,5.93,5.25,9,7.74,1.45,1.17,2.91,2.32,4.25,3.62a19.42,19.42,0,0,0,3.84,3.23c.14.08.27-.13.13-.21a21,21,0,0,1-4-3.34c-1.34-1.31-2.82-2.45-4.27-3.63-3-2.44-6-5-8.82-7.59-.12-.11-.3.07-.18.18Z"/>
    <path class="cls-1" d="M133.2,190.9c-5.28,5.38-9.68,11.52-14.42,17.36-.11.12.07.3.17.17,4.75-5.83,9.15-12,14.43-17.36a.12.12,0,0,0-.18-.17Z"/>
    <path class="cls-1" d="M131.94,190.16c-4.94,6.08-9.93,12.12-14.78,18.27-.1.13.08.31.18.18,4.85-6.15,9.84-12.19,14.78-18.27.1-.13-.08-.3-.18-.18Z"/>
    <path class="cls-2" d="M180.57,143.81c3.34-10.84,2.12-25.52-8.49-34.87a16.19,16.19,0,0,0-5-3.83,12.75,12.75,0,0,0-3.66-1c-11.07-2.34-21,4.87-27.79,11C126.33,123.52,124,135,123,147.2c-.11.42-.22.89-.33,1.46-.42,2.28-.15,2.84-.75,5a20.11,20.11,0,0,1-2.09,4.82c-3.67,6.45-5.62,6.19-5.52,8.25.16,3.62,6.21,4.41,15.46,12.93,1.32,1.22,2.51,2.41,3.58,3.46a6,6,0,0,0,1.4,1.35c1.74,1.63,3.11,2.63,4.16,2.32.77-.22.94-1,1.35-2a.37.37,0,0,0,.14-.14l5-4.53c3.12-1,6.43-3.73,13.41-9.49a114.56,114.56,0,0,0,8.85-7.69A39.37,39.37,0,0,0,180.57,143.81Z"/>
    <path class="cls-2" d="M109.43,173.13c1.39.79,3.31,2,5.5,3.5s3.92,3,5.65,4.5c4,3.45,3.55,3.47,5.65,5.1,4.84,3.75,7.44,3.68,7.92,5.52.35,1.33-.89,1.72-4.21,6-2.18,2.81-1.89,3-3.68,5.1-2.57,3-3.85,4.57-6,5.28-3.3,1.13-6.79.12-9.34-.61-1.87-.53-3.88-1.59-7.91-3.7-5.34-2.79-6.18-3.72-6.72-4.51-.87-1.3-1-2.75-1.38-5.64a20,20,0,0,1-.07-6.68A13.11,13.11,0,0,1,98,180.37c.83-.89.67-.44,2.78-2.31,2.66-2.35,3.15-3.29,4.9-4.09A10.06,10.06,0,0,1,109.43,173.13Z"/>
    <path class="cls-1" d="M100.94,94.43q.19,4.29.13,8.6c0,.16.24.16.25,0q.06-4.31-.13-8.6a.13.13,0,0,0-.25,0Z"/>
    <path class="cls-1" d="M106.77,101a9.7,9.7,0,0,0-2.61,1,14.45,14.45,0,0,1-2.9.86.13.13,0,0,0,.07.24l1.47-.38a7.05,7.05,0,0,0,1.3-.42c.45-.21.87-.46,1.33-.65a7.7,7.7,0,0,1,1.4-.4c.16,0,.09-.27-.06-.24Z"/>
    <path class="cls-1" d="M106.79,101.09a36.37,36.37,0,0,1-.18-7.45.11.11,0,0,0-.06-.11l0,0a.12.12,0,0,0-.15,0l0,0a.13.13,0,0,0,0,.12.31.31,0,0,0,.09.14c.12.1.3-.07.18-.18l0,.07-.16,0s-.09.79-.1.85c0,.32,0,.63,0,1,0,.61,0,1.22,0,1.82,0,1.25.13,2.5.28,3.74,0,.16.27.16.25,0Z"/>
    <path class="cls-1" d="M106.52,93.38a5.35,5.35,0,0,0-1.26.14l-1.45.28-2.78.53c-.16,0-.09.27.07.24l2.67-.51,1.34-.25a6.12,6.12,0,0,1,1.41-.18c.17,0,.16-.24,0-.25Z"/>
    <path class="cls-1" d="M115.44,96.13c.23-.06.16-.32.08-.47a6.07,6.07,0,0,1-.41-.9,7.61,7.61,0,0,1-.42-1.89c0-.16-.26-.16-.25,0a7.9,7.9,0,0,0,.31,1.61,6.61,6.61,0,0,0,.28.74c0,.12.11.24.17.36s.07.13.1.2l0,.08s0,0,0,0c-.16,0-.09.29.07.25Z"/>
    <path class="cls-1" d="M114.53,92.75c-1.22.1-2.43.26-3.64.44l-1.75.26-.81.13c-.2,0-.38,0-.51.18a.15.15,0,0,0,0,.13A.16.16,0,0,0,108,94c.05,0,.12,0,.12-.09v0c0-.16-.22-.23-.24-.07v0l.12-.1c0,.14.08.18.19.13l.16,0,.38-.06.72-.11,1.65-.25c1.14-.17,2.29-.32,3.44-.41.16,0,.16-.26,0-.25Z"/>
    <path class="cls-1" d="M107.83,93.73c.21,2.39-.5,4.76-.23,7.15,0,.16.27.16.25,0-.27-2.39.44-4.76.23-7.15,0-.16-.26-.16-.25,0Z"/>
    <path class="cls-1" d="M115.28,95.91a38.91,38.91,0,0,0-3.6,2.34,17,17,0,0,1-3.67,2.39c-.15.07,0,.28.12.22a15.88,15.88,0,0,0,3.52-2.26,37.55,37.55,0,0,1,3.76-2.48.12.12,0,0,0-.13-.21Z"/>
    <path class="cls-1" d="M108.14,100.65l0,0,0,0a.51.51,0,0,1-.16.09h0a.59.59,0,0,1-.19,0h0a.12.12,0,0,0-.09,0,.09.09,0,0,0,0,.09.11.11,0,0,0,0,.08.18.18,0,0,0,.09,0,1.22,1.22,0,0,0,.26-.06,1,1,0,0,0,.22-.14.12.12,0,0,0,0-.18.13.13,0,0,0-.09,0,.2.2,0,0,0-.08,0Z"/>
    <path class="cls-1" d="M117.87,103.22a.21.21,0,0,0,.31.12.13.13,0,0,0,.06-.14c-.21-1.22-.44-2.44-.7-3.64a.12.12,0,0,0-.24.06c.26,1.21.49,2.42.7,3.64l0-.14.06,0c0-.15-.29-.09-.24.07Z"/>
    <path class="cls-1" d="M114.09,101.18c-.37,2-.69,4-.94,5.95,0,.16.23.16.25,0q.38-3,.93-5.88c0-.16-.21-.23-.24-.07Z"/>
    <path class="cls-1" d="M112.57,101.91l-1,7.09c0,.16.22.23.25.07l1-7.1c0-.15-.21-.22-.24-.06Z"/>
    <path class="cls-1" d="M118.22,98.54c.41,1.3.35,2.7.81,4,0,.15.29.09.24-.07-.46-1.28-.4-2.68-.81-4,0-.15-.29-.09-.24.06Z"/>
    <path class="cls-1" d="M125.46,97.15A2.62,2.62,0,0,0,124,97l-1.89.26c-1.31.21-2.61.46-3.91.74a.13.13,0,0,0-.08.16,2.49,2.49,0,0,0,.25.8c.07.15.29,0,.22-.12a2.18,2.18,0,0,1-.23-.75l-.09.15c1.16-.25,2.32-.48,3.49-.67q.91-.15,1.83-.27a3.28,3.28,0,0,1,1.76,0c.14.07.27-.15.12-.21Z"/>
    <path class="cls-1" d="M113.54,105.49a5.06,5.06,0,0,0-1.1-.09.13.13,0,0,0,0,.25,5.05,5.05,0,0,1,1,.08.13.13,0,0,0,.15-.09.12.12,0,0,0-.08-.15Z"/>
    <path class="cls-1" d="M130.44,93a13.47,13.47,0,0,0-3.35.33c-1.14.19-2.27.38-3.4.59-2.35.43-4.68.9-7,1.4a.13.13,0,0,0,.06.25c2.25-.49,4.51-1,6.77-1.36,1.13-.21,2.27-.41,3.4-.6a14,14,0,0,1,3.53-.36c.16,0,.16-.24,0-.25Z"/>
    <path class="cls-1" d="M116.78,95.39c-1.43-1.55-1.46-3.77-1.52-5.76l-.21-7.31c0-.16-.26-.17-.25,0,.08,2.65.14,5.31.23,8,.07,1.86.25,3.84,1.57,5.27a.12.12,0,0,0,.18-.17Z"/>
    <path class="cls-1" d="M113.71,82.65c.06,3.08.07,6.17.32,9.24,0,.16.26.16.25,0-.25-3.07-.26-6.16-.32-9.24,0-.16-.26-.17-.25,0Z"/>
    <path class="cls-1" d="M114.15,91.7a5.37,5.37,0,0,1-1.65,0,13.09,13.09,0,0,0-1.66.08l-3.2.27-6.62.58c-.16,0-.17.26,0,.25l6.87-.6c1.14-.1,2.28-.21,3.42-.29a16.44,16.44,0,0,0,2.9-.07.12.12,0,0,0-.06-.24Z"/>
    <path class="cls-1" d="M101,92.84a73.89,73.89,0,0,1,.29-9.29c0-.16-.24-.16-.25,0a73.89,73.89,0,0,0-.29,9.29.13.13,0,0,0,.25,0Z"/>
    <path class="cls-1" d="M113.75,82.45q-6.28.28-12.51,1.12c-.16,0-.16.27,0,.25q6.23-.84,12.51-1.12c.16,0,.16-.26,0-.25Z"/>
    <path class="cls-1" d="M117.26,99.35a17.31,17.31,0,0,1-3.06,1.49c-.15,0-.09.29.07.24a17.22,17.22,0,0,0,3.11-1.52c.14-.08,0-.3-.12-.21Z"/>
    <path class="cls-1" d="M112.46,101.81a73.47,73.47,0,0,0-8.61,3.94c-.14.07,0,.29.13.21a73.94,73.94,0,0,1,8.54-3.91c.15-.06.09-.3-.06-.24Z"/>
    <path class="cls-1" d="M103.88,105.76a30.15,30.15,0,0,1-1,7.25.13.13,0,0,0,.25.07,30.72,30.72,0,0,0,1-7.32.13.13,0,1,0-.25,0Z"/>
    <path class="cls-1" d="M107.77,116.53c-.81-.52-1.57-1.12-2.33-1.72l-2.36-1.9c-.13-.1-.31.08-.18.18l2.44,2c.75.6,1.5,1.19,2.3,1.71.14.09.26-.13.13-.22Z"/>
    <path class="cls-1" d="M106.93,118.65A39.66,39.66,0,0,0,99.6,113c-.13-.08-.26.13-.12.22a39.72,39.72,0,0,1,7.27,5.65c.11.11.29-.07.18-.18Z"/>
    <path class="cls-1" d="M99.29,113.07a22.52,22.52,0,0,0,.31,5.18c0,.16.27.16.25,0a22.52,22.52,0,0,1-.31-5.18c0-.16-.24-.16-.25,0Z"/>
    <path class="cls-1" d="M98.4,112.28a8.29,8.29,0,0,0-.22,2.43c0,.91,0,1.82,0,2.73,0,.16.26.17.25,0,0-.87,0-1.75,0-2.63a7.84,7.84,0,0,1,.2-2.46c0-.16-.2-.22-.24-.07Z"/>
    <path class="cls-1" d="M98.52,112.27a43.59,43.59,0,0,0-4.89-3.7c-.14-.09-.26.12-.13.21a43.06,43.06,0,0,1,4.84,3.67c.12.1.3-.07.18-.18Z"/>
    <path class="cls-1" d="M93.54,108.53q-6.54.87-13.13,1.16c-.16,0-.16.26,0,.25q6.63-.28,13.2-1.17c.16,0,.09-.26-.07-.24Z"/>
    <path class="cls-1" d="M80.39,109.7l-.67.89a.13.13,0,0,0,0,.17.13.13,0,0,0,.17,0l.67-.9a.13.13,0,0,0,0-.17.12.12,0,0,0-.17,0Z"/>
    <path class="cls-1" d="M94.67,111.59c-.28.76-.53,1.54-.74,2.33a7.58,7.58,0,0,0-.28,1.14c0,.09,0,.21.13.23a.15.15,0,0,0,.17-.16.12.12,0,0,0-.09-.12h0a.12.12,0,0,0-.06.24h0l-.09-.12v0l.11-.06h0l.09,0s0,0,0,0l0-.13c0-.07,0-.13,0-.2l.12-.46c.07-.29.15-.57.23-.85.18-.59.37-1.17.58-1.74.06-.16-.18-.22-.24-.07Z"/>
    <path class="cls-1" d="M94.86,111.79c-.19-.8-1-1.12-1.72-1.29a21,21,0,0,0-3.87-.55,22.38,22.38,0,0,0-7.92,1c-.15,0-.08.29.07.24a22.37,22.37,0,0,1,6.94-1,22.73,22.73,0,0,1,3.59.34c.89.15,2.42.28,2.67,1.34a.12.12,0,0,0,.24-.06Z"/>
    <path class="cls-1" d="M102.76,106.29c0,1.92.32,4.16-.75,5.88-.09.13.13.26.21.12,1.1-1.75.82-4,.79-6,0-.16-.26-.16-.25,0Z"/>
    <path class="cls-1" d="M102.11,112.38c-1.8-1.41-3.53-2.89-5.2-4.46-.11-.11-.29.07-.17.18q2.49,2.34,5.19,4.46c.12.1.3-.08.18-.18Z"/>
    <path class="cls-1" d="M96.74,108a9.12,9.12,0,0,1,3-1.19c.52-.12,1.05-.21,1.57-.29l.81-.1.43,0,.21,0c.12,0,.17,0,.15-.19s-.16.24,0,.25a.16.16,0,0,0,.16-.21c-.07-.19-.39-.09-.52-.07-.69.08-1.37.16-2,.28a10.33,10.33,0,0,0-3.86,1.38c-.14.09,0,.3.12.22Z"/>
    <path class="cls-1" d="M99.9,103.45c-2.75.57-5.55,1-8.32,1.43a39.48,39.48,0,0,1-8.6.81c-.16,0-.16.24,0,.25a37.84,37.84,0,0,0,8.42-.78c2.86-.47,5.73-.88,8.57-1.47.15,0,.09-.27-.07-.24Z"/>
    <path class="cls-1" d="M96.51,102.34q-7.08.72-14.17,1.25c-.16,0-.16.26,0,.25q7.09-.53,14.17-1.25c.16,0,.16-.26,0-.25Z"/>
    <path class="cls-1" d="M82.89,105.69a61.51,61.51,0,0,1-1-6.73A55,55,0,0,1,82,92.8c.15-4.35-.17-8.73-.34-13.07a.13.13,0,0,0-.25,0c.17,4.42.5,8.88.33,13.31a48.82,48.82,0,0,0-.07,6.4c.21,2.13.61,4.22,1,6.31,0,.16.27.09.24-.06Z"/>
    <path class="cls-1" d="M78.89,105.88c-.42,0-.84.07-1.26.14l.14.18a.4.4,0,0,1,.15-.19.13.13,0,0,0,0-.17.14.14,0,0,0-.18,0,.62.62,0,0,0-.23.28.13.13,0,0,0,.14.19,11.7,11.7,0,0,1,1.19-.13A.14.14,0,0,0,79,106a.12.12,0,0,0-.13-.12Z"/>
    <path class="cls-1" d="M79.07,105.88a47.86,47.86,0,0,0,.25-6.22c0-.16-.26-.16-.25,0a47.86,47.86,0,0,1-.25,6.22c0,.16.23.16.25,0Z"/>
    <path class="cls-1" d="M135.57,83a18.28,18.28,0,0,0-4.7-1.61,20.08,20.08,0,0,0-5.08,0c-3.62.32-7.22.78-10.83,1.17-.16,0-.16.27,0,.25,3.45-.38,6.9-.79,10.35-1.13a23.4,23.4,0,0,1,4.95-.08,17.24,17.24,0,0,1,5.18,1.66c.15.06.28-.15.13-.22Z"/>
    <path class="cls-1" d="M136,81.71a10.89,10.89,0,0,0-3-.93c-.15,0-.22.2-.06.24l.13,0a.13.13,0,0,0,.07-.24l-.14,0-.06.24a10.77,10.77,0,0,1,2.94.9c.14.07.27-.14.12-.21Z"/>
    <path class="cls-1" d="M135.73,80.73a.33.33,0,0,0,.17,0c.13,0,.12-.25,0-.24s-.57.07-.85.08a3,3,0,0,1-.8,0,1.59,1.59,0,0,0-.65.06,1.91,1.91,0,0,0-.36.07.68.68,0,0,1-.27.07c-.16,0-.16.23,0,.25a.58.58,0,0,0,.26-.06,2.21,2.21,0,0,1,.35-.08,2.84,2.84,0,0,0,.31-.06.77.77,0,0,1,.37,0,1.85,1.85,0,0,0,.41,0H135c.28,0,.56-.08.85-.08l0-.25h0c-.16,0-.23.21-.07.24Z"/>
    <path class="cls-1" d="M135.67,79.4a13.55,13.55,0,0,1-2.28.37c-.37,0-.74,0-1.11,0a5.23,5.23,0,0,0-1.12,0c-.15,0-.09.27.07.24a6.54,6.54,0,0,1,1.17,0,11.24,11.24,0,0,0,1.16,0,13.58,13.58,0,0,0,2.18-.36.13.13,0,0,0-.07-.24Z"/>
    <path class="cls-1" d="M136,79.38l.19-4.62a25.84,25.84,0,0,1,.4-4.65c0-.15-.21-.22-.24-.06a24.46,24.46,0,0,0-.4,4.53l-.2,4.8c0,.16.24.16.25,0Z"/>
    <path class="cls-1" d="M136.24,69.89a16.68,16.68,0,0,1-2.64-.13A10.61,10.61,0,0,0,131,70c-.15,0-.09.27.07.24A10.34,10.34,0,0,1,133.7,70a15.5,15.5,0,0,0,2.54.13c.16,0,.16-.27,0-.25Z"/>
    <path class="cls-1" d="M130.8,70.13c.13,3.23.2,6.47.19,9.71a.13.13,0,0,0,.25,0c0-3.24-.06-6.48-.19-9.71,0-.16-.26-.16-.25,0Z"/>
    <path class="cls-1" d="M137.06,79.54a46.24,46.24,0,0,1,.21-7.06c0-.16-.23-.16-.25,0a46.24,46.24,0,0,0-.21,7.06c0,.16.26.16.25,0Z"/>
    <path class="cls-1" d="M140.47,73.58h.16a.12.12,0,0,0,.06-.23,7.33,7.33,0,0,0-1.83-.82,6.48,6.48,0,0,0-1-.22,4,4,0,0,0-.5-.06c-.12,0-.25-.05-.36,0a.13.13,0,0,0,0,.12.15.15,0,0,0,.11.11.12.12,0,0,0,.14-.06h0c.09-.13-.13-.26-.22-.12h0l.14-.06h0l.09.09h0l0,.12,0,0-.09,0a4.15,4.15,0,0,1,.93.11q.42.09.84.21a7.33,7.33,0,0,1,1.66.76l.06-.23h-.16a.13.13,0,0,0,0,.25Z"/>
    <path class="cls-1" d="M140.58,72.72l.39.13c.13,0,.22-.17.1-.23a12.51,12.51,0,0,0-3.52-1.14c-.15,0-.22.21-.06.24a12.32,12.32,0,0,1,3.45,1.11l.1-.22-.39-.13c-.16,0-.22.19-.07.24Z"/>
    <path class="cls-1" d="M129.94,79.69c.39-3.18-.24-6.37,0-9.56,0-.16-.24-.16-.25,0-.23,3.19.4,6.38,0,9.56,0,.16.23.16.25,0Z"/>
    <path class="cls-1" d="M129.77,70.41l0,0a.17.17,0,0,0,0-.1.11.11,0,0,0-.06-.07.1.1,0,0,0-.09,0,.16.16,0,0,0-.08.06l0,.05a.1.1,0,0,0,0,.09.16.16,0,0,0,.06.08.17.17,0,0,0,.1,0,.11.11,0,0,0,.07-.06Z"/>
    <path class="cls-1" d="M129.93,70.16a46.11,46.11,0,0,1-.05-7.15c0-.16-.24-.16-.25,0a46.11,46.11,0,0,0,.05,7.15c0,.16.26.17.25,0Z"/>
    <path class="cls-1" d="M129.55,63l-4,.39A12.47,12.47,0,0,0,122,64c-.14.06-.08.3.07.24a12.6,12.6,0,0,1,3.65-.68l3.85-.38c.16,0,.16-.26,0-.25Z"/>
    <path class="cls-1" d="M129.68,79.67q-7.44.45-14.84,1.45c-.15,0-.16.27,0,.25q7.39-1,14.84-1.45c.16,0,.16-.26,0-.25Z"/>
    <path class="cls-1" d="M113.35,81.28c-3.21.25-6.42.43-9.64.56a.13.13,0,0,0,0,.25c3.22-.13,6.43-.31,9.64-.56.16,0,.16-.26,0-.25Z"/>
    <path class="cls-1" d="M103.89,82c-.56-4.4-.68-8.85-.93-13.27l-.76-13.36a.13.13,0,0,0-.25,0l.76,13.36c.25,4.42.37,8.87.93,13.27,0,.16.27.16.25,0Z"/>
    <path class="cls-1" d="M103.11,81.92a.83.83,0,0,0-.54,0l-.7.13-1.39.27c-.15,0-.09.27.07.24l1.24-.24.61-.11a.92.92,0,0,1,.59,0c.14.06.27-.15.12-.22Z"/>
    <path class="cls-1" d="M103.21,82c-.49-4.41-.76-8.83-1-13.27a26,26,0,0,0-.41-3,27.45,27.45,0,0,1-.25-3.38l-.26-6.78c0-.16-.26-.16-.25,0l.26,6.65c0,1,0,2.07.18,3.09s.43,2.29.48,3.47c.21,4.44.48,8.86,1,13.27,0,.16.26.16.25,0Z"/>
    <path class="cls-1" d="M100,103.43c-.41-7,.7-14.08.22-21.12,0-.16-.26-.16-.25,0,.48,7-.63,14.08-.22,21.12,0,.16.26.16.25,0Z"/>
    <path class="cls-1" d="M96.71,102.58q.33-18.17.53-36.33l.12-10.2a.13.13,0,0,0-.25,0q-.21,18.11-.48,36.22-.07,5.16-.17,10.31a.13.13,0,0,0,.25,0Z"/>
    <path class="cls-1" d="M101.17,55.33a17.31,17.31,0,0,0-3,.55c-1,.12-2.06.17-3.08.27s-2,.23-3,.37l-1.7.26-.72.12c-.18,0-.84.25-1,.15l0,.18,0,0-.17,0h0c.15.06.28-.15.13-.22h0a.14.14,0,0,0-.17,0l0,.05a.13.13,0,0,0,0,.17c.19.12.48,0,.69-.05L91,56.94c1.24-.19,2.49-.36,3.73-.5s2.23-.19,3.34-.3a21.06,21.06,0,0,1,3.12-.56c.16,0,.16-.24,0-.25Z"/>
    <path class="cls-1" d="M106.81,53.7,89.6,55.32c-.16,0-.16.26,0,.25L106.81,54c.16,0,.16-.27,0-.25Z"/>
    <path class="cls-1" d="M109.94,54.9a35.8,35.8,0,0,0-7.81.29c-.15,0-.09.26.07.24a36.41,36.41,0,0,1,7.74-.28c.16,0,.16-.24,0-.25Z"/>
    <path class="cls-1" d="M106.24,42.34a13.85,13.85,0,0,1,.37,2.95c.08,1,.15,1.91.23,2.86a21.68,21.68,0,0,1-.07,5.69c0,.15.21.22.24.06a22.13,22.13,0,0,0,.08-5.75c-.09-1-.17-2.06-.25-3.09a13,13,0,0,0-.36-2.78.12.12,0,0,0-.24.06Z"/>
    <path class="cls-1" d="M108.17,53.52a8.26,8.26,0,0,1-.2-2.76c0-1,0-2-.11-2.95-.12-2-.3-3.93-.3-5.9a.13.13,0,0,0-.25,0c0,2.05.2,4.09.32,6.13.06,1,.1,2,.08,3a7.76,7.76,0,0,0,.22,2.59c0,.16.29.09.24-.06Z"/>
    <path class="cls-1" d="M118.79,39.92a79.23,79.23,0,0,0-2.89,12.82c0,.16.23.16.25,0A79.69,79.69,0,0,1,119,40c0-.15-.19-.22-.24-.07Z"/>
    <path class="cls-1" d="M115.91,52.57a77.68,77.68,0,0,1-7.89.87c-.16,0-.16.26,0,.25a78.55,78.55,0,0,0,8-.88c.16,0,.1-.27-.06-.24Z"/>
    <path class="cls-1" d="M128.08,52.06c-3.73,0-7.47.59-11.18,1-.16,0-.16.27,0,.25,3.71-.38,7.45-.94,11.18-1,.16,0,.16-.26,0-.25Z"/>
    <path class="cls-1" d="M117,53.08c.76-2.14.71-4.45,1.3-6.63a31.45,31.45,0,0,0,.87-3.2A15.12,15.12,0,0,1,120,40c.06-.15-.18-.22-.24-.07a15.36,15.36,0,0,0-.86,3.26,32.17,32.17,0,0,1-.87,3.2c-.59,2.18-.54,4.48-1.3,6.62,0,.16.19.22.24.07Z"/>
    <path class="cls-1" d="M129.42,53.24a61.16,61.16,0,0,0-10.12.46c-3.36.43-6.71.93-10.1,1.11-.16,0-.16.26,0,.25,3.39-.18,6.74-.68,10.1-1.11a61.16,61.16,0,0,1,10.12-.46c.16,0,.16-.24,0-.25Z"/>
    <path class="cls-1" d="M131.16,42.47a2.59,2.59,0,0,0-.61.82,10.62,10.62,0,0,1-.6,1,15.4,15.4,0,0,1-1.45,2c-.1.12.07.3.18.17a16.25,16.25,0,0,0,1.42-1.88c.21-.32.41-.65.59-1a3,3,0,0,1,.64-.93c.13-.1-.05-.27-.17-.17Z"/>
    <path class="cls-1" d="M130,42.07a30,30,0,0,0-1.58,2.6l.21.12,0-.08c.07-.14-.15-.27-.22-.13l0,.09c-.07.14.14.27.21.12.49-.89,1-1.76,1.59-2.6.09-.13-.13-.26-.22-.12Z"/>
    <path class="cls-1" d="M128.59,44.81a10.06,10.06,0,0,0-1.11-2c-.23-.34-.47-.68-.7-1l-.36-.52-.18-.26-.13-.19-.12.1,0,0v-.18h0c-.1.13.07.31.18.18h0a.14.14,0,0,0-.13-.23.12.12,0,0,0-.12.09c0,.15.07.25.16.38l.38.55.73,1.07a11,11,0,0,1,1.21,2.1c.06.15.3.08.24-.07Z"/>
    <path class="cls-1" d="M139.34,51.26a26,26,0,0,1-5.07.5c-.82,0-1.65,0-2.48.09q-.57,0-1.14.09a3.33,3.33,0,0,1-1.29.08c-.16-.05-.22.19-.07.24a2.31,2.31,0,0,0,1,0c.45-.06.89-.1,1.33-.13.89-.06,1.78-.08,2.67-.1a26.82,26.82,0,0,0,5.14-.51c.16,0,.09-.28-.07-.24Z"/>
    <path class="cls-1" d="M129.5,52.18a33.61,33.61,0,0,0-.75-6c0-.11-.22-.12-.24,0l0,.12c0,.16.22.23.24.07l0-.12h-.24a33.75,33.75,0,0,1,.74,5.92.13.13,0,0,0,.25,0Z"/>
    <path class="cls-1" d="M128.2,52.13q-.24-3.12-.5-6.24c0-.16-.26-.16-.25,0q.26,3.12.5,6.24c0,.16.26.16.25,0Z"/>
    <path class="cls-1" d="M127.79,45.78c-1.06-1.78-2.17-3.54-3.32-5.26-.09-.13-.31,0-.22.12,1.15,1.73,2.26,3.48,3.32,5.27.08.13.3,0,.22-.13Z"/>
    <path class="cls-1" d="M138.38,52.91c-.1-.15-.21-.16-.39-.16-.36,0-.72,0-1.08,0-.67,0-1.34,0-2,.1-1.35.09-2.7.24-4,.43-.16,0-.09.26.07.24,1.22-.18,2.45-.31,3.68-.4l1.73-.1.86,0c.13,0,.88-.1,1,0s.31,0,.22-.13Z"/>
    <path class="cls-1" d="M138.36,53c-.36,2.39-.84,4.78-1,7.19s-.43,5.06-.4,7.59c0,.16.26.16.25,0,0-2.45.19-4.9.38-7.35s.69-4.91,1-7.36c0-.16-.21-.23-.24-.07Z"/>
    <path class="cls-1" d="M141.92,63.14h0l-.15,0V63s-.12,0-.14,0h-.22l-.37,0-.79.06-.75,0a5.11,5.11,0,0,1-.78.05l.09,0,0,0,0,.12h0l-.09.08h0l-.15-.06h0c.07.15.29,0,.22-.12h0a.13.13,0,0,0-.14-.06.14.14,0,0,0-.11.11.11.11,0,0,0,0,.12c.1.08.21.05.33,0l.44,0,.9-.06.91-.06.44,0c.1,0,.23,0,.31-.07a.12.12,0,0,0,0-.18h0a.12.12,0,0,0-.15,0h0c-.13.1,0,.31.13.22Z"/>
    <path class="cls-1" d="M141.75,61.9a.23.23,0,0,0,.14,0,.13.13,0,0,0,0-.23,1.19,1.19,0,0,0-.65,0l-.36.08-.44.06-.43.08-.38,0c-.29,0-.57.06-.86.08l.12.16s0,0,0,0,0-.29-.13-.21a.23.23,0,0,0-.15.17c0,.07,0,.17.12.16l.8-.08a4.53,4.53,0,0,0,.74-.07c.25,0,.5-.07.74-.12s.26-.06.39-.07h.32l0-.22h0c-.15,0-.22.19-.07.24Z"/>
    <path class="cls-1" d="M138.86,62.14q.51-4.87,1.08-9.73c0-.16-.23-.15-.25,0q-.57,4.86-1.08,9.73c0,.16.24.16.25,0Z"/>
    <path class="cls-1" d="M141.7,68.76a10.23,10.23,0,0,0-2.2-1q-.28-.09-.57-.15c-.13,0-.32-.1-.44,0-.27.13.06.46.19.23a.11.11,0,0,0,0-.13h0c-.1-.13-.31,0-.22.12v-.11h0l.08-.06.06,0,0,.09c0,.06,0,.08,0,.08l.11,0,.16,0,.39.1c.26.07.52.16.77.25a9.6,9.6,0,0,1,1.48.71.13.13,0,0,0,.12-.22Z"/>
    <path class="cls-1" d="M138.35,67.68a13.67,13.67,0,0,1-.84,4c-.06.15.18.22.24.07a14.13,14.13,0,0,0,.85-4.11c0-.16-.24-.16-.25,0Z"/>
    <path class="cls-1" d="M141.66,67.63,140,67.24a7.77,7.77,0,0,1-1.58-.47c-.15-.07-.27.14-.13.21a8.76,8.76,0,0,0,1.58.49l1.75.4c.16,0,.22-.21.07-.24Z"/>
    <path class="cls-1" d="M138.56,66.86l.16-3.56-.19.1.15.09c.14.08.27-.14.13-.22l-.15-.08a.12.12,0,0,0-.19.11l-.16,3.56a.13.13,0,0,0,.25,0Z"/>
    <path class="cls-1" d="M137.09,67.57a6.81,6.81,0,0,0-.2,1.56c0,.16.24.16.25,0a6.85,6.85,0,0,1,.19-1.5c0-.15-.21-.22-.24-.06Z"/>
    <path class="cls-1" d="M137,69a5.08,5.08,0,0,1-1.6-.13c-.46-.07-.93-.12-1.4-.15a17.44,17.44,0,0,0-3,.08c-.16,0-.16.27,0,.25a16,16,0,0,1,3.09-.07c.53,0,1,.1,1.57.18a4,4,0,0,0,1.38.08c.16,0,.09-.27-.06-.24Z"/>
    <path class="cls-1" d="M131.18,69c.09-2.57.07-5.13-.06-7.7-.06-1.26-.15-2.52-.26-3.77a15.3,15.3,0,0,1,0-4c0-.15-.21-.22-.24-.06-.43,2.48.11,5.09.24,7.59s.16,5.29.07,7.94a.13.13,0,0,0,.25,0Z"/>
    <path class="cls-1" d="M129.27,53.4c-.14,2.94.83,5.82.51,8.76,0,.16.23.16.25,0,.32-2.94-.65-5.82-.51-8.76a.13.13,0,0,0-.25,0Z"/>
    <path class="cls-1" d="M129.86,61.85a44.43,44.43,0,0,0-7.27.8,13.41,13.41,0,0,1-3.63.25,13.38,13.38,0,0,0-3.63.13c-.16,0-.09.27.07.24a14.22,14.22,0,0,1,3.8-.1,12.51,12.51,0,0,0,3.23-.24,46.43,46.43,0,0,1,7.43-.83c.16,0,.16-.26,0-.25Z"/>
    <path class="cls-1" d="M121.06,64a15.71,15.71,0,0,0-3-.05c-.46,0-.92.09-1.38.17-.23,0-.81,0-.78.4,0,.16.26.16.25,0s1.12-.24,1.23-.25c.4,0,.81-.09,1.21-.1a15.53,15.53,0,0,1,2.46.08c.16,0,.16-.24,0-.25Z"/>
    <path class="cls-1" d="M121.92,64.26a44.39,44.39,0,0,0,.53,7.73c0,.16.27.09.24-.06a44.75,44.75,0,0,1-.52-7.67.13.13,0,0,0-.25,0Z"/>
    <path class="cls-1" d="M120.94,64.43c.06,1.4.11,2.81.17,4.21a15.47,15.47,0,0,0,.53,3.9c0,.16.29.09.24-.06a15.39,15.39,0,0,1-.52-4c-.06-1.35-.12-2.71-.17-4.06,0-.16-.26-.16-.25,0Z"/>
    <path class="cls-1" d="M122.71,71.92a6.54,6.54,0,0,0-1,.48c-.14.08,0,.3.13.22a5.74,5.74,0,0,1,1-.46.12.12,0,0,0,.09-.15.13.13,0,0,0-.15-.09Z"/>
    <path class="cls-1" d="M115.2,81.45h0l-.09-.12.06-.07h.1s0,0,0-.06a1.28,1.28,0,0,0,0-.19l0-.33,0-.62-.08-1.32,0-.62a1.06,1.06,0,0,0-.07-.47.18.18,0,0,0-.32.17c.08.14.3,0,.22-.12v.07l-.1,0v.08s0,.1,0,.14l0,.3,0,.62.08,1.21,0,.59a4.75,4.75,0,0,0,0,.54c0,.1.08.2.19.19a.16.16,0,0,0,.14-.17.13.13,0,0,0-.09-.13h0c-.15,0-.21.19-.06.24Z"/>
    <path class="cls-1" d="M114.84,77.73c-2,.13-4,.25-6,.43a.13.13,0,0,0-.12.16l0,.2c0,.16.28.09.24-.07l0-.2-.12.16c2-.18,4-.3,6-.43.16,0,.16-.26,0-.25Z"/>
    <path class="cls-1" d="M113.54,79.87l-.17-.93a.33.33,0,0,0-.08-.18.16.16,0,0,0-.22,0,.19.19,0,0,0,0,.19.14.14,0,0,0,.22,0,.13.13,0,1,0-.18-.18h0l0,0h.06l0,0s0,.09,0,.14h-.06l0,0h0a.21.21,0,0,0,0,.06l0,.12,0,.27.1.55a.14.14,0,0,0,.16.08.11.11,0,0,0,.08-.15Z"/>
    <path class="cls-1" d="M113.07,78.79l-4.33.32.12.09a2.69,2.69,0,0,1,0-.8c0-.15-.21-.22-.24-.06a3.22,3.22,0,0,0,0,.93.12.12,0,0,0,.12.09l4.33-.32c.16,0,.16-.26,0-.25Z"/>
    <path class="cls-1" d="M90.78,121.79c-2.53,6.91-5.59,13.61-8.52,20.35-.07.15.15.28.21.13,3-6.76,6-13.48,8.55-20.41,0-.15-.19-.22-.24-.07Z"/>
    <path class="cls-1" d="M82.32,142.13a39.9,39.9,0,0,0-6.24-2.56,30.57,30.57,0,0,1-6.4-2.63.12.12,0,0,0-.13.21,28.67,28.67,0,0,0,6,2.53,41.44,41.44,0,0,1,6.6,2.67c.14.07.27-.14.12-.22Z"/>
    <path class="cls-1" d="M69.47,137.14a113.31,113.31,0,0,0,4.39-10.64,40.75,40.75,0,0,1,2.07-5.24,18.8,18.8,0,0,0,1.93-4.66c0-.16-.2-.23-.24-.07a19.51,19.51,0,0,1-2,4.79,38.75,38.75,0,0,0-1.92,4.89A111.59,111.59,0,0,1,69.25,137c-.06.14.15.27.22.12Z"/>
    <path class="cls-1" d="M96.28,124.3a23.15,23.15,0,0,1,.4,6.38,28.66,28.66,0,0,1-.58,3.18,10.47,10.47,0,0,1-1,2.89c-.08.14.14.27.22.13a11.38,11.38,0,0,0,1-2.95c.22-1,.45-2,.57-3a23.06,23.06,0,0,0-.38-6.68c0-.16-.27-.09-.25.07Z"/>
    <path class="cls-1" d="M103.12,136.7q-3.06-.47-6.15-.8c-.16,0-.16.23,0,.25,2,.22,4.06.48,6.08.79.16,0,.23-.21.07-.24Z"/>
    <path class="cls-1" d="M103.31,135.32c-2.06-.27-4.11-.55-6.16-.86-.16,0-.23.22-.07.24,2.08.31,4.15.6,6.23.87.16,0,.16-.23,0-.25Z"/>
    <path class="cls-1" d="M97.19,134.81c1-3.33.87-6.71.57-10.14,0-.16-.26-.16-.25,0,.29,3.4.47,6.77-.56,10.07,0,.16.19.22.24.07Z"/>
    <path class="cls-1" d="M96.76,135.89a.81.81,0,0,1-.22.53l-.25.41c-.18.29-.35.59-.51.89-.32.6-.6,1.21-.87,1.83-.06.15.18.22.25.07a19.37,19.37,0,0,1,.93-2c.17-.3.34-.6.52-.89s.43-.56.4-.89c0-.16-.27-.16-.25,0Z"/>
    <path class="cls-1" d="M102.28,140.31q-1.78-.33-3.57-.6L97,139.48l-.83-.1-.41,0c-.11,0-.48,0-.56-.07l0,.15,0,0-.14-.05v0c.08.14.29,0,.22-.13v0a.13.13,0,0,0-.14-.06.16.16,0,0,0-.12.09.12.12,0,0,0,0,.15c.11.12.3.1.45.12l1,.11c.66.08,1.31.17,2,.27,1.26.18,2.52.39,3.77.62.16,0,.23-.21.07-.24Z"/>
    <path class="cls-1" d="M102.09,141.34q-3.81-.61-7.65-.93c-.16,0-.16.24,0,.25,2.54.21,5.07.51,7.58.92.16,0,.22-.21.07-.24Z"/>
    <path class="cls-1" d="M97.45,147c-2-.2-4.09-.46-6.12-.8l0,.23.16-.07c.14-.07,0-.29-.13-.22l-.15.07a.12.12,0,0,0,0,.23q3.08.51,6.18.81c.16,0,.16-.24,0-.25Z"/>
    <path class="cls-1" d="M96.08,148a10.75,10.75,0,0,1-2.5-.49,5.41,5.41,0,0,0-1.12-.22,8.21,8.21,0,0,1-1.31-.15c-.16,0-.23.21-.07.24a7.37,7.37,0,0,0,1.24.15,5.77,5.77,0,0,1,1.29.25,10.37,10.37,0,0,0,2.47.47c.16,0,.16-.24,0-.25Z"/>
    <path class="cls-1" d="M91,147.18A4.81,4.81,0,0,0,90.1,149c-.1.32-.17.66-.24,1l-.12.56c0,.13-.11.32,0,.44a.13.13,0,0,0,.14,0,.14.14,0,0,0,.11-.11.13.13,0,0,0-.06-.14h0c-.14-.07-.27.15-.12.21h0l-.06-.14h0l.08-.08h0l.14.06s0-.21,0-.24l.06-.28.09-.43c.07-.29.13-.59.22-.88a4.38,4.38,0,0,1,.79-1.64c.1-.12-.07-.3-.17-.18Z"/>
    <path class="cls-1" d="M89.41,147.41a4.79,4.79,0,0,0-.67,2c0,.36-.08.72-.1,1.08l0,.56c0,.15-.06.33,0,.45a.12.12,0,0,0,.16,0c.06,0,.07-.07.08-.14s0-.1-.09-.12h0c-.15-.06-.21.18-.06.24h0l-.09-.12v0l.06-.11h0l.15,0s0,0,0-.06v-.14l0-.3,0-.47c0-.33,0-.67.1-1a4.43,4.43,0,0,1,.63-1.84c.09-.14-.13-.26-.22-.13Z"/>
    <path class="cls-1" d="M89.44,147.27c-6.51-2.33-13.12-4.51-19.45-7.34-.14-.06-.27.15-.12.22,6.34,2.84,13,5,19.51,7.37.15,0,.21-.19.06-.25Z"/>
    <path class="cls-1" d="M80.5,146.61a6,6,0,0,0-.55,1.14l-.09.3a.58.58,0,0,0,0,.29c.07.24.43.06.3-.11a.13.13,0,0,0-.22.12h0l0-.06h0l0-.06.06,0,.07,0q0,.08,0,0v-.06l0-.1c0-.07.05-.14.07-.21a3.12,3.12,0,0,1,.15-.39,5.51,5.51,0,0,1,.4-.76.13.13,0,0,0-.22-.13Z"/>
    <path class="cls-1" d="M80.56,146.24,73,143.1c-.15-.07-.21.18-.07.24l7.55,3.14c.15.06.21-.18.07-.24Z"/>
    <path class="cls-1" d="M95,137.08l.2-.06c.09,0,.13-.18,0-.23a48.6,48.6,0,0,0-4.81-1.91.13.13,0,0,0-.14.19l.13.19c.09.13.31,0,.22-.13l-.13-.19-.14.18A47.18,47.18,0,0,1,95.08,137l0-.22-.2.06c-.15,0-.08.29.07.24Z"/>
    <path class="cls-1" d="M94.9,137.49a8.08,8.08,0,0,0-2.21-1l-2.55-.95.08.15s.16-.38.17-.38l0-.12v0c0,.16.21.23.24.07v0a.13.13,0,0,0,0-.12c-.3-.23-.53.26-.59.49a.13.13,0,0,0,.09.15l2.47.92a8.2,8.2,0,0,1,2.23,1c.13.1.25-.12.13-.21Z"/>
    <path class="cls-1" d="M94.56,137.49a34.45,34.45,0,0,1-2.26,4.4l.17,0a51.82,51.82,0,0,0-6.11-2.32c-.15-.05-.22.19-.07.24a49.5,49.5,0,0,1,6,2.29.14.14,0,0,0,.18,0,35.92,35.92,0,0,0,2.26-4.41c.06-.14-.15-.27-.22-.12Z"/>
    <path class="cls-1" d="M92.11,142.79h0l-.15,0,0,0-.07-.11v0l.09-.12s-.24-.14-.28-.16l-.34-.17c-.22-.11-.44-.2-.67-.29-.49-.21-1-.4-1.49-.59l-3.18-1.25.07.19.4-.71c.08-.14-.13-.27-.21-.13l-.4.71a.13.13,0,0,0,.07.19l3.3,1.28c.55.22,1.1.42,1.65.66.23.1.45.2.67.32s.3.23.48.19a.12.12,0,0,0,.09-.12c0-.08,0-.11-.08-.16a.13.13,0,0,0-.15,0l0,0c-.12.1.06.28.18.17Z"/>
    <path class="cls-1" d="M91.79,142.7c-.72,1.14-1.4,2.32-2,3.51a.13.13,0,0,0,.17.18l.07,0c.15-.06,0-.28-.13-.21l-.06,0,.17.17c.63-1.2,1.31-2.37,2-3.52.08-.13-.13-.26-.22-.12Z"/>
    <path class="cls-1" d="M94.38,140.43a33.33,33.33,0,0,0-3.15,5.66c-.07.15.15.28.21.13a33,33,0,0,1,3.16-5.66c.09-.13-.13-.26-.22-.13Z"/>
    <path class="cls-1" d="M89.86,146.09q-5.53-1.8-10.94-3.92c-1.69-.66-3.36-1.36-5.09-1.88a21.44,21.44,0,0,1-5-1.84c-.14-.08-.26.14-.13.22a19.53,19.53,0,0,0,4.68,1.74c1.81.52,3.54,1.23,5.29,1.91q5.52,2.18,11.16,4c.15,0,.22-.19.07-.24Z"/>
    <path class="cls-1" d="M75.53,115.4c-2.08,7.25-5.25,14.11-8,21.12-.06.15.18.21.24.07,2.73-7,5.9-13.87,8-21.12a.13.13,0,0,0-.24-.07Z"/>
    <path class="cls-1" d="M76.79,116.14c-2.85,7.3-5.65,14.62-8.6,21.87-.06.15.18.22.24.07,3-7.26,5.75-14.58,8.6-21.87.06-.15-.18-.22-.24-.07Z"/>
    <path class="cls-2" d="M93.35,51c7.78-8.26,21.15-14.44,34.51-9.82a15.94,15.94,0,0,1,5.8,2.45,12.83,12.83,0,0,1,2.72,2.68c7.49,8.47,6.15,20.71,4.15,29.59C137.76,88.2,129,95.87,118.81,102.78a15,15,0,0,1-1.11,1c-1.78,1.49-2.39,1.53-4,3.12a20,20,0,0,0-3.17,4.2c-3.8,6.37-2.61,7.94-4.45,8.87-3.23,1.65-6.9-3.22-18.88-7.07-1.71-.55-3.33-1-4.78-1.41A6,6,0,0,1,80.6,111c-2.28-.71-3.83-1.41-4.08-2.48-.19-.78.42-1.31,1.11-2.18a.36.36,0,0,1,.05-.19l1.5-6.55c-.67-3.2.07-7.44,1.63-16.35,1-5.7,1.57-8.92,2.32-11.49A39.37,39.37,0,0,1,93.35,51Z"/>
    <path class="cls-2" d="M103,127.38a64.59,64.59,0,0,0-5.77-3c-2.55-1.19-4.56-1.92-6.7-2.7-5-1.8-4.77-1.37-7.23-2.39-5.64-2.36-6.86-4.66-8.71-4.17-1.32.35-1,1.62-3.14,6.62C70,125,69.77,124.8,68.8,127.41c-1.38,3.73-2.08,5.6-1.66,7.79.65,3.43,3.25,6,5.15,7.82,1.38,1.36,3.29,2.59,7.12,5.06,5.06,3.26,6.29,3.54,7.23,3.61,1.56.12,2.91-.45,5.59-1.58a19.61,19.61,0,0,0,5.84-3.24,12.9,12.9,0,0,0,4.21-6c.37-1.16,0-.8.64-3.56.74-3.48,1.31-4.36,1.14-6.28A10.23,10.23,0,0,0,103,127.38Z"/>
    <path class="cls-1" d="M115.17,63.29a4,4,0,0,0,.35,1.39.13.13,0,0,0,.14.06l.9-.21c.16,0,.09-.27-.07-.24l-.89.21.14.06a3.77,3.77,0,0,1-.32-1.27.13.13,0,0,0-.13-.13.12.12,0,0,0-.12.13Z"/>
    <path class="cls-1" d="M113.41,80.06c.2,0,.2-.26.06-.35a.18.18,0,0,0-.23,0,.34.34,0,0,0-.09.25c0,.22,0,.45,0,.68v.71a.13.13,0,0,0,.25,0V80s0,0,0-.07h0s0,0-.08,0a0,0,0,0,1,0,0l0,0h0a.13.13,0,0,0,0,.25Z"/>
    <path class="cls-1" d="M143.05,139.09l1.54,2.82c.07.14.29,0,.21-.13L143.26,139c-.07-.14-.29,0-.21.12Z"/>
  </g>
</svg>
