<svg id="original" xmlns="http://www.w3.org/2000/svg" width="900" height="1450" viewBox="0 0 900 1450">
  <defs>
    <style>
      .cls-1 {
        fill: #020202;
      }

      .cls-2 {
        fill: none;
        stroke: #1d1d1b;
        stroke-miterlimit: 10;
        stroke-width: 3px;
      }
    </style>
  </defs>
  <g>
    <path class="cls-1" d="M446.78,717.7q-8.16,12.66-16,25.53T415.5,768.92q-4.26,7.35-8.43,14.77c-.08.14.14.27.22.13q7.38-13.14,15.06-26.1t15.54-25.53q4.5-7.22,9.1-14.37c.09-.13-.13-.26-.21-.12Z"/>
    <path class="cls-1" d="M372.34,743.76a64.91,64.91,0,0,1,12.76,14.7,86.75,86.75,0,0,0,5.41,8.12,91.59,91.59,0,0,0,7.31,7.57l8.77,8.67c.11.11.29-.07.17-.18L399,775c-2.5-2.48-5.13-4.89-7.46-7.54a61.65,61.65,0,0,1-5.78-8.37,69.53,69.53,0,0,0-5.56-7.74,64.55,64.55,0,0,0-7.73-7.78c-.12-.1-.29.07-.17.18Z"/>
    <path class="cls-1" d="M373.67,744.21q7.9-10.47,15-21.47c4.74-7.31,9.24-14.78,13.38-22.44q1.76-3.25,3.41-6.55c.54-1.06,1.07-2.13,1.59-3.2.27-.58.55-1.15.82-1.72l.36-.76a2.11,2.11,0,0,1,.2-.43c.06-.15.07-.14,0,0s-.09.24-.3.19-.16.27,0,.25c.38-.05,1.1-.23.89-.77s-.61-.28-.78.07c-1,2.18-2.08,4.37-3.17,6.53q-3.22,6.39-6.8,12.58c-4.77,8.33-9.92,16.45-15.35,24.36q-4.62,6.71-9.53,13.21c-.09.12.12.25.22.12Z"/>
    <path class="cls-1" d="M408.75,686.19a35.54,35.54,0,0,1,7.33,5.22c2.48,2.14,4.94,4.29,7.42,6.44l14.84,12.92,8.39,7.3c.12.11.3-.07.18-.18q-15.07-13.11-30.15-26.23a38.05,38.05,0,0,0-7.89-5.69c-.14-.07-.27.15-.12.22Z"/>
    <path class="cls-1" d="M329,665.3c-1-.83,1.15-2,1.7-2.33.8-.5,1.59-1,2.37-1.55q2.31-1.57,4.47-3.35A64,64,0,0,0,345.7,650q2-2.41,3.84-5c.09-.13-.12-.25-.22-.12a64,64,0,0,1-17.82,17.3c-.67.43-4.17,2.13-2.72,3.34.12.1.3-.08.17-.18Z"/>
    <path class="cls-1" d="M349.64,645.22c12.75,8.78,24.75,18.58,36.79,28.3l5.18,4.19,2.43,2,1.3,1.05.56.45a2.44,2.44,0,0,1,.29.27c-.12.67-.17.85-.12.54.14-.08,0-.29-.13-.22-.58.3.51,1.13.73.37s-.8-1.3-1.24-1.66l-2.51-2L382.42,670c-6.8-5.49-13.61-11-20.59-16.23-4-3-8-5.91-12.07-8.72-.13-.1-.26.12-.12.21Z"/>
    <path class="cls-1" d="M396.62,681.26c-5,6.91-8.53,14.7-12.07,22.4-3.46,7.53-6.82,15.12-10.86,22.36a103.32,103.32,0,0,1-7.51,11.66c-.09.13.12.26.22.13a126.35,126.35,0,0,0,12.45-21.26c3.62-7.51,6.88-15.2,10.62-22.66a91.1,91.1,0,0,1,7.37-12.5c.09-.14-.12-.26-.22-.13Z"/>
    <path class="cls-1" d="M329.16,665.78l7.45,13.92c2.42,4.53,4.87,9,7,13.73s3.93,9.63,5.81,14.47a132,132,0,0,0,6,13.47,109.58,109.58,0,0,0,8.68,13.84c.09.13.31,0,.22-.13a114.1,114.1,0,0,1-14.15-25.9c-1.86-4.71-3.57-9.47-5.59-14.12s-4.44-9.24-6.85-13.76l-8.37-15.64a.13.13,0,0,0-.22.12Z"/>
    <path class="cls-1" d="M363,734.41a6.67,6.67,0,0,0,2.35,3.12c.13.09.25-.12.12-.22a6.45,6.45,0,0,1-2.23-3c-.06-.15-.3-.09-.24.07Z"/>
    <path class="cls-1" d="M276.4,709.16c-.19.25-.68.35-.79,0s.15-.42.33-.64c.36-.44.72-.87,1.09-1.3.72-.87,1.45-1.74,2.18-2.6,1.41-1.67,2.83-3.32,4.25-5q4.32-5,8.73-9.91c1.67-1.87,3.35-3.72,5-5.57.11-.11-.06-.29-.17-.17q-10.29,11.2-20.05,22.86l-1.32,1.58c-.21.26-.6.49-.45.83a.82.82,0,0,0,1.34.11c.1-.13-.08-.31-.18-.18Z"/>
    <path class="cls-1" d="M314.53,711.06q-7,19.61-14.83,38.89-2.25,5.53-4.58,11c-.06.14.16.27.22.12q8.12-19.25,15.38-38.83,2.05-5.56,4-11.16c.05-.15-.19-.22-.24-.07Z"/>
    <path class="cls-1" d="M323,723.49l-9.5,23.07-9.53,23.19-5.37,13c-.06.15.18.21.24.07l9.5-23.08,9.53-23.19,5.37-13c.06-.15-.18-.22-.24-.07Z"/>
    <path class="cls-1" d="M294.79,671.48C287.7,677.83,282.65,686,276.31,693a56.68,56.68,0,0,1-5.77,5.62c-.12.1.06.28.18.18,7.31-6.12,12.42-14.26,18.62-21.4a64,64,0,0,1,5.62-5.79c.12-.1,0-.28-.17-.17Z"/>
    <path class="cls-1" d="M245.89,630.12c4.46.29,8.17,3.08,11.6,5.69q5.81,4.44,11.5,9,11.22,9.06,21.95,18.68,3,2.67,5.9,5.38c.42.38.26.48-.07.89-.18.21-.36.43-.54.63-.39.45-.81.87-1.24,1.28a19.15,19.15,0,0,1-3,2.33.12.12,0,0,0,.13.21,19.65,19.65,0,0,0,5.4-5,.15.15,0,0,0,0-.16q-9.7-9-19.83-17.49t-20.38-16.31c-3.36-2.56-7-5.17-11.36-5.45-.16,0-.16.24,0,.25Z"/>
    <path class="cls-1" d="M241.16,626.87a45.18,45.18,0,0,1,8.54,4.07.12.12,0,0,0,.13-.21,45.66,45.66,0,0,0-8.61-4.11c-.15,0-.21.19-.06.25Z"/>
    <path class="cls-1" d="M225.7,575.07c7.07,3.18,13,8.23,19,13.11Q254.15,596,263.54,604T282.32,620q9.29,8.06,18.48,16.23t18.38,16.55l2.25,2c.11.11.29-.07.17-.18q-9.12-8.34-18.35-16.57T284.61,621.7q-9.33-8.12-18.76-16.11t-19-15.88c-5.89-4.87-11.74-10-18.55-13.63-.82-.43-1.66-.84-2.51-1.22-.14-.07-.27.15-.13.21Z"/>
    <path class="cls-1" d="M321.31,655.61a43.07,43.07,0,0,0,16.87-9.7,87.25,87.25,0,0,0,13.21-15.61c4.42-6.39,8.41-13.08,12.52-19.67l14.38-23.09,14.31-23,1.78-2.85a.13.13,0,0,0-.22-.13L380,584.35l-14.17,22.76c-4.24,6.8-8.38,13.68-12.81,20.36a102.11,102.11,0,0,1-12.77,16.16,45.74,45.74,0,0,1-16.59,11c-.79.28-1.59.54-2.39.77a.12.12,0,0,0,.06.24Z"/>
    <path class="cls-1" d="M401.12,569.05q-8.58,14-17.17,28c-5.58,9.11-11.16,18.22-17,27.18q-4.89,7.53-10,14.9c-.09.14.12.26.21.13,6.13-8.75,11.92-17.73,17.57-26.79s11.33-18.39,17-27.59l9.63-15.71c.08-.14-.13-.26-.22-.13Z"/>
    <path class="cls-1" d="M357.09,638.63c2.14,2.41,5,3.91,7.87,5.28a89.65,89.65,0,0,1,9.47,5.07c3.19,2,6.25,4.2,9.33,6.37l9.78,6.89,39.13,27.57,22,15.51c.13.09.25-.13.12-.22l-39.13-27.57-19.56-13.78c-6.33-4.46-12.59-9-19-13.33a81.16,81.16,0,0,0-10.64-6.08c-3.3-1.55-6.72-3.1-9.19-5.89-.11-.12-.29.06-.18.18Z"/>
    <path class="cls-1" d="M455.42,706.29q8.64-13.77,16.59-28t15.16-28.75q4.06-8.18,7.89-16.47c.07-.15-.15-.28-.21-.13q-6.83,14.76-14.36,29.16T464.7,690.55q-4.63,7.88-9.49,15.61c-.09.14.13.26.21.13Z"/>
    <path class="cls-1" d="M402.14,569q18.44,11.9,36.45,24.39T474.08,619q10,7.42,19.77,15c.12.1.3-.08.17-.18q-17.28-13.41-35-26.24t-36.06-25.16q-10.28-6.9-20.67-13.61c-.14-.09-.26.13-.13.21Z"/>
    <path class="cls-1" d="M298.38,683.52a151.87,151.87,0,0,0,13,20.34c1.34,1.76,2.72,3.5,4.13,5.2.1.13.28,0,.18-.17a151.36,151.36,0,0,1-13.81-19.63c-1.15-1.93-2.24-3.89-3.3-5.86-.07-.15-.29,0-.21.12Z"/>
    <path class="cls-1" d="M324.61,724.44q10.42,12.9,20.16,26.32,9.62,13.25,18.55,27,5.07,7.78,9.92,15.72a.13.13,0,0,0,.22-.12q-8.62-14.12-18-27.76t-19.36-26.81q-5.56-7.32-11.35-14.48c-.1-.12-.28.06-.18.18Z"/>
    <path class="cls-1" d="M373,792.14q-6.33,11.31-11.55,23.19-5.13,11.71-9.13,23.9-2.26,6.94-4.16,14a.13.13,0,0,0,.24.07q3.31-12.4,7.83-24.45t10.24-23.75q3.19-6.51,6.74-12.84c.08-.14-.13-.27-.21-.13Z"/>
    <path class="cls-1" d="M295.43,859.86A206,206,0,0,0,316,857.73c6.86-1,13.72-2,20.58-3L348.37,853c.16,0,.09-.27-.07-.25l-20.63,3c-6.9,1-13.8,2.1-20.73,2.9-3.82.44-7.66.78-11.51.94-.16,0-.16.26,0,.25Z"/>
    <path class="cls-1" d="M292.73,880q15.63-4,31.56-6.58t32.24-3.66q9.08-.6,18.17-.73c.16,0,.16-.26,0-.25q-16.24.24-32.42,2-16,1.72-31.77,4.91-9,1.8-17.84,4.09a.12.12,0,0,0,.06.24Z"/>
    <path class="cls-1" d="M375.61,869.4a112,112,0,0,1-8.48,15.5c-3.33,5.09-7.08,9.89-10.8,14.7l-6.53,8.46c-.1.13.12.25.22.13,3.79-4.92,7.63-9.81,11.37-14.78a134.19,134.19,0,0,0,9.94-14.95q2.44-4.37,4.5-8.94c.07-.14-.15-.27-.22-.12Z"/>
    <path class="cls-1" d="M385.88,867.63c-1.31,5.57-4,10.68-6.84,15.59-3.1,5.28-6.33,10.48-9.51,15.72L364,908c-.09.14.13.26.21.13l9.84-16.21c3.06-5,6.29-10,8.83-15.34a44.56,44.56,0,0,0,3.22-8.89c0-.15-.21-.22-.25-.06Z"/>
    <path class="cls-1" d="M386.56,868.52a386.79,386.79,0,0,1,42.21-5.79q6-.48,12-.78c.16,0,.16-.26,0-.25a387.22,387.22,0,0,0-42.43,4.47q-5.93,1-11.83,2.11c-.15,0-.09.27.07.24Z"/>
    <path class="cls-1" d="M440.7,861.65q18.17,14.15,36.81,27.64t37.93,26.43Q526.28,923,537.28,930c.13.09.26-.13.12-.22q-19.46-12.48-38.46-25.65T461.61,877.3q-10.44-7.8-20.73-15.82c-.12-.1-.3.08-.18.17Z"/>
    <path class="cls-1" d="M536.84,929.09,538,939c0,.16.26.16.25,0l-1.16-9.93c0-.16-.26-.16-.25,0Z"/>
    <path class="cls-1" d="M417.83,879.05a227,227,0,0,1-5.69,24.86c-.32,1.12-.65,2.24-1,3.35-.18.57-.35,1.15-.53,1.72-.07.22-.49,2-.89,1.72.13.09.26-.12.13-.22-.3-.21-.52.25-.38.49.27.49.77-.13.89-.4A33.27,33.27,0,0,0,411.5,907c.38-1.27.75-2.54,1.12-3.81q2.14-7.59,3.78-15.3c.62-2.91,1.17-5.82,1.67-8.75,0-.16-.21-.23-.24-.07Z"/>
    <path class="cls-1" d="M417.56,881c2.35-2.81,6-3.64,9.48-3.52a40.61,40.61,0,0,1,11,2.4,196.43,196.43,0,0,1,23.45,9.29,200.84,200.84,0,0,1,21.85,12A198.15,198.15,0,0,1,503.76,916a195.88,195.88,0,0,1,18.15,17.13c.7.75,1.4,1.51,2.09,2.28.11.12.28-.06.18-.18a198.27,198.27,0,0,0-38.51-32.91,200.54,200.54,0,0,0-22.16-12.55,197.41,197.41,0,0,0-23.41-9.56,55,55,0,0,0-11.19-2.92c-3.29-.38-6.94-.18-9.74,1.79a9.1,9.1,0,0,0-1.79,1.66c-.1.12.07.3.18.18Z"/>
    <path class="cls-1" d="M379.29,801.34c-3.88,6.41-7.87,12.75-11.55,19.27-3.38,6-6.46,12.27-8.11,19a40.16,40.16,0,0,0-1.2,11.18c0,.16.26.17.25,0-.55-14,7.05-26.57,14.05-38.12l6.78-11.19c.08-.14-.14-.26-.22-.13Z"/>
    <path class="cls-1" d="M358.28,853.21Q382,850,405.37,845q6.6-1.39,13.16-2.92c.16,0,.09-.28-.06-.25q-23.3,5.42-46.92,9.15-6.66,1.05-13.34,2c-.15,0-.09.26.07.24Z"/>
    <path class="cls-1" d="M420.29,841.65A78.43,78.43,0,0,0,406,822.19a172.38,172.38,0,0,0-18.65-16c-1.85-1.42-3.72-2.82-5.59-4.21l-1.31-1c-.26-.19-.66-.53-1-.37a.41.41,0,0,0,.1.78c.16,0,.16-.24,0-.25.23,0,.31-.2.54-.13a1.31,1.31,0,0,1,.33.25l.5.36,1.23.92,2.22,1.66c1.55,1.17,3.11,2.35,4.65,3.55,3,2.31,5.93,4.68,8.8,7.15a106.84,106.84,0,0,1,15.65,16.24,69.36,69.36,0,0,1,6.68,10.64c.07.14.29,0,.21-.13Z"/>
    <path class="cls-1" d="M414.37,793.72c7.6,6.87,15.48,13.42,23.38,19.94L462,833.73c7.86,6.49,15.7,13,23.59,19.47,7.35,6,14.78,11.95,22.49,17.5a203.25,203.25,0,0,0,24.21,15.16q1.54.81,3.12,1.59c.14.07.27-.14.13-.22a190,190,0,0,1-24.38-14.66c-7.86-5.49-15.41-11.41-22.84-17.46-7.8-6.34-15.52-12.78-23.26-19.18l-24.31-20.08c-7.88-6.52-15.78-13-23.43-19.8l-2.81-2.51c-.11-.11-.29.07-.17.18Z"/>
    <path class="cls-1" d="M445.84,800.63Q455.91,808,466,815.22t20.24,14.48q10.1,7.18,20.22,14.3t20.4,14.26q10.21,7.1,20.47,14.15l2.54,1.74c.13.09.26-.13.13-.22q-10.26-7-20.49-14.13t-20.4-14.24q-10.14-7.12-20.23-14.29T468.63,816.8q-10.11-7.26-20.17-14.57L446,800.41c-.14-.09-.26.13-.13.22Z"/>
    <path class="cls-1" d="M537.66,887.69c9.6-11,19.2-21.91,28.15-33.39a254.71,254.71,0,0,0,23.89-35.93c3.66-6.81,6.84-13.86,10.4-20.72s7.3-13.6,11.18-20.27c7.79-13.37,16.09-26.42,24.39-39.47l25.74-40.53,3.24-5.09c.08-.13-.13-.26-.22-.12L638.68,732.7c-8.3,13.06-16.66,26.1-24.58,39.4-4,6.63-7.78,13.33-11.43,20.14s-7,13.74-10.41,20.64A237.44,237.44,0,0,1,569,849.68c-8.8,11.66-18.35,22.74-28,33.73l-3.6,4.1c-.1.12.07.3.18.18Z"/>
    <path class="cls-1" d="M566.24,907.37q4.57,3.09,8.87,6.55a.13.13,0,0,0,.22-.09,4.88,4.88,0,0,0-.46-2.76c-.07-.14-.29,0-.22.13a4.52,4.52,0,0,1,.43,2.63l.21-.08q-4.32-3.5-8.92-6.6c-.13-.09-.26.13-.13.22Z"/>
    <path class="cls-1" d="M566.59,906.15a407,407,0,0,1,19.75-38.7q3.07-5.31,6.33-10.53c.08-.13-.14-.26-.22-.12a405.45,405.45,0,0,0-20.92,38.08c-1.78,3.69-3.49,7.4-5.16,11.14-.06.15.15.28.22.13Z"/>
    <path class="cls-1" d="M231.3,472.46l-15,23.53-4.27,6.73c-.09.13.13.26.21.12l15-23.53,4.27-6.72a.12.12,0,0,0-.21-.13Z"/>
    <path class="cls-1" d="M231.44,475.15c12.31,1.25,24.71,2.54,36.57,6.28A137.08,137.08,0,0,1,298.64,496c9.66,6,18.82,12.7,27.94,19.45l31,22.89,31,22.93,3.87,2.86c.13.1.26-.12.13-.21l-31.26-23.12-31.13-23c-9.32-6.9-18.62-13.86-28.39-20.12a149,149,0,0,0-30-15.23c-11.53-4.12-23.62-5.81-35.74-7.08l-4.63-.47c-.16,0-.16.23,0,.25Z"/>
    <path class="cls-1" d="M215.57,438.91c.28-.46,4.11,1.78,4.57,2q2.09,1.11,4.1,2.31,4.09,2.43,7.95,5.24c.13.1.25-.12.12-.21a100.2,100.2,0,0,0-10.83-6.9c-.94-.51-1.88-1-2.84-1.5a21.19,21.19,0,0,0-2.71-1.32c-.26-.09-.82-.05-.73.37a.32.32,0,0,0,.58.11c.09-.14-.13-.26-.21-.12Z"/>
    <path class="cls-1" d="M231.3,447.6a148,148,0,0,0-16.08,27.9q-1.8,4.08-3.34,8.26c-.06.15.18.21.24.06a148.54,148.54,0,0,1,14.31-28.68q2.43-3.78,5.09-7.41c.09-.13-.12-.26-.22-.13Z"/>
    <path class="cls-1" d="M234.15,463.35a96.52,96.52,0,0,1,27.06,6.26l.06-.24L260.1,469a.12.12,0,0,0-.06.24l1.17.34c.16.05.21-.18.06-.24a96.51,96.51,0,0,0-27.12-6.27c-.16,0-.16.23,0,.25Z"/>
    <path class="cls-1" d="M233,462.9a47.33,47.33,0,0,1,7-9l-.21-.09-.06,1.23c0,.16.24.16.25,0l.06-1.23a.13.13,0,0,0-.22-.09,47.16,47.16,0,0,0-7,9.1.12.12,0,1,0,.21.12Z"/>
    <path class="cls-1" d="M240.76,454.41a1.22,1.22,0,0,1-.7-.48l-.17.18a44.57,44.57,0,0,1,4.47,3.28,36.47,36.47,0,0,0,4.95,3.07c.77.42,1.53.91,2.33,1.27a13.78,13.78,0,0,1,2.54,1,17.48,17.48,0,0,1,2,1.82c.67.65,1.45,1.16,2.17,1.75A13.31,13.31,0,0,1,260,468a3.85,3.85,0,0,0,1.44,1.25c.15.06.22-.18.07-.24a4.13,4.13,0,0,1-1.5-1.38,11.19,11.19,0,0,0-1.46-1.54c-.69-.57-1.44-1.06-2.09-1.67a22.26,22.26,0,0,0-1.89-1.74,4.94,4.94,0,0,0-2-.92,11.93,11.93,0,0,1-2.68-1.26,42.06,42.06,0,0,1-4.92-2.94c-1.69-1.21-3.21-2.65-5-3.69-.1-.06-.25.07-.17.17a1.4,1.4,0,0,0,.85.59.12.12,0,0,0,.06-.24Z"/>
    <path class="cls-1" d="M220.91,430,218.77,429a.13.13,0,0,0-.16.2,62.4,62.4,0,0,0,16.21,11.24c.14.07.27-.15.12-.22A62,62,0,0,1,218.79,429l-.15.2,2.14,1.07c.15.07.27-.14.13-.21Z"/>
    <path class="cls-1" d="M246,446.43a112.38,112.38,0,0,0,25.3,18.84,39.31,39.31,0,0,1,7.62,4.84c.12.11.3-.07.18-.18a33,33,0,0,0-6.34-4.16c-2.33-1.25-4.63-2.55-6.87-3.94a113,113,0,0,1-13-9.46q-3.47-2.92-6.68-6.11a.12.12,0,0,0-.18.17Z"/>
    <path class="cls-1" d="M246.39,444.75a.13.13,0,0,0,0-.25.13.13,0,0,0,0,.25Z"/>
    <path class="cls-1" d="M245.75,444.72l15.62-29.62,7.8-14.82c2.47-4.68,5-9.34,7.32-14.09a109.12,109.12,0,0,0,6.58-16.13.13.13,0,0,0-.25-.07c-3.06,10.08-8.16,19.35-13.05,28.62L254.28,428l-8.74,16.58c-.08.14.14.27.21.12Z"/>
    <path class="cls-1" d="M284.62,370.51c4.74,3.74,10.47,5.74,15.88,8.25a94.24,94.24,0,0,1,16,9.41,96.41,96.41,0,0,1,8.22,6.73c.12.11.3-.07.18-.18a96.76,96.76,0,0,0-14.57-11c-2.63-1.6-5.33-3.09-8.09-4.43s-5.62-2.52-8.43-3.79a42.52,42.52,0,0,1-9-5.18c-.13-.1-.3.08-.18.18Z"/>
    <path class="cls-1" d="M325.27,395.16q-9.13,14.29-18,28.74T289.71,453q-4.86,8.22-9.64,16.5a.12.12,0,0,0,.21.12q8.49-14.68,17.24-29.22t17.75-28.92q5.07-8.1,10.22-16.15c.09-.14-.13-.26-.22-.13Z"/>
    <path class="cls-1" d="M236.57,441.07q6.72-10.4,12.81-21.18t11.46-21.8q3.06-6.27,5.91-12.64c.07-.15-.15-.28-.21-.13q-5.06,11.3-10.78,22.28t-12,21.49q-3.6,6-7.38,11.85c-.09.14.13.26.21.13Z"/>
    <path class="cls-1" d="M236.6,377.91l-1.28-.71-.07.23a66.8,66.8,0,0,1,25,4.18c.61.23,7,2.72,6.82,3.2.07-.14-.15-.27-.22-.12s.28.48.46.26c.46-.55-1.32-1.15-1.56-1.27a66.19,66.19,0,0,0-6.92-2.85,67.23,67.23,0,0,0-14.89-3.31,68.11,68.11,0,0,0-8.69-.34.13.13,0,0,0-.06.24l1.28.71c.14.08.27-.14.13-.22Z"/>
    <path class="cls-1" d="M239.32,370.59l-3.59-.77,0,.24a111.64,111.64,0,0,1,25.11,4.58c2.33.71,4.62,1.5,6.9,2.35.15.06.21-.18.06-.24a112.31,112.31,0,0,0-24.82-6.23c-2.41-.31-4.82-.55-7.25-.71-.14,0-.17.22,0,.25l3.59.77c.16,0,.22-.21.07-.24Z"/>
    <path class="cls-1" d="M291,474.3A202.29,202.29,0,0,1,307,445c6-9.41,12.32-18.6,18.11-28.14,3.25-5.37,6.32-10.84,9-16.49.07-.14-.15-.27-.22-.12A263.63,263.63,0,0,1,317,429.13c-6.09,9.33-12.34,18.57-17.85,28.26a162.23,162.23,0,0,0-8.41,16.78c-.06.15.16.27.22.13Z"/>
    <path class="cls-1" d="M334.26,402.64v-.47a.13.13,0,0,0-.13-.13.13.13,0,0,0-.12.13v.47a.12.12,0,0,0,.12.12.12.12,0,0,0,.13-.12Z"/>
    <path class="cls-1" d="M334,400.64q7.18-10.25,13.75-20.91t12.41-21.6q3.33-6.24,6.46-12.59c.07-.15-.14-.28-.21-.13q-5.53,11.22-11.73,22.11t-13,21.27q-3.85,5.93-7.93,11.72c-.09.14.13.26.22.13Z"/>
    <path class="cls-1" d="M367.74,347l22.85,16.49,11.09,8c3.37,2.44,6.71,4.91,9.88,7.61a61.93,61.93,0,0,1,9.62,10c.09.13.31,0,.21-.12-4.9-6.56-11.35-11.69-17.91-16.49-7.49-5.48-15-10.87-22.57-16.3l-13-9.41c-.13-.09-.26.12-.13.22Z"/>
    <path class="cls-1" d="M291.38,475.74Q302.23,483,313,490.36t21.28,14.86q10.59,7.51,21.07,15.16t20.95,15.52q10.46,7.88,20.8,15.88l2.57,2c.13.09.31-.08.18-.18q-10.21-7.94-20.53-15.73T358.37,522.3q-10.56-7.74-21.24-15.34t-21.35-15q-10.72-7.41-21.56-14.67l-2.71-1.81c-.13-.09-.26.13-.13.22Z"/>
    <path class="cls-1" d="M410.46,561.76q13.91,9.63,28,19t28.15,18.5q8,5.16,16,10.24c.14.08.26-.13.13-.22q-14.29-9-28.42-18.32t-28-18.7q-7.86-5.34-15.66-10.75c-.14-.09-.26.13-.13.22Z"/>
    <path class="cls-1" d="M482,609.86c9.25-12,17.9-24.48,26.34-37.07,8.6-12.83,17.07-25.75,25.58-38.63l25.92-39.22,26-39.29,26-39.29,3.27-4.95c.09-.14-.13-.26-.21-.13l-26,39.29-26,39.29-25.92,39.23q-12.82,19.41-25.66,38.8c-8.4,12.62-16.95,25.15-26.05,37.28q-1.72,2.3-3.47,4.56c-.1.13.12.26.21.13Z"/>
    <path class="cls-1" d="M487.42,613c1.86.1,3.27,1.45,4.6,2.61l4.42,3.86,8.85,7.72c.13.11.3-.07.18-.17l-9.41-8.22c-1.55-1.34-3.09-2.71-4.65-4a6.89,6.89,0,0,0-4-2c-.16,0-.16.24,0,.25Z"/>
    <path class="cls-1" d="M487.4,612.66q13.75-18.57,27-37.53T540.11,537q6.32-9.66,12.49-19.42a152.32,152.32,0,0,1,13.56-18.66c2.47-2.85,5-5.65,7.35-8.59s4.32-5.78,6.3-8.79c4.33-6.56,8.47-13.25,12.69-19.88l25.7-40.4,3.16-5c.09-.14-.13-.26-.22-.13l-25.7,40.41-12.82,20.15c-2,3.14-4,6.27-6.17,9.3s-4.74,6.16-7.29,9.09-5,5.65-7.34,8.6-4.39,5.93-6.4,9c-4.2,6.43-8.25,12.95-12.42,19.39q-12.53,19.3-25.61,38.25T490.56,608l-3.38,4.57c-.09.13.12.26.22.13Z"/>
    <path class="cls-1" d="M415.8,793c6.77-10.18,13.13-20.62,19.21-31.22s11.91-21.36,17.63-32.17,11.39-21.78,17.11-32.67,11.46-21.63,17.47-32.29c6.15-10.91,12.52-21.72,19.45-32.16q1.31-2,2.64-3.93c.09-.13-.12-.26-.21-.13-7.1,10.4-13.6,21.19-19.84,32.12-6.07,10.63-11.88,21.4-17.6,32.22s-11.38,21.79-17.11,32.67S443.08,747,437.06,757.68s-12.29,21.13-19,31.37q-1.24,1.91-2.51,3.81c-.09.14.13.26.22.13Z"/>
    <path class="cls-1" d="M444.94,801.15q19.83-35.49,39.7-70.94t39.82-70.87q20-35.58,40.12-71.12,19.93-35.29,39.94-70.54L644.6,447l5-8.82c.08-.14-.14-.27-.22-.13l-40.18,70.82q-20,35.19-39.87,70.39-20.1,35.55-40.13,71.12-20,35.42-39.83,70.86t-39.72,70.93L444.73,801c-.08.14.13.27.21.13Z"/>
    <path class="cls-1" d="M621.6,415.93c6.29,2.91,10.64,8.49,15.5,13.2a68.44,68.44,0,0,0,8.81,7c3.32,2.29,6.64,4.6,9.93,6.94q10,7.1,19.74,14.52T695,472.88q4.75,3.87,9.44,7.81,2.32,1.95,4.63,3.92c.4.34,1.07,1.14,1.68.92a.41.41,0,0,0,.18-.66c-.16-.23-.38-.27-.55,0s.13.25.22.12c-.43.59-1.1-.3-1.44-.59l-1.09-.93-2.36-2c-1.45-1.22-2.91-2.45-4.38-3.66q-4.4-3.66-8.84-7.24-8.89-7.17-18-14.08t-18.61-13.66q-4.65-3.3-9.35-6.54a72.4,72.4,0,0,1-8.67-6.74c-5.12-4.86-9.57-10.76-16.12-13.8-.14-.06-.27.15-.13.22Z"/>
    <path class="cls-1" d="M585.36,377.84l24.54,17.57L634.48,413,659,430.54l24.6,17.61,24.6,17.6,3.07,2.19c.13.1.25-.12.12-.21l-24.6-17.61-24.6-17.6L637.67,415l-24.59-17.6-24.54-17.57-3.06-2.18c-.13-.1-.25.12-.12.21Z"/>
    <path class="cls-1" d="M555.76,373.09Q567.94,379,579.59,386t22.65,14.9q6.27,4.53,12.31,9.35c.13.1.31-.08.18-.18q-10.61-8.46-21.91-16t-23.28-14.12q-6.74-3.69-13.66-7.07c-.14-.07-.27.14-.12.22Z"/>
    <path class="cls-1" d="M686.44,370.53c-1.82-.6-3.2,1.29-4.16,2.52l-4.48,5.76c-2.91,3.72-5.93,7.38-8.7,11.21a15.83,15.83,0,0,0-2.82,5.73,37.22,37.22,0,0,0-.64,6.67q-.36,7.4-.61,14.81-.28,8.36-.43,16.7c0,.16.24.16.25,0q.25-14.15.89-28.28c.1-2.3.17-4.62.36-6.92a15.1,15.1,0,0,1,1.78-6.38,43.46,43.46,0,0,1,3.86-5.37l4.33-5.56,4.86-6.24c.76-1,1.49-2,2.29-2.91s1.87-1.92,3.15-1.5c.15.05.22-.19.07-.24Z"/>
    <path class="cls-1" d="M640.69,290.6c-4.87,4.42-8.47,10-12.19,15.36l-12.31,17.81c-7.73,11.17-15.79,22.21-22.53,34a117.8,117.8,0,0,0-9.21,19.91c-.05.15.19.22.24.07,4.3-12.46,11.18-23.8,18.5-34.69,7.8-11.6,15.88-23,23.83-34.54,4.25-6.14,8.27-12.71,13.84-17.76a.12.12,0,0,0-.17-.18Z"/>
    <path class="cls-1" d="M577.13,370.14c4.86-4,8-9.53,11-14.95q5-9,10.48-17.67c7.47-11.73,15.51-23.08,23.21-34.66,4.35-6.55,8.6-13.19,12.57-20,.08-.14-.14-.27-.22-.13-7,12-14.88,23.48-22.7,35s-15.59,23-22.35,35.17C585.73,359,582.45,365.44,577,370c-.12.1.06.28.18.18Z"/>
    <path class="cls-1" d="M554.16,215.91c-3.58,15.12-7.19,30.24-11.49,45.17q-6.25,21.75-14.25,43c-3,8-6.26,15.9-9.58,23.77-.06.15.18.22.24.07,5.91-14,11.44-28.18,16.3-42.6s9.09-29.06,12.84-43.83c2.15-8.47,4.17-17,6.18-25.47,0-.16-.2-.23-.24-.07Z"/>
    <path class="cls-1" d="M519.79,327.92q10.71,8.83,21.77,17.23t22.63,16.44q6.45,4.47,13,8.81c.14.09.26-.13.13-.22q-11.57-7.64-22.82-15.76T532.2,337.6Q526,332.74,520,327.74c-.12-.1-.3.07-.18.18Z"/>
    <path class="cls-1" d="M428.21,269.32c11,6.53,21.57,13.87,32,21.38,10.68,7.71,21.3,15.51,31.94,23.27l18.21,13.29c.13.09.26-.13.13-.22l-32.4-23.63c-10.45-7.62-20.84-15.34-31.51-22.64-6-4.07-12-8-18.2-11.66a.12.12,0,0,0-.13.21Z"/>
    <path class="cls-1" d="M511.26,326.48a116.89,116.89,0,0,1,6.42-21.66c2.73-7,5.8-13.94,8.54-21,1.38-3.53,2.67-7.08,3.79-10.7s2.08-7.59,2.88-11.44c.83-4,1.6-8.06,2.73-12s2.71-7.72,4.18-11.55a124,124,0,0,0,6.5-23.47c.17-1,.34-2,.49-3,0-.16-.22-.23-.24-.07a124.66,124.66,0,0,1-5.95,23.74c-1.38,3.85-3,7.61-4.33,11.49a97.73,97.73,0,0,0-3,11.81c-.81,3.94-1.6,7.88-2.69,11.75-1,3.64-2.25,7.22-3.57,10.76-2.66,7.11-5.74,14-8.56,21.09a133.19,133.19,0,0,0-6.89,21.41c-.19.93-.37,1.87-.54,2.81,0,.16.21.22.24.07Z"/>
    <path class="cls-1" d="M412.49,272.48C422.82,278,433,283.69,443,289.78s19.81,12.64,29.33,19.53c9.76,7.06,19.27,14.46,28.77,21.86,9.31,7.25,18.63,14.49,28.08,21.55s19.09,14,29,20.5q1.85,1.23,3.72,2.44c.13.09.26-.13.12-.21-10-6.48-19.65-13.33-29.2-20.38s-19.09-14.42-28.53-21.77S485.52,318.69,476,311.65,456.72,298,446.72,291.8s-20-12-30.24-17.47l-3.86-2.06c-.15-.08-.27.14-.13.21Z"/>
    <path class="cls-1" d="M447,180.5a19.19,19.19,0,0,1,.91,7.72c-.09,2.72-.16,5.45-.13,8.17A142.87,142.87,0,0,0,449,212.8q.58,4.56,1.46,9.06c0,.16.27.09.24-.06a146.3,146.3,0,0,1-2.5-33c.1-2.81.15-5.68-.9-8.34-.06-.15-.3-.09-.24.06Z"/>
    <path class="cls-1" d="M457.82,182.34a272.54,272.54,0,0,1,.5,27.27c0,.16.24.15.25,0l.07-.85c0-.16-.24-.16-.25,0l-.07.85h.25a272.54,272.54,0,0,0-.5-27.27c0-.16-.26-.16-.25,0Z"/>
    <path class="cls-1" d="M458.36,210.78a84.52,84.52,0,0,1,15.94-9.45c6-2.9,12-5.71,18-8.56l2.47-1.18c.3-.14,1.14-.42,1-.93s-.94-.14-.59.21c.11.11.29-.07.17-.18.32.31-.45.56-.62.64l-1,.47-2,1-3.92,1.87-8,3.78c-4.86,2.31-9.76,4.56-14.41,7.28a63.5,63.5,0,0,0-7.24,4.91c-.13.1.05.27.17.18Z"/>
    <path class="cls-1" d="M344.37,212.18c8.57,8.11,18.27,14.89,28.19,21.24s20.3,12.43,30.13,19.13c2.76,1.88,5.49,3.82,8.16,5.83,1.35,1,2.66,2.08,4,3.11a8,8,0,0,0,4,1.9c.16,0,.16-.24,0-.25a8.67,8.67,0,0,1-4.3-2.21c-1.09-.87-2.19-1.73-3.3-2.57q-3.5-2.64-7.09-5.12c-4.84-3.34-9.79-6.5-14.77-9.62-9.9-6.18-19.93-12.17-29.4-19A150.5,150.5,0,0,1,344.55,212c-.12-.11-.3.07-.18.18Z"/>
    <path class="cls-1" d="M418.39,263.44a294.82,294.82,0,0,1,24.78-33.9q3.79-4.47,7.75-8.79l-.21-.12-.39,1c-.06.15.18.22.24.07l.39-1c.05-.12-.12-.21-.2-.13a296.12,296.12,0,0,0-26,32.75c-2.25,3.28-4.43,6.62-6.55,10-.08.14.13.26.22.13Z"/>
    <path class="cls-1" d="M428.61,268.89q12.47-18,25-35.93l7.05-10.13c.09-.13-.13-.25-.22-.12q-12.5,18-25,35.92l-7,10.14c-.1.13.12.26.21.12Z"/>
    <path class="cls-1" d="M460,222.08q19-10.58,38.46-20.33,5.46-2.75,10.95-5.41c.15-.07,0-.29-.12-.22q-19.56,9.52-38.7,19.86-5.37,2.91-10.71,5.88c-.14.08,0,.3.12.22Z"/>
    <path class="cls-1" d="M345.91,229.51c.8-.81,2.23.35,2.95.78.91.55,1.82,1.09,2.73,1.65q2.78,1.68,5.52,3.4,5.44,3.41,10.8,7,10.77,7.13,21.14,14.84,6,4.41,11.77,9c.12.1.3-.07.17-.17q-10.51-8.31-21.47-16t-22.39-14.89q-3.19-2-6.42-3.95a34.78,34.78,0,0,0-3.11-1.84,1.57,1.57,0,0,0-1.87.07.12.12,0,0,0,.18.17Z"/>
    <path class="cls-1" d="M344,228.59q-4.86,12.21-9.62,24.47c-3.18,8.16-6.17,16.41-9.57,24.49s-7.31,15.77-11.1,23.59c-3.71,7.65-7.4,15.3-11.25,22.88s-7.87,15.09-12.2,22.42c-.53.89-1.06,1.78-1.6,2.67-.08.14.13.26.22.13,4.4-7.28,8.48-14.76,12.37-22.32s7.62-15.23,11.33-22.89c3.8-7.83,7.73-15.62,11.24-23.58s6.42-16,9.54-24.09Q338.13,244,343,231.77l1.23-3.12c.06-.15-.18-.21-.24-.06Z"/>
    <path class="cls-1" d="M272.92,291.14l0-.07a.13.13,0,0,0-.06-.14c-.29-.19-.51.1-.34.37s.64.48.92.67l1.54,1,6,4,11.93,8,1.64,1.11c.37.25.93.83,1.39.84s.46-.46.09-.54a.13.13,0,0,0-.14.06l0,.06c-.1.13.12.26.21.12-.15.22-5.39-3.45-5.91-3.8L284.38,299l-5.76-3.88-2.88-1.94-1.33-.89c-.21-.14-1.77-1-1.73-1.24,0,.16.21.23.24.07Z"/>
    <path class="cls-1" d="M278.94,281.59l-.45-.23-.09.22c.58,0,1.35.56,1.88.8a10.58,10.58,0,0,1,2.33,1.65c.73.63,1.4,1.32,2.15,1.93s1.27,1.22,2,1.75a18.16,18.16,0,0,1,2.17,1.64,18.07,18.07,0,0,0,1.94,1.64c1.49,1.1,3.14,2,4.63,3.1a29.82,29.82,0,0,0,2.52,1.82c.9.55,1.67,1.27,2.54,1.86a.12.12,0,0,0,.18-.07c.19-.49,0-.83-.28-1.26a.12.12,0,0,0-.21.12c.2.36.42.63.25,1.07l.18-.07c-.78-.53-1.47-1.19-2.26-1.7s-1.6-1.06-2.37-1.66c-1.5-1.16-3.17-2.08-4.72-3.18a17.85,17.85,0,0,1-2.22-1.85,14.67,14.67,0,0,0-2-1.51c-.83-.58-1.54-1.36-2.33-2s-1.46-1.37-2.23-2a9.94,9.94,0,0,0-2.31-1.55c-.54-.24-1.2-.79-1.82-.76a.13.13,0,0,0-.09.21.74.74,0,0,0,.63.3c.16,0,.16-.24,0-.25Z"/>
    <path class="cls-1" d="M301,298.3q7.05-15.62,14-31.26t13.77-31.23q3.85-8.82,7.68-17.64c.06-.14-.15-.27-.22-.12q-6.81,15.7-13.71,31.38t-13.85,31.2q-3.93,8.78-7.89,17.54c-.07.15.15.28.21.13Z"/>
    <path class="cls-1" d="M248.13,337.37a86.38,86.38,0,0,1,15.15,1.26c2.44.42,4.87.95,7.27,1.58,1.22.32,2.43.67,3.64,1.05.6.18,1.2.38,1.8.58a3.35,3.35,0,0,1,.86.34c.29.11.33.31.14.61-.11,0-.14-.06-.09-.11s.08-.28-.07-.24c-.78.22.88,1.23.63.1-.17-.77-1.48-1-2.08-1.17-1.2-.39-2.41-.75-3.62-1.09a86.58,86.58,0,0,0-14.89-2.76q-4.37-.42-8.74-.4a.13.13,0,0,0,0,.25Z"/>
    <path class="cls-1" d="M277.87,342.18a124.36,124.36,0,0,0-10.14,27.3q-1,4-1.67,8.09c0,.16.21.23.24.07a123.66,123.66,0,0,1,8.27-27.86c1.09-2.53,2.27-5,3.52-7.47.07-.14-.14-.27-.22-.13Z"/>
    <path class="cls-1" d="M253.28,328.74l15.07,4.68c4.72,1.46,9.47,3,14.42,3.42.16,0,.16-.24,0-.25-5-.47-9.81-2-14.59-3.49l-14.83-4.6c-.15,0-.22.2-.07.24Z"/>
    <path class="cls-1" d="M282.1,336.14l14.83-28.24a.13.13,0,0,0-.11-.19l-1.54,0c-.16,0-.16.24,0,.25l1.54,0-.11-.19L281.88,336c-.07.14.15.27.22.13Z"/>
    <path class="cls-1" d="M288.05,347.35A64.64,64.64,0,0,1,282.7,360c-.08.14.13.27.21.13a65.27,65.27,0,0,0,5.38-12.72c0-.16-.19-.22-.24-.07Z"/>
    <path class="cls-1" d="M283,359.77a25.75,25.75,0,0,0,8.44,4.62c3.37,1.27,6.73,2.55,10,4a146.38,146.38,0,0,1,19,10.14q5.12,3.24,9.95,6.89c.13.1.25-.12.12-.21a146.37,146.37,0,0,0-37-20.34c-3.63-1.35-7.39-2.65-10.3-5.29-.12-.11-.3.07-.18.18Z"/>
    <path class="cls-1" d="M329.43,386.14Q336,373.95,343,362t14.28-23.63q7.34-11.69,15.06-23.14c5.06-7.51,10.33-14.86,15.49-22.3,4.88-7,9.54-14.31,12.79-22.26.41-1,.8-2,1.16-3,.05-.15-.19-.22-.24-.07-2.94,8.22-7.47,15.72-12.35,22.91-5,7.37-10.26,14.58-15.27,21.95q-7.77,11.42-15.15,23.09T344.45,359q-7,11.91-13.6,24c-.55,1-1.09,2-1.64,3-.07.14.14.27.22.12Z"/>
    <path class="cls-1" d="M412.51,272.65c-4.68,9.15-10.74,17.49-17,25.62s-12.71,16.16-18.27,24.81a106.68,106.68,0,0,0-8.17,15.05c-.06.15.16.27.22.13,4.09-9.4,9.81-17.94,15.92-26.13s12.7-16.2,18.57-24.66a127.79,127.79,0,0,0,8.93-14.69c.07-.15-.14-.27-.22-.13Z"/>
    <path class="cls-1" d="M370.3,337.05q10.89,6.7,21.33,14.14t20.58,15.72q4.92,4,9.71,8.24c3.22,2.81,6.4,5.66,9.77,8.3A76.46,76.46,0,0,0,442,390.29c3.71,2,7.54,3.84,11.34,5.7a125.2,125.2,0,0,1,11.12,6,90.8,90.8,0,0,1,10.23,7.4c.81.68,1.6,1.37,2.39,2.08.12.11.3-.07.18-.18a95,95,0,0,0-20.62-13.94c-7.55-3.83-15.37-7.16-22.26-12.15-3.51-2.55-6.79-5.39-10.05-8.25s-6.45-5.63-9.74-8.37q-9.81-8.16-20.14-15.65t-21.3-14.38l-2.75-1.72c-.14-.08-.27.14-.13.22Z"/>
    <path class="cls-1" d="M428.63,393.38a143.77,143.77,0,0,1,30.56,18.44c1.27,1,2.52,2,3.76,3.08.62.53,1.24,1.05,1.84,1.59s1.71,1.65.94,2.47c-.11.12.07.3.18.18.76-.82,0-1.93-.64-2.56-1.1-1.06-2.32-2-3.5-3q-3.58-3-7.37-5.69a143.42,143.42,0,0,0-16-10c-3.15-1.69-6.37-3.26-9.63-4.72-.15-.06-.27.15-.13.22Z"/>
    <path class="cls-1" d="M480.29,413.79c-7.08-1.14-14.2,1.21-19.8,5.54A31.49,31.49,0,0,0,449,437.55c-1.71,8-.47,16.45,2.56,24a53.52,53.52,0,0,0,5.87,10.8,124.06,124.06,0,0,0,8.66,10.5c5.9,6.72,12.05,14.33,12.78,23.61a22.93,22.93,0,0,1,0,3.21c0,.16.24.16.25,0,.6-8.63-4.09-16.45-9.35-22.89-2.89-3.53-6-6.84-8.92-10.36a58.87,58.87,0,0,1-7.1-10.64,44.76,44.76,0,0,1-5.17-23.7A31.55,31.55,0,0,1,458,421.84c5.15-5,12.14-8.34,19.42-8.09a22.44,22.44,0,0,1,2.82.28c.16,0,.22-.22.07-.24Z"/>
    <path class="cls-1" d="M487.63,509.15c-2.53-9.63,3.24-18.7,9.1-25.81,2.88-3.5,5.9-6.88,8.61-10.52a62.87,62.87,0,0,0,6.88-11.39,36.93,36.93,0,0,0,3.29-12.27,33.11,33.11,0,0,0-1.3-11.84,32.74,32.74,0,0,0-14.08-18.6,33.71,33.71,0,0,0-23.25-4.4c-1,.18-2,.4-2.95.67a.13.13,0,0,0,.07.25,33.21,33.21,0,0,1,24,2.55,32.26,32.26,0,0,1,15.53,18.13,33,33,0,0,1,1.84,11.89,35.37,35.37,0,0,1-3,12.63c-3.54,8.31-9.46,15.09-15.18,21.95-5.56,6.65-11.13,14.6-10.35,23.73a18.12,18.12,0,0,0,.54,3.1.13.13,0,0,0,.24-.07Z"/>
    <path class="cls-1" d="M484.6,433.44c-4.37-2.86-10.24-.48-13,3.49-3.73,5.32-1.72,12.67,1.62,17.64,1.74,2.6,4,4.94,7.1,5.69a11.35,11.35,0,0,0,8-1.15c5.3-2.91,7.13-9.74,5.43-15.29a17.27,17.27,0,0,0-5.65-8.14,17.65,17.65,0,0,0-4.43-2.75,1.8,1.8,0,0,0-1.85.05,1,1,0,0,0-.31,1.31c.07.14.29,0,.21-.13-.33-.61.27-1.12.82-1.19a2.93,2.93,0,0,1,1.59.45,17.86,17.86,0,0,1,1.81,1,19.53,19.53,0,0,1,3.25,2.55,16.53,16.53,0,0,1,4.37,7.08c1.54,5.25-.11,11.67-5,14.61a11.14,11.14,0,0,1-7.65,1.44c-3-.55-5.24-2.57-7-5-3.35-4.64-5.58-11.36-2.83-16.82,2.33-4.61,8.74-7.7,13.42-4.63.14.09.26-.13.13-.22Z"/>
    <path class="cls-1" d="M479.88,508.78a5.7,5.7,0,0,0,8.51-1.21.13.13,0,0,0-.22-.13,5.45,5.45,0,0,1-8.12,1.17c-.11-.11-.29.06-.17.17Z"/>
    <path class="cls-1" d="M420.41,389.84q-6.53,11.71-13.84,23t-15.45,22.07Q386.5,441,381.66,447c-.1.12.07.3.17.17q8.49-10.41,16.25-21.38t14.86-22.61q4-6.51,7.69-13.19a.13.13,0,0,0-.22-.12Z"/>
    <path class="cls-1" d="M427.25,395.51,410.94,421c-4.93,7.71-9.73,15.57-15.37,22.8a84.59,84.59,0,0,1-10.14,11c-.12.11.06.29.18.18,6.6-5.93,12-13.07,16.87-20.42,5.39-8.06,10.5-16.31,15.72-24.48l9.27-14.49c.08-.14-.13-.26-.22-.13Z"/>
    <path class="cls-1" d="M380,447a54.26,54.26,0,0,1,5.66,8.11c.08.14.29,0,.21-.13a54.16,54.16,0,0,0-5.69-8.16c-.1-.12-.28.05-.18.18Z"/>
    <path class="cls-1" d="M514.07,433.64c.22-.32-.22-.59-.52-.48-.61.23,0,1,.29,1.18,2,1.59,4.06,3.07,6.09,4.6l12.63,9.55,3.58,2.71,1.69,1.28a9.68,9.68,0,0,1,.95.74c.09.09.3.26.34.38l-.08.69a.31.31,0,0,1-.5-.1.12.12,0,0,0-.24.06c.1.45.65.46,1,.19s.11-1-.23-1.33a28.68,28.68,0,0,0-2.77-2.13l-3.18-2.4-12.43-9.4-3.48-2.63-1.79-1.36-.8-.6c-.33-.25-1.08-.58-.73-1.08-.09.13.13.26.22.13Z"/>
    <path class="cls-1" d="M537.88,453.61c-8.7,11.42-17.36,22.87-26.19,34.19q-1.81,2.34-3.65,4.65l-1.83,2.32c-.17.22-.6,1-.9,1-.09,0-.42-.41-.49-.48l-.66-.65a.12.12,0,1,0-.17.17l1.3,1.3a.14.14,0,0,0,.18,0c8.64-10.86,17-21.9,25.45-32.94l7.17-9.42c.1-.13-.12-.25-.21-.13Z"/>
    <path class="cls-1" d="M515.6,454.19l3.62,3.5,1.75,1.69.9.88a2.07,2.07,0,0,1,.4.44c.06.1.12.39,0,.44s-.12-.11-.14-.11a.13.13,0,0,0-.07-.24c-.48.14.07.81.43.55s.15-.55,0-.76a6.92,6.92,0,0,0-1.19-1.23L515.78,454c-.11-.11-.29.07-.18.18Z"/>
    <path class="cls-1" d="M521.26,461.54l-18.53,23.94-5.26,6.8a.12.12,0,0,0,0,.17,23.21,23.21,0,0,0,6.57,4.22c.15.06.27-.16.13-.22a23.45,23.45,0,0,1-3.64-1.93c-.57-.37-1.12-.77-1.65-1.19-.25-.2-.51-.41-.75-.62-.4-.35-.35-.43,0-.85l5.64-7.29L515,470l6.41-8.28c.1-.12-.08-.3-.18-.17Z"/>
    <path class="cls-1" d="M402,975.55q-6.78,37.79-11.64,75.88c-3.26,25.56-6.1,51.18-9.1,76.77l-5.1,43.51c0,.16.23.16.25,0l9-76.92c3-25.61,6-51.22,9.81-76.72q3.19-21.27,7-42.45c0-.16-.22-.22-.24-.07Z"/>
    <path class="cls-1" d="M376.94,1172.57a301.92,301.92,0,0,1,48.41,6c15.51,3.13,30.91,7,46.59,9.15a161.68,161.68,0,0,0,26.28,1.69c.16,0,.16-.26,0-.25-15.86.39-31.58-2.21-47.07-5.39s-31.13-7-46.95-9.07q-13.56-1.82-27.26-2.33a.13.13,0,0,0,0,.25Z"/>
    <path class="cls-1" d="M500.13,1190.65q1.67-19.73,4.11-39.38,2.49-19.82,5.76-39.53c2.16-13,4.61-26,7.27-38.92,1.29-6.22,2.53-12.45,3.26-18.77s1-12.42,1.35-18.65c.61-12.33,1.12-24.81,4.46-36.77.42-1.5.88-3,1.39-4.46,0-.16-.19-.22-.24-.07-4,11.65-5,24-5.61,36.22-.32,6.23-.56,12.46-1.1,18.68a173.36,173.36,0,0,1-2.82,19.23c-2.6,13-5.23,26-7.46,39.06s-4.17,26-5.87,39-3.14,26.21-4.32,39.36c-.15,1.66-.29,3.33-.43,5,0,.16.23.16.25,0Z"/>
    <path class="cls-1" d="M348.43,969.54a245.81,245.81,0,0,0-25.83,36.05,131,131,0,0,0-9.65,20.17c-2.67,7.13-5,14.42-7.26,21.7-2.45,8-4.43,16.3-4.44,24.75a.13.13,0,0,0,.25,0c0-7.62,1.63-15.11,3.75-22.39s4.45-14.29,7-21.31a132.07,132.07,0,0,1,9.3-20.53c3.61-6.4,7.61-12.6,11.82-18.61q7.14-10.2,15.28-19.66c.1-.12-.07-.3-.18-.17Z"/>
    <path class="cls-1" d="M240.22,1036.81q20.07,7.88,39.86,16.49,5.52,2.4,11,4.86c.14.07.27-.15.12-.21q-19.6-8.79-39.52-16.84-5.69-2.31-11.4-4.54c-.15-.06-.21.18-.06.24Z"/>
    <path class="cls-1" d="M244.68,1025.15q20.1,8.46,40.32,16.6,5.75,2.31,11.5,4.6c.15.06.21-.18.06-.24q-20.25-8.05-40.39-16.42-5.72-2.37-11.42-4.78c-.15-.06-.21.18-.07.24Z"/>
    <path class="cls-1" d="M296.12,1048a155.29,155.29,0,0,1,11.93-34.06A252.46,252.46,0,0,1,326,983.57c3.69-5.48,7.49-10.89,11.29-16.29.09-.13-.13-.26-.22-.13-6.8,9.67-13.61,19.35-19.76,29.46a182.37,182.37,0,0,0-15.65,31.7,154.33,154.33,0,0,0-5.77,19.63.12.12,0,0,0,.24.06Z"/>
    <path class="cls-1" d="M292.36,1057.37c-1.28,1.5-1,3.61-.93,5.44q.15,3.82.14,7.65,0,7.66-.67,15.3-.37,4.31-.95,8.59c0,.16.23.16.25,0a184.2,184.2,0,0,0,1.56-29.32c0-1.33-.12-2.66-.14-4a5.06,5.06,0,0,1,.91-3.5c.11-.13-.07-.3-.17-.18Z"/>
    <path class="cls-1" d="M230.44,1068.54q13.14,4.67,26.12,9.78t26,10.77c1.19.51,2.37,1,3.56,1.56s2.27,1.07,3.43,1.52c.32.12,1.22.21,1-.4-.1-.32-.51-.46-.65-.12-.06.15.18.22.24.07-.24.59-1.11,0-1.49-.21l-1.55-.69-2.89-1.27-5.67-2.46q-5.7-2.44-11.44-4.8-11.55-4.74-23.26-9.13-6.65-2.49-13.33-4.86c-.15,0-.22.19-.06.24Z"/>
    <path class="cls-1" d="M227.31,1077.35q12.45,4.79,24.76,10t24.62,10.81q6.84,3.14,13.62,6.39c.14.07.27-.14.12-.21Q278.29,1098.46,266,1093t-24.5-10.35q-7-2.85-14.1-5.56c-.16-.06-.22.18-.07.24Z"/>
    <path class="cls-1" d="M237.52,1141.66q19.7,9.1,39.87,17.1,5.67,2.25,11.36,4.4c.1,0,.21-.1.14-.19l-.89-1.25c-.09-.13-.31,0-.22.13l.9,1.25.14-.18q-20.26-7.67-40.08-16.45-5.56-2.48-11.09-5c-.15-.07-.28.15-.13.22Z"/>
    <path class="cls-1" d="M243.53,1155.65a74.38,74.38,0,0,0,16.42,6.27c2.87.73,5.77,1.34,8.61,2.18a47.43,47.43,0,0,1,8.27,3.43,58.47,58.47,0,0,0,9.05,3.83c.15.05.22-.19.07-.24a53.76,53.76,0,0,1-8.37-3.49,51.56,51.56,0,0,0-7.85-3.43c-2.75-.88-5.57-1.5-8.37-2.18a81.49,81.49,0,0,1-8.35-2.47,72.7,72.7,0,0,1-9.35-4.12c-.15-.07-.27.14-.13.22Z"/>
    <path class="cls-1" d="M286.12,1171.79c1.46,8.9-1.26,17.74-4.05,26.09-.39,1.19-.79,2.38-1.19,3.56l-.61,1.85c-.07.19-.65,2-.8,1.89.13.09.25-.13.12-.22l0,0a.15.15,0,0,0-.13,0,.27.27,0,0,0,.16.51c.27,0,.36-.36.44-.57.23-.65.43-1.31.65-2,.84-2.51,1.7-5,2.51-7.55a69.75,69.75,0,0,0,3.47-15.13,34,34,0,0,0-.28-8.49c0-.15-.26-.09-.24.07Z"/>
    <path class="cls-1" d="M297.07,1180.22c.51,9.43-3.52,18.27-7.65,26.51-.62,1.24-1.25,2.46-1.87,3.69l-.95,1.87c-.09.18-.92,2-1.17,1.79.12.11.3-.07.18-.18-.28-.26-.56.25-.33.46.58.54,1.31-1.49,1.43-1.72,1.32-2.6,2.65-5.2,3.93-7.82a69.36,69.36,0,0,0,5.88-15.48,33.7,33.7,0,0,0,.8-9.12c0-.16-.26-.16-.25,0Z"/>
    <path class="cls-1" d="M298.37,1180.23l72.16,13.36c23.85,4.4,47.71,8.75,71.69,12.34,13.32,2,26.67,3.76,40.06,5.18.16,0,.16-.23,0-.25-24.1-2.55-48.06-6.23-71.94-10.35s-47.65-8.63-71.45-13L298.44,1180c-.16,0-.23.21-.07.24Z"/>
    <path class="cls-1" d="M369.62,1214.19a50,50,0,0,1-.37,7.83c-.16,1.32-.38,2.64-.65,4-.14.66-.29,1.32-.45,2l-.24.92c0,.14-.07.28-.12.42a.83.83,0,0,1-.08.22c-.06.23-.22.25-.49,0,.14,0,.08-.3-.07-.24-.59.22,0,1.15.6.61s.5-1.35.64-1.9c.23-.93.43-1.86.61-2.79a51,51,0,0,0,.87-11,.13.13,0,0,0-.25,0Z"/>
    <path class="cls-1" d="M371.84,1212.24l28.35,3.8,28.22,3.78,16,2.14c.16,0,.16-.23,0-.25l-28.35-3.8-28.22-3.78-16-2.14c-.16,0-.16.22,0,.25Z"/>
    <path class="cls-1" d="M302.68,1074.34l-1.25-1.39-.09.21q17.91,1.69,35.61,4.94c3.29.61,6.57,1.25,9.85,1.94l0-.23-1.85.88c-.15.07,0,.29.12.22l1.86-.88a.13.13,0,0,0,0-.23q-17.52-3.66-35.3-5.79c-3.41-.41-6.82-.77-10.23-1.1-.11,0-.15.14-.09.22l1.25,1.39c.11.12.29-.06.18-.18Z"/>
    <path class="cls-1" d="M300.63,1080c6-.84,12.05.39,18,1.42l17.49,3,9.91,1.72a.13.13,0,0,0,.15-.09,8.28,8.28,0,0,0,.38-2.52,4.56,4.56,0,0,0-.33-2.11c-.23-.38-1.32-1-1.32-.18a.13.13,0,0,0,.25,0c0-.34.45-.07.53,0a1,1,0,0,1,.4.52,4.74,4.74,0,0,1,.21,1.44,8,8,0,0,1-.36,2.8l.16-.09-18-3.12c-5.86-1-11.71-2.21-17.61-3a37.72,37.72,0,0,0-9.9-.1c-.16,0-.09.26.06.24Z"/>
    <path class="cls-1" d="M302,1080.23a300.36,300.36,0,0,0-2.4,34.43q-.06,4.93,0,9.87a.12.12,0,0,0,.12.12,446.39,446.39,0,0,1,45,6.82q6.24,1.26,12.44,2.72c.15,0,.22-.21.06-.24q-19.43-4.54-39.22-7.35-4.86-.69-9.75-1.27l-4.86-.55-2.44-.25c-.3,0-.91,0-1.1-.25a2.46,2.46,0,0,1,0-.61c0-.29,0-.58,0-.87q-.15-10,.37-20,.57-11.32,2-22.6c0-.16-.23-.15-.25,0Z"/>
    <path class="cls-1" d="M299.48,1132.11c.2-.52-1-.4-.62.23.31.46,1.18.3,1.63.29,1.05,0,2.11,0,3.16.07a122.6,122.6,0,0,1,12.81,1.52l25.62,4,14.54,2.27a.12.12,0,0,0,.15-.12l.1-7.32a.13.13,0,0,0-.25,0l-.1,7.32.16-.12L334,1136.71c-7.52-1.18-15-2.46-22.56-3.49-2-.28-4.06-.51-6.09-.67-1.06-.07-2.11-.13-3.17-.15l-1.46,0c-.22,0-1.69.18-1.49-.34-.06.15.18.22.24.07Z"/>
    <path class="cls-1" d="M299.92,1133.05q.51,14.13.18,28.29c-.07,2.7-.15,5.4-.26,8.1l.23-.07-.37-.54c-.09-.13-.31,0-.22.13l.37.54a.13.13,0,0,0,.24-.06q.57-14.14.3-28.29-.08-4.05-.22-8.1a.13.13,0,0,0-.25,0Z"/>
    <path class="cls-1" d="M290.06,1103.84a289.91,289.91,0,0,1,.16,45.27q-.48,6.39-1.25,12.75c0,.16.23.16.25,0a289.75,289.75,0,0,0,1.86-45.24c-.16-4.26-.42-8.53-.77-12.78,0-.16-.26-.16-.25,0Z"/>
    <path class="cls-1" d="M300.52,1169.22q19.47,4.18,39,8t39.19,7.1c13.07,2.21,26.16,4.24,39.26,6.23a390.3,390.3,0,0,1,38.37,7.49c12.17,3.12,24.41,6.53,37,7,1.61.07,3.23.08,4.84,0a.13.13,0,0,0,0-.25c-12.8.25-25.3-2.84-37.62-6-6.22-1.6-12.44-3.2-18.74-4.49s-12.92-2.4-19.42-3.41c-13-2-26-4-39-6.13s-26-4.49-39-7-26.06-5.09-39.05-7.85l-4.77-1c-.16,0-.23.21-.07.24Z"/>
    <path class="cls-1" d="M548.78,994.84c-3.25,12.72-6.11,25.55-8.68,38.43s-4.85,25.82-7,38.78-4,26-5.87,39-3.63,26.06-5.45,39.09-3.68,26-5.68,39l-.78,5c0,.16.22.22.24.06,2-13,3.93-26,5.76-39s3.61-26.07,5.45-39.09,3.72-26,5.78-39,4.27-25.92,6.77-38.82,5.27-25.73,8.42-38.48L549,994.9a.12.12,0,0,0-.24-.06Z"/>
    <path class="cls-1" d="M535.7,994.84,523,1076.13c-4.23,27-8.51,54.09-12.62,81.16q-3.45,22.76-6.7,45.52c0,.16.22.23.24.07,3.83-27.09,8-54.13,12.2-81.16s8.47-54.16,12.71-81.24L536,994.91c0-.16-.22-.23-.25-.07Z"/>
    <path class="cls-2" d="M702.1,416.88c-23-99-98.58-207-222.77-231.53-20.27-5.57-36-9.12-55.95-7.12a114.55,114.55,0,0,0-33.05,8.45c-96.17,31.79-140.91,132.55-165.42,210.23C191,504.27,224.7,603.29,272,702.47c1,3.75,2.23,7.89,4,12.82,7,19.49,11.56,22.62,16.68,42,4.2,15.94,5.38,29.9,5.56,46.7.69,66.45-15.53,73.23-5.56,88.73,17.58,27.32,67.94,6.16,177.94,30.36,15.7,3.45,30.28,7.31,43.31,10.64a54.19,54.19,0,0,0,16.83,4.13c20.82,4.77,36,6.39,42.73-.76,4.92-5.19,2.69-12.06,1.17-21.88a3,3,0,0,0,.5-1.7l17.92-57.46c19.64-21.72,33-57.8,61-133.79,17.94-48.61,28.09-76.1,33.82-99.37A352.23,352.23,0,0,0,702.1,416.88Z"/>
    <path class="cls-2" d="M283.78,964.26a568.2,568.2,0,0,1,58.39,2.33c25,2.29,43.95,5.7,63.94,9.34,46.78,8.54,43.11,10.88,66.73,14,54.32,7.21,74.11-5.11,86.19,7,8.65,8.67.82,17.28-5.56,65.38-4.18,31.57-1.28,31.43-5.56,56-6.1,35.11-9.15,52.67-22.24,67.72-20.5,23.58-52,31.55-75.07,37.36-16.82,4.25-37.16,5.17-77.85,7-53.89,2.43-64.63-1-72.29-4.67-12.58-6.1-20.43-16.52-36.14-37.36-13.6-18-23.5-31.17-30.59-51.37-3.87-11-12.21-35.79-5.56-65.39,2.38-10.61,3.22-6.38,11.12-30.35,10-30.24,9.53-39.69,19.46-53.71C263.21,981.33,270.72,972.75,283.78,964.26Z"/>
    <path class="cls-1" d="M397.83,552.16A65.21,65.21,0,0,1,415,565.38c.11.12.29-.06.18-.18A65.64,65.64,0,0,0,398,551.94c-.14-.08-.26.14-.12.22Z"/>
  </g>
</svg>
