<svg xmlns="http://www.w3.org/2000/svg" width="200" height="200" viewBox="0 0 200 200">
  <defs>
    <style>
      .cls-1 {
        fill: #e7bf44;
        isolation: isolate;
      }
    </style>
  </defs>
  <g id="for-_baggrund" data-name="for- + baggrund">
    <path class="cls-1" d="M152.08,61.5a24.15,24.15,0,0,0-7.68-8.12,2.92,2.92,0,0,0-1.84-.51l-.06-.07c-2.09-3.58-5.61-5.84-9.77-7.21a3.68,3.68,0,0,0-1.38-.41c-7.74-2.12-17.26-1.45-23.9-.44a73.28,73.28,0,0,0-7.66,1.59c-2.87.57-5.69,1.26-8.4,2.06A88.66,88.66,0,0,0,58.78,66.1c-9.41,8.09-18.2,18.59-19,31.47-.78,13.1,5.83,25.9,14.72,35.12,9.1,9.42,21.16,15.12,33.89,17.74,13.36,2.75,27.68,2,39.25-5.87a78.11,78.11,0,0,0,24.87-28.28,50.25,50.25,0,0,0,5-15.12,39.18,39.18,0,0,0,1.51-4.79A43,43,0,0,0,152.08,61.5Zm-50.44,38.62c-.37.17-.74.32-1.12.48a.94.94,0,0,0,0-.16l1.16-.46ZM116,142.53c.34-.14.68-.28,1-.44a55.4,55.4,0,0,0,12.22-7.61A43.47,43.47,0,0,1,116,142.53Z"/>
    <g>
      <g>
        <path d="M109.33,87.6a3.92,3.92,0,0,0,4-.35,11.56,11.56,0,0,0,2.83-3c1.19-1.64,2.35-4,1-5.5a4.37,4.37,0,0,0-1.88-1c-3-1-6.36-2.06-9.38-1-2.18.77-3.85,2.53-5.42,4.22-3.87,4.15-7.83,8.46-9.8,13.77s-1.5,12,2.67,15.82a3.94,3.94,0,0,0,2.08,1.14,4.39,4.39,0,0,0,2.09-.43c2-.82,4.11-2.06,4.94-4.1s-.34-4.92-2.53-5.07a9.18,9.18,0,0,1-1.39-.06c-1.53-.39-1.67-2.51-1.33-4.06a28.41,28.41,0,0,1,6.09-12.32c1-1.19,2.29-2.37,3.85-2.38s3,1.93,2,3.14"/>
        <path d="M108.57,88.89a5.64,5.64,0,0,0,6.27-1A12.88,12.88,0,0,0,117,85.47,12.33,12.33,0,0,0,118.54,83c.91-2,1-4.43-1-5.86a10.38,10.38,0,0,0-3-1.25,24.93,24.93,0,0,0-3.37-.88,10.88,10.88,0,0,0-7,.81,17.89,17.89,0,0,0-4.79,4A60.42,60.42,0,0,0,91.23,90,21.37,21.37,0,0,0,88,101.3a14.43,14.43,0,0,0,4.1,10.18A5.62,5.62,0,0,0,95,113.12a6.28,6.28,0,0,0,3.6-.72,10.2,10.2,0,0,0,4.7-3.67,5.76,5.76,0,0,0,.35-5.45,4.87,4.87,0,0,0-1.67-2,4.59,4.59,0,0,0-2.78-.69s-.62,0-.33,0c0,0-.19-.14-.07,0s-.09-.19,0,0-.2-.38-.07-.09a2.58,2.58,0,0,1-.16-.56c-.06-.3,0-.12,0-.06,0-.1,0-.21,0-.31a5,5,0,0,1,0-.55,1.94,1.94,0,0,1,0-.24c0,.23,0,0,0-.06,0-.24.09-.48.15-.71A27.16,27.16,0,0,1,104,87a8.05,8.05,0,0,1,2-1.94,2.26,2.26,0,0,1,1-.33h.25c-.22,0,0,0,.06,0-.16-.06.27.14.34.2-.17-.14.26.32.12.13a1,1,0,0,1,.12.19c.11.23-.07-.17,0,.05a1.6,1.6,0,0,1,0,.21c0-.27,0,0,0,0a.28.28,0,0,1,0-.22s-.13.2-.17.25a1.51,1.51,0,0,0,.54,2,1.53,1.53,0,0,0,2-.53c1.22-1.67.15-3.94-1.45-4.88-1.92-1.11-4.07-.23-5.61,1.09a20.88,20.88,0,0,0-3.77,4.74,30.44,30.44,0,0,0-2.68,5.43,18,18,0,0,0-1.4,5.57c-.06,1.76.59,3.66,2.38,4.29a5,5,0,0,0,1.64.17h.35s-.21,0,0,0l.28.07c.22.08-.17-.09,0,0a1.94,1.94,0,0,1,.84,1c.05.15.09.29.13.44s0,.2,0,.3,0-.2,0,0a4.69,4.69,0,0,1,0,.53s0,.25,0,.1,0,.21-.06.25a4.06,4.06,0,0,1-1.12,1.73,8.41,8.41,0,0,1-2,1.36,4.87,4.87,0,0,1-2.34.78c-.71-.07-1.33-.78-1.8-1.28a8.42,8.42,0,0,1-1.3-1.82,13.7,13.7,0,0,1-1.2-9.19,24.26,24.26,0,0,1,5-9.93c1.23-1.58,2.57-3.08,3.92-4.55a34,34,0,0,1,4.11-4.12,7.27,7.27,0,0,1,5.11-1.5,15.87,15.87,0,0,1,3.11.62,24.82,24.82,0,0,1,2.88.94,3.16,3.16,0,0,1,.64.38.79.79,0,0,1,.2.72,4.72,4.72,0,0,1-.73,2c-.8,1.37-2,3.13-3.44,3.8a2.2,2.2,0,0,1-2,.06,1.53,1.53,0,0,0-2,.54,1.51,1.51,0,0,0,.54,2Z"/>
      </g>
      <path d="M114.35,78a45.92,45.92,0,0,1-2.59,3.88l-.33.44-.16.22c.09-.12,0-.07,0,0-.24.3-.48.61-.73.91-.51.61-1,1.22-1.58,1.81a1.5,1.5,0,0,0,2.12,2.12,49.09,49.09,0,0,0,5.88-7.88A1.5,1.5,0,0,0,114.35,78Z"/>
      <path d="M101.26,102.27c-.26.43-.54.85-.84,1.25l-.09.12c.06-.08.06-.09,0,0l-.24.29c-.16.19-.33.37-.5.56-.35.36-.71.71-1.09,1l-.58.49c.16-.13-.06,0-.11.08l-.31.22a16.53,16.53,0,0,1-2.56,1.45l-.13,0-.35.14c-.23.08-.47.17-.71.24a13.89,13.89,0,0,1-1.54.39,1.5,1.5,0,0,0,.8,2.9,16.76,16.76,0,0,0,10.84-7.71,1.5,1.5,0,0,0-2.59-1.51Z"/>
    </g>
    <path d="M69.37,130.83,71.85,99l2.49-31.83c.34-4.3.52-8.73,2-12.82a13.71,13.71,0,0,1,7.32-7.82,22.15,22.15,0,0,1,5.13-1.48,35.86,35.86,0,0,1,5.57-.47c4.4-.06,8.79.4,13.17.75l31.72,2.52,4,.31-1.5-1.5c1.31,12.46-.08,25-2.15,37.26-2.1,12.5-4.56,25-6.87,37.41l-3.49,18.8c-.29,1.53-.56,3.07-.86,4.6a11.41,11.41,0,0,1-1.18,3.78,5.2,5.2,0,0,1-2.19,2,10.32,10.32,0,0,1-3,1,44.91,44.91,0,0,1-7.57.39c-3.06,0-6.13,0-9.19-.17-6.15-.25-12.3-.78-18.4-1.61s-12.19-2-18.2-3.36a9.71,9.71,0,0,1-2-.51c-.25-.12-.25-.3-.23-.72a35.34,35.34,0,0,1,.79-4.21L69,132.05l.89-4.62a1.54,1.54,0,0,0-1-1.84,1.51,1.51,0,0,0-1.84,1l-1.87,9.72-.94,4.86a23.82,23.82,0,0,0-.75,4.57,3.46,3.46,0,0,0,2.61,3.38c1.47.47,3,.74,4.55,1.07q4.66,1,9.38,1.81a198.13,198.13,0,0,0,38.3,2.76,20.28,20.28,0,0,0,7.12-1.18,8.91,8.91,0,0,0,5.35-5.81,39.19,39.19,0,0,0,.94-4.43l.88-4.8,1.81-9.7c2.39-12.91,4.84-25.8,7.17-38.72,2.3-12.76,4.28-25.74,3.59-38.75-.09-1.59-.21-3.17-.38-4.76a1.56,1.56,0,0,0-1.5-1.5L110.92,42.6c-4.76-.38-9.54-.9-14.31-1a36.93,36.93,0,0,0-11.84,1.34,17.37,17.37,0,0,0-9.48,6.92c-2.46,3.78-3.16,8.37-3.58,12.77-.49,5.2-.83,10.41-1.23,15.62L69.2,94.53l-2.52,32.32-.31,4a1.5,1.5,0,0,0,1.5,1.5,1.54,1.54,0,0,0,1.5-1.5Z"/>
    <path d="M80.94,58.1q-1.68,15.62-3.15,31.24t-2.73,31.27q-.7,8.82-1.35,17.64a.51.51,0,0,0,.5.5L111.83,143l10.64,1.19a.5.5,0,0,0,.48-.37c1.21-5.77.73-11.73,1.2-17.57a127.86,127.86,0,0,1,2.65-16.74c2.4-11,5.66-21.92,7.39-33.12a85.32,85.32,0,0,0,1-18.68.51.51,0,0,0-.5-.5l-41.35-3-11.71-.86a.49.49,0,0,0-.48.37,21,21,0,0,0-.71,7c0,.64,1,.64,1,0a20,20,0,0,1,.67-6.76l-.48.37,41.35,3,11.71.86-.5-.5c.75,11.21-1.38,22.3-4,33.16s-5.64,21.75-6.85,32.92c-.34,3.21-.47,6.43-.54,9.65a55.31,55.31,0,0,1-.85,10.12l.48-.37-37.62-4.21-10.64-1.19.5.5q1.14-15.66,2.49-31.3T80.11,75.7Q81,66.9,81.94,58.1c.07-.63-.93-.63-1,0Z"/>
  </g>
</svg>
