<svg id="original" xmlns="http://www.w3.org/2000/svg" width="250" height="250" viewBox="0 0 250 250">
  <defs>
    <style>
      .cls-1 {
        fill: #020202;
      }

      .cls-2 {
        fill: none;
        stroke: #1d1d1b;
        stroke-miterlimit: 10;
        stroke-width: 3px;
      }
    </style>
  </defs>
  <g>
    <path class="cls-1" d="M114.37,134.82q.3,6.74.19,13.47a.13.13,0,0,0,.25,0q.1-6.73-.19-13.47c0-.16-.26-.16-.25,0Z"/>
    <path class="cls-1" d="M123.44,145.17a14.86,14.86,0,0,0-4.07,1.54,22.92,22.92,0,0,1-4.55,1.35c-.16,0-.09.28.07.24l2.3-.59a11.61,11.61,0,0,0,2-.65c.71-.33,1.38-.73,2.1-1a11.18,11.18,0,0,1,2.19-.63c.16,0,.09-.27-.06-.24Z"/>
    <path class="cls-1" d="M123.38,145.26a56.29,56.29,0,0,1-.27-11.68.12.12,0,0,0-.07-.1l0,0a.14.14,0,0,0-.15,0l-.06,0a.13.13,0,0,0,0,.12.28.28,0,0,0,.12.18.12.12,0,0,0,.17-.18c-.2-.18-.26.71-.26.75,0,.23,0,.46,0,.69,0,.49,0,1-.06,1.48,0,.95,0,1.9,0,2.86,0,2,.2,3.91.43,5.85,0,.16.27.16.25,0Z"/>
    <path class="cls-1" d="M123,133.26a8.06,8.06,0,0,0-2,.21l-2.27.43-4.36.84c-.16,0-.09.27.07.24l4.19-.8,2.1-.4a9.32,9.32,0,0,1,2.23-.27.13.13,0,0,0,0-.25Z"/>
    <path class="cls-1" d="M137,137.41c.31-.08.19-.44.08-.63a12.08,12.08,0,0,1-.64-1.42,11.26,11.26,0,0,1-.65-3c0-.16-.27-.16-.25,0a11.76,11.76,0,0,0,.9,3.65c.08.19.17.38.26.56s.32.56.23.58-.08.28.07.24Z"/>
    <path class="cls-1" d="M135.58,132.27c-1.9.14-3.79.39-5.68.68l-2.75.41-1.27.2c-.28,0-.57,0-.75.25a.15.15,0,0,0,0,.13c.07.08.1.11.21.1a.13.13,0,0,0,.12-.09v0c0-.16-.22-.23-.24-.07a7.37,7.37,0,0,0,1.24-.12l1.12-.17,2.58-.39c1.8-.27,3.6-.5,5.41-.64.16,0,.16-.27,0-.25Z"/>
    <path class="cls-1" d="M125.16,133.73c.33,3.74-.78,7.45-.37,11.21,0,.15.27.16.25,0-.41-3.76.7-7.47.37-11.21,0-.16-.26-.17-.25,0Z"/>
    <path class="cls-1" d="M136.79,137.2a59.46,59.46,0,0,0-5.62,3.66,27,27,0,0,1-5.77,3.76c-.15.06,0,.28.12.21a24.66,24.66,0,0,0,5.5-3.53,59.49,59.49,0,0,1,5.9-3.89.12.12,0,0,0-.13-.21Z"/>
    <path class="cls-1" d="M125.61,144.62h0l0,0-.07,0-.07,0,0,0h-.09l-.07,0h-.14a.13.13,0,0,0-.13.13.12.12,0,0,0,.13.12,1.36,1.36,0,0,0,.7-.29.13.13,0,0,0,0-.18.14.14,0,0,0-.18,0Z"/>
    <path class="cls-1" d="M140.88,148.57a.25.25,0,0,0,.38.15.15.15,0,0,0,.06-.15c-.32-1.9-.69-3.81-1.1-5.7,0-.16-.27-.09-.24.07q.61,2.84,1.1,5.7l.06-.14h0a.13.13,0,0,0-.24.07Z"/>
    <path class="cls-1" d="M135,145.42q-.85,4.62-1.47,9.3c0,.16.23.15.25,0q.6-4.64,1.46-9.23c0-.16-.21-.23-.24-.07Z"/>
    <path class="cls-1" d="M132.58,146.56l-1.53,11.11c0,.16.22.22.24.07l1.54-11.12c0-.15-.22-.22-.25-.06Z"/>
    <path class="cls-1" d="M141.42,141.25c.65,2,.56,4.23,1.27,6.25.06.15.3.08.25-.07-.72-2-.63-4.21-1.28-6.25,0-.15-.29-.08-.24.07Z"/>
    <path class="cls-1" d="M152.67,139.14a4.16,4.16,0,0,0-2.27-.19c-1,.12-2,.26-3,.41q-3.07.48-6.11,1.16a.14.14,0,0,0-.09.16,3.9,3.9,0,0,0,.39,1.24c.07.15.29,0,.22-.12a3.92,3.92,0,0,1-.37-1.19l-.08.15q2.72-.6,5.46-1c1-.16,1.92-.3,2.89-.43a5.09,5.09,0,0,1,2.79.08c.14.06.27-.15.12-.22Z"/>
    <path class="cls-1" d="M134,152.21a8.64,8.64,0,0,0-1.69-.14c-.16,0-.16.26,0,.25a7.43,7.43,0,0,1,1.63.14c.15,0,.22-.22.06-.25Z"/>
    <path class="cls-1" d="M160.5,132.57a20.9,20.9,0,0,0-5.28.52q-2.72.47-5.43,1c-3.62.66-7.23,1.39-10.83,2.16-.16,0-.09.28.07.25,3.51-.77,7-1.47,10.58-2.13,1.77-.32,3.54-.64,5.32-.93a22.25,22.25,0,0,1,5.57-.58c.16,0,.15-.23,0-.25Z"/>
    <path class="cls-1" d="M139.05,136.37c-2.24-2.39-2.3-5.88-2.39-9l-.34-11.55c0-.16-.26-.16-.25,0,.12,4.08.23,8.15.36,12.23.1,2.95.32,6.2,2.45,8.47.11.12.28-.06.17-.18Z"/>
    <path class="cls-1" d="M134.36,116.37c.11,4.82.11,9.67.5,14.48,0,.16.27.16.25,0-.39-4.81-.39-9.66-.5-14.48a.13.13,0,1,0-.25,0Z"/>
    <path class="cls-1" d="M135,130.62a8.45,8.45,0,0,1-2.61,0,22.73,22.73,0,0,0-2.6.12l-5.08.44-10.3.89c-.16,0-.16.27,0,.25l10.55-.91,5.2-.45a17.51,17.51,0,0,1,2.61-.07,6.52,6.52,0,0,0,2.29-.06.12.12,0,0,0-.06-.24Z"/>
    <path class="cls-1" d="M114.36,132.33a117.83,117.83,0,0,1,.45-14.55c0-.16-.23-.16-.25,0a117.83,117.83,0,0,0-.45,14.55c0,.16.26.16.25,0Z"/>
    <path class="cls-1" d="M134.35,116.13q-9.82.45-19.59,1.75c-.15,0-.16.27,0,.25q9.75-1.3,19.59-1.75c.16,0,.16-.26,0-.25Z"/>
    <path class="cls-1" d="M139.89,142.59a26.73,26.73,0,0,1-4.81,2.34c-.15,0-.08.29.07.24a26.92,26.92,0,0,0,4.86-2.36c.14-.09,0-.3-.12-.22Z"/>
    <path class="cls-1" d="M132.35,146.45a115.1,115.1,0,0,0-13.46,6.17c-.14.07,0,.29.13.21a115,115,0,0,1,13.4-6.14c.15-.05.08-.3-.07-.24Z"/>
    <path class="cls-1" d="M119,152.57A46.66,46.66,0,0,1,117.34,164a.13.13,0,0,0,.24.07,47.16,47.16,0,0,0,1.63-11.45c0-.17-.24-.17-.25,0Z"/>
    <path class="cls-1" d="M125,169.51a45.46,45.46,0,0,1-3.65-2.72l-3.71-3c-.13-.1-.3.07-.18.18l3.82,3.05a42.29,42.29,0,0,0,3.6,2.66c.13.09.26-.12.12-.21Z"/>
    <path class="cls-1" d="M123.62,172.81a62.19,62.19,0,0,0-11.46-8.9c-.13-.08-.26.14-.12.22a61.91,61.91,0,0,1,11.4,8.86.13.13,0,0,0,.18-.18Z"/>
    <path class="cls-1" d="M111.77,164a35.13,35.13,0,0,0,.5,8.12c0,.15.27.15.25,0A35.13,35.13,0,0,1,112,164c0-.16-.23-.16-.25,0Z"/>
    <path class="cls-1" d="M110.38,162.81a12.35,12.35,0,0,0-.33,3.79c0,1.42,0,2.85.07,4.27,0,.16.26.16.25,0,0-1.37-.05-2.74-.07-4.11a13,13,0,0,1,.32-3.89c0-.15-.19-.22-.24-.06Z"/>
    <path class="cls-1" d="M110.44,162.82A67.25,67.25,0,0,0,102.8,157c-.13-.09-.26.13-.13.21a68.57,68.57,0,0,1,7.6,5.75c.12.11.3-.07.17-.17Z"/>
    <path class="cls-1" d="M102.72,157q-10.25,1.4-20.58,1.83c-.16,0-.16.26,0,.25q10.36-.45,20.65-1.83c.16,0,.09-.27-.07-.25Z"/>
    <path class="cls-1" d="M82.16,158.77l-1,1.4a.12.12,0,0,0,0,.17.13.13,0,0,0,.17,0l1-1.4a.12.12,0,0,0,0-.17.13.13,0,0,0-.17,0Z"/>
    <path class="cls-1" d="M104.54,161.72c-.44,1.2-.83,2.42-1.17,3.65-.07.29-.15.58-.22.88a6.7,6.7,0,0,0-.21.91c0,.27.32.38.33.08a.14.14,0,0,0-.09-.12h0a.13.13,0,0,0-.07.25h0l-.09-.12h0l.11-.06c.07,0,.09,0,.08-.09a1.6,1.6,0,0,1,.05-.21c0-.1,0-.2.07-.31s.11-.48.18-.72c.11-.45.23-.89.36-1.34.28-.92.58-1.82.91-2.72.06-.15-.18-.22-.24-.07Z"/>
    <path class="cls-1" d="M104.7,162c-.29-1.4-1.89-1.81-3.09-2.07a34.13,34.13,0,0,0-6-.77,35,35,0,0,0-12,1.61.13.13,0,0,0,.07.24,35,35,0,0,1,11-1.63,34.69,34.69,0,0,1,5.67.56c1.35.25,3.7.48,4,2.13,0,.16.28.09.24-.07Z"/>
    <path class="cls-1" d="M117.21,153.41c.05,3,.5,6.54-1.18,9.23-.09.14.13.26.21.13,1.71-2.74,1.27-6.29,1.22-9.36,0-.17-.26-.17-.25,0Z"/>
    <path class="cls-1" d="M116.07,163q-4.23-3.3-8.13-7c-.12-.11-.3.06-.18.17,2.6,2.46,5.32,4.79,8.13,7,.13.1.3-.08.18-.18Z"/>
    <path class="cls-1" d="M107.68,156a14.6,14.6,0,0,1,4.67-1.88c.81-.18,1.64-.32,2.46-.44l1.29-.17.66-.08.33,0c.14,0,.22,0,.24-.16-.16,0-.16.24,0,.25a.17.17,0,0,0,.18-.23c-.09-.25-.59-.09-.75-.07-1.06.12-2.12.25-3.17.44a16.46,16.46,0,0,0-6,2.16c-.13.09,0,.3.13.22Z"/>
    <path class="cls-1" d="M112.68,149c-4.35.91-8.77,1.53-13.15,2.25s-8.87,1.54-13.36,1.26c-.16,0-.16.24,0,.25,4.43.28,8.82-.51,13.18-1.22s9-1.37,13.4-2.3c.16,0,.09-.27-.07-.24Z"/>
    <path class="cls-1" d="M107.36,147.29q-11.08,1.14-22.2,2c-.16,0-.17.26,0,.25q11.1-.83,22.2-2c.15,0,.16-.27,0-.25Z"/>
    <path class="cls-1" d="M86,152.48c-1-5.23-2-10.52-1.72-15.88.16-2.61.32-5.22.31-7.84s-.13-5.29-.23-7.93l-.35-9a.13.13,0,0,0-.25,0c.21,5.37.5,10.74.57,16.1,0,2.67-.06,5.33-.25,8a41.83,41.83,0,0,0,.21,7.91c.34,2.93.91,5.84,1.47,8.74,0,.16.27.09.24-.06Z"/>
    <path class="cls-1" d="M79.76,152.83c-.66,0-1.31.11-2,.21l.14.19a.71.71,0,0,1,.26-.33c.13-.09,0-.3-.13-.21a1,1,0,0,0-.35.41.13.13,0,0,0,.15.18c.62-.09,1.25-.16,1.89-.2.16,0,.16-.26,0-.25Z"/>
    <path class="cls-1" d="M80,152.76a72.06,72.06,0,0,0,.39-9.74.13.13,0,0,0-.25,0,72.06,72.06,0,0,1-.39,9.74c0,.16.23.16.25,0Z"/>
    <path class="cls-1" d="M168.5,117a33,33,0,0,0-5.77-2.2,23.77,23.77,0,0,0-6.12-.59c-4.31.1-8.62.76-12.89,1.23l-7.47.82c-.15,0-.16.27,0,.25L149,115.1c4.17-.46,8.47-1.08,12.64-.3a29.59,29.59,0,0,1,6.76,2.4c.14.06.27-.15.12-.22Z"/>
    <path class="cls-1" d="M169.13,115a17.42,17.42,0,0,0-4.68-1.45c-.15,0-.22.2-.06.24l.2,0c.16,0,.23-.2.07-.24l-.21,0-.06.24a16.57,16.57,0,0,1,4.61,1.43c.15.06.28-.15.13-.22Z"/>
    <path class="cls-1" d="M168.8,113.29a.39.39,0,0,0,.24,0,.12.12,0,0,0,0-.24c-.44,0-.88.11-1.32.13a4.55,4.55,0,0,1-1.28-.06,2.51,2.51,0,0,0-1,.1,2.87,2.87,0,0,0-.57.11,1.14,1.14,0,0,1-.44.11c-.16,0-.16.23,0,.25a.92.92,0,0,0,.4-.08,2.68,2.68,0,0,1,.56-.13,3.71,3.71,0,0,0,.48-.1,1.26,1.26,0,0,1,.61,0,4.16,4.16,0,0,0,.62,0q.3,0,.6,0c.44,0,.88-.13,1.32-.13l0-.25h-.1c-.16,0-.22.21-.07.24Z"/>
    <path class="cls-1" d="M168.72,111.34a19.18,19.18,0,0,1-3.6.59c-.58,0-1.16,0-1.74,0a8.36,8.36,0,0,0-1.73.07c-.15,0-.09.27.07.24a8.89,8.89,0,0,1,1.86,0q.9,0,1.8-.06a21.55,21.55,0,0,0,3.4-.57.13.13,0,0,0-.06-.25Z"/>
    <path class="cls-1" d="M169.09,111.25l.31-7.3a39.73,39.73,0,0,1,.62-7.23c0-.16-.21-.23-.24-.07a38.66,38.66,0,0,0-.62,7l-.32,7.55c0,.16.24.16.25,0Z"/>
    <path class="cls-1" d="M169.59,96.46a26.11,26.11,0,0,1-4.14-.21,17.11,17.11,0,0,0-4.1.37c-.15,0-.09.28.07.25a16.39,16.39,0,0,1,4.19-.37,23.1,23.1,0,0,0,4,.21c.16,0,.16-.27,0-.25Z"/>
    <path class="cls-1" d="M161.14,96.76q.31,7.59.29,15.21a.13.13,0,0,0,.25,0q0-7.62-.29-15.21c0-.16-.26-.17-.25,0Z"/>
    <path class="cls-1" d="M170.8,111.5a72.94,72.94,0,0,1,.33-11.06c0-.16-.23-.16-.25,0a72.94,72.94,0,0,0-.33,11.06c0,.16.26.17.25,0Z"/>
    <path class="cls-1" d="M176.21,102.1h.25a.13.13,0,0,0,.07-.24,12.18,12.18,0,0,0-2.86-1.27,11.48,11.48,0,0,0-1.52-.34q-.37-.06-.75-.09c-.18,0-.38-.08-.52,0a.11.11,0,0,0,0,.12.15.15,0,0,0,.12.12.12.12,0,0,0,.14,0v0c.09-.14-.13-.26-.21-.13v0l.14-.06h0l.09.09v0l0,.12a1.52,1.52,0,0,1,.29,0l.34,0,.78.11q.66.14,1.32.33a11.87,11.87,0,0,1,2.61,1.2l.06-.23h-.25a.13.13,0,0,0,0,.25Z"/>
    <path class="cls-1" d="M176.4,100.75l.61.2c.14,0,.23-.17.1-.23a19.65,19.65,0,0,0-5.48-1.78c-.16,0-.23.21-.07.24a19.55,19.55,0,0,1,5.42,1.76l.1-.23-.61-.2c-.15-.05-.22.19-.07.24Z"/>
    <path class="cls-1" d="M159.65,111.74c.61-5-.38-10,0-15,0-.16-.24-.16-.25,0-.36,5,.63,10,0,15,0,.16.23.16.25,0Z"/>
    <path class="cls-1" d="M159.39,97.17l.05-.07a.17.17,0,0,0,0-.1.11.11,0,0,0-.06-.07.12.12,0,0,0-.1,0,.13.13,0,0,0-.07.06l0,.07a.12.12,0,0,0,0,.1.09.09,0,0,0,.05.07.12.12,0,0,0,.1,0,.11.11,0,0,0,.07-.06Z"/>
    <path class="cls-1" d="M159.63,96.82a73.6,73.6,0,0,1-.08-11.21c0-.16-.24-.16-.25,0a73.6,73.6,0,0,0,.08,11.21c0,.15.26.16.25,0Z"/>
    <path class="cls-1" d="M159.1,85.59l-6.25.61a19.28,19.28,0,0,0-5.58,1.06c-.14.06-.08.3.07.24a19.62,19.62,0,0,1,5.74-1.07l6-.59c.16,0,.16-.27,0-.25Z"/>
    <path class="cls-1" d="M159.31,111.77q-11.66.72-23.24,2.27c-.16,0-.16.27,0,.25q11.58-1.55,23.24-2.27c.16,0,.16-.26,0-.25Z"/>
    <path class="cls-1" d="M133.74,114.29q-7.55.6-15.11.88a.13.13,0,0,0,0,.25q7.56-.28,15.11-.88c.16,0,.16-.26,0-.25Z"/>
    <path class="cls-1" d="M118.84,115.42c-.69-5.37-.89-10.78-1.19-16.18l-.93-16.36-.52-9.18c0-.16-.26-.16-.25,0,.62,10.9,1.2,21.8,1.86,32.7.18,3,.4,6,.78,9,0,.16.27.16.25,0Z"/>
    <path class="cls-1" d="M117.66,115.29a1.36,1.36,0,0,0-.8-.07l-1.09.21-2.17.42c-.16,0-.09.27.06.24l2-.38,1-.18a1.53,1.53,0,0,1,1,0c.14.06.27-.15.12-.22Z"/>
    <path class="cls-1" d="M117.77,115.36c-.6-5.43-1-10.89-1.32-16.35a58.41,58.41,0,0,0-.57-7.82,27,27,0,0,1-.54-4c-.07-1.35-.11-2.69-.17-4l-.36-9.26c0-.17-.26-.17-.25,0l.32,8.15a59.38,59.38,0,0,0,.48,7.77,37.52,37.52,0,0,1,.61,4.08c.09,1.34.12,2.68.18,4q.18,4.09.5,8.18.36,4.65.87,9.28c0,.16.27.16.25,0Z"/>
    <path class="cls-1" d="M112.72,148.93c-.51-8.62.39-17.23.5-25.85,0-2.42,0-4.84-.16-7.25,0-.16-.26-.16-.25,0,.6,8.6-.38,17.21-.49,25.81,0,2.43,0,4.86.15,7.29,0,.16.26.16.25,0Z"/>
    <path class="cls-1" d="M107.59,147.6q.25-14.31.47-28.62t.37-28.41l.18-15.87a.13.13,0,0,0-.25,0Q108.2,88.85,108,103t-.41,28.49q-.14,8.06-.28,16.12a.13.13,0,0,0,.25,0Z"/>
    <path class="cls-1" d="M114.66,73.66c-1.51-.11-2.87.56-4.33.79-1.73.27-3.51.31-5.26.5-1.58.16-3.15.36-4.72.58q-1.26.18-2.52.39l-1.2.2c-.15,0-1.59.35-1.57.37s.28-.06.17-.18l0,0a.15.15,0,0,0-.16,0,.18.18,0,0,0-.11.16.11.11,0,0,0,0,.14c.14.08.23,0,.4,0,.44-.06.87-.16,1.31-.23l2.63-.43q2.69-.41,5.38-.7c1.73-.18,3.46-.28,5.18-.47s3.13-1,4.77-.85c.16,0,.16-.24,0-.25Z"/>
    <path class="cls-1" d="M123.49,71.09l-27,2.54c-.15,0-.16.26,0,.25l27-2.54c.16,0,.16-.26,0-.25Z"/>
    <path class="cls-1" d="M128.38,73a57.23,57.23,0,0,0-12.2.44c-.16,0-.09.27.07.24a56.57,56.57,0,0,1,12.13-.43c.16,0,.16-.24,0-.25Z"/>
    <path class="cls-1" d="M122.66,53.22a20.09,20.09,0,0,1,.57,4.45l.36,4.6a33.41,33.41,0,0,1-.09,9c0,.15.21.22.24.06a33.85,33.85,0,0,0,.1-9c-.12-1.58-.24-3.15-.37-4.73a21,21,0,0,0-.56-4.39.13.13,0,0,0-.25.07Z"/>
    <path class="cls-1" d="M125.55,70.76a12.78,12.78,0,0,1-.32-4.36c0-1.54-.07-3.08-.16-4.61-.19-3.08-.48-6.15-.49-9.23a.13.13,0,0,0-.25,0c0,3.16.31,6.31.5,9.47.09,1.54.16,3.08.15,4.61a12,12,0,0,0,.33,4.18c0,.16.3.09.24-.06Z"/>
    <path class="cls-1" d="M142.32,49.46c-1,3.35-2,6.7-2.78,10.11s-1.3,6.61-1.74,10c0,.15.23.15.25,0,.44-3.41,1-6.79,1.78-10.13s1.74-6.6,2.73-9.87c.05-.15-.19-.22-.24-.07Z"/>
    <path class="cls-1" d="M137.76,69.32a116.84,116.84,0,0,1-12.38,1.36c-.16,0-.16.26,0,.25a118,118,0,0,0,12.44-1.37c.16,0,.1-.27-.06-.24Z"/>
    <path class="cls-1" d="M156.8,68.52c-2.91,0-5.81.32-8.71.62l-8.8.91c-.16,0-.16.27,0,.25l8.8-.91c2.9-.3,5.8-.59,8.71-.62a.13.13,0,0,0,0-.25Z"/>
    <path class="cls-1" d="M139.36,70c1.19-3.31,1.11-6.89,2-10.27a50.92,50.92,0,0,0,1.38-5.12,24.3,24.3,0,0,1,1.36-5.1c.06-.15-.19-.21-.24-.06a23,23,0,0,0-1.36,5.1,50.73,50.73,0,0,1-1.38,5.11c-.9,3.38-.81,7-2,10.28-.05.15.19.21.25.06Z"/>
    <path class="cls-1" d="M158.9,70.38a90.21,90.21,0,0,0-12.41.31c-4.08.41-8.14,1.07-12.22,1.54-2.34.27-4.68.48-7,.6-.16,0-.16.26,0,.25,8.21-.41,16.3-2.22,24.52-2.49,2.38-.08,4.76,0,7.14,0,.16,0,.16-.24,0-.25Z"/>
    <path class="cls-1" d="M161.67,53.48a3.94,3.94,0,0,0-.93,1.28c-.29.55-.6,1.09-.94,1.61a25.32,25.32,0,0,1-2.28,3.06c-.11.12.07.3.17.18a24.17,24.17,0,0,0,2.21-2.93q.49-.76.93-1.56a4.42,4.42,0,0,1,1-1.46c.12-.11,0-.28-.18-.18Z"/>
    <path class="cls-1" d="M159.86,52.84a45.54,45.54,0,0,0-2.48,4.07l.22.13.06-.13c.07-.15-.15-.27-.22-.13l-.06.13c-.07.15.14.27.22.13A47.07,47.07,0,0,1,160.07,53c.09-.13-.12-.26-.21-.12Z"/>
    <path class="cls-1" d="M157.54,57.12a15.76,15.76,0,0,0-1.74-3.07l-1.09-1.61-.56-.81-.28-.41c-.05-.07-.24-.27-.22-.35l-.12.09h0V50.8c-.11.12.07.3.17.17l0,0a.12.12,0,0,0,0-.17.13.13,0,0,0-.15-.07.13.13,0,0,0-.12.09c0,.22.13.37.24.54l.6.87,1.15,1.68a17.45,17.45,0,0,1,1.9,3.3c.06.15.3.08.24-.07Z"/>
    <path class="cls-1" d="M174.47,67.27a40.08,40.08,0,0,1-8,.78c-1.26,0-2.53.07-3.8.14-.67,0-1.34.1-2,.17a5,5,0,0,1-1.92.1c-.16-.06-.22.18-.07.24a3.26,3.26,0,0,0,1.52,0c.7-.08,1.41-.15,2.12-.19,1.38-.1,2.77-.13,4.15-.17a40.87,40.87,0,0,0,8-.79.13.13,0,0,0-.07-.24Z"/>
    <path class="cls-1" d="M159,68.64a53.35,53.35,0,0,0-1.16-9.35c0-.12-.23-.13-.25,0l0,.18c0,.16.21.23.24.07l0-.19h-.25a52,52,0,0,1,1.16,9.29c0,.16.26.16.25,0Z"/>
    <path class="cls-1" d="M156.93,68.57q-.39-4.89-.79-9.78c0-.16-.26-.16-.25,0q.41,4.89.79,9.78c0,.16.26.16.25,0Z"/>
    <path class="cls-1" d="M156.29,58.65q-2.49-4.18-5.21-8.24c-.09-.13-.3,0-.21.13q2.72,4.05,5.2,8.24c.08.14.3,0,.22-.13Z"/>
    <path class="cls-1" d="M172.88,69.83c-.14-.22-.3-.22-.55-.22-.56,0-1.13,0-1.69,0-1,0-2.1.08-3.15.16q-3.17.21-6.31.66c-.16,0-.09.26.07.24q2.88-.4,5.79-.62c.9-.07,1.8-.12,2.7-.16l1.35,0c.26,0,1.41-.17,1.57.07s.31,0,.22-.12Z"/>
    <path class="cls-1" d="M173,69.89c-.57,3.8-1.34,7.6-1.64,11.43s-.67,7.79-.61,11.7a.13.13,0,0,0,.25,0c-.06-3.83.29-7.64.59-11.45s1.07-7.76,1.65-11.62c0-.15-.22-.22-.24-.06Z"/>
    <path class="cls-1" d="M178.44,85.75h0l-.15,0,0,0v-.17a1.17,1.17,0,0,1-.27,0l-.34,0-.59,0-1.23.08-1.17.08-.59,0a3.1,3.1,0,0,1-.58,0l0,.12v0l-.09.08h0L173.4,86v0c.07.14.29,0,.21-.13h0a.12.12,0,0,0-.14-.06c-.07,0-.09.05-.12.11a.13.13,0,0,0,0,.13c.13.1.3,0,.47,0l.68,0L176,86l1.42-.1.69,0c.14,0,.33,0,.44-.09a.12.12,0,0,0,0-.17l0,0a.14.14,0,0,0-.15,0l0,0c-.13.09,0,.3.13.21Z"/>
    <path class="cls-1" d="M178.24,83.8a.2.2,0,0,0,.17,0,.12.12,0,0,0,0-.23,1.8,1.8,0,0,0-.95,0l-.57.11c-.24,0-.47.07-.71.11s-.44.09-.67.11l-.6,0c-.45,0-.89.1-1.34.13l.12.16a.18.18,0,0,1,.09-.08.12.12,0,0,0-.13-.21.33.33,0,0,0-.2.23.12.12,0,0,0,.12.15c.42,0,.84-.09,1.26-.12a8.77,8.77,0,0,0,1.14-.1c.38-.08.77-.12,1.15-.19.21,0,.41-.1.62-.12a1.27,1.27,0,0,1,.55,0l0-.23h0c-.15,0-.22.19-.07.24Z"/>
    <path class="cls-1" d="M173.62,84.24q.8-7.62,1.7-15.23c0-.16-.23-.16-.25,0q-.91,7.6-1.7,15.23c0,.16.24.16.25,0Z"/>
    <path class="cls-1" d="M178.11,94.68a15.83,15.83,0,0,0-3.43-1.49l-.9-.23c-.18,0-.46-.16-.64-.07s.07.51.22.26a.15.15,0,0,0,0-.13l0,0c-.09-.13-.31,0-.21.13V93s.63.19.7.21l.6.16c.41.11.82.25,1.22.4A14.52,14.52,0,0,1,178,94.9c.14.08.27-.14.13-.22Z"/>
    <path class="cls-1" d="M173,92.92a21.61,21.61,0,0,1-1.33,6.35c0,.15.19.22.24.07a22.08,22.08,0,0,0,1.34-6.42c0-.16-.24-.16-.25,0Z"/>
    <path class="cls-1" d="M178.05,92.91l-2.64-.61a11.92,11.92,0,0,1-2.49-.75c-.15-.06-.27.15-.13.22a12.38,12.38,0,0,0,2.45.75l2.75.63a.12.12,0,0,0,.06-.24Z"/>
    <path class="cls-1" d="M173.15,91.63l.25-5.57-.19.11.24.13a.13.13,0,0,0,.12-.22l-.23-.13a.12.12,0,0,0-.19.11l-.25,5.57a.13.13,0,0,0,.25,0Z"/>
    <path class="cls-1" d="M171,92.77a11.54,11.54,0,0,0-.31,2.42c0,.16.24.16.25,0a11.73,11.73,0,0,1,.3-2.36.12.12,0,0,0-.24-.06Z"/>
    <path class="cls-1" d="M170.76,95a7.52,7.52,0,0,1-2.54-.2c-.72-.11-1.45-.19-2.18-.23a26,26,0,0,0-4.67.13c-.15,0-.16.27,0,.25a26.22,26.22,0,0,1,4.85-.12c.83.06,1.65.16,2.47.3a6.16,6.16,0,0,0,2.14.11c.15,0,.09-.27-.07-.24Z"/>
    <path class="cls-1" d="M161.6,95q.19-6.09-.11-12.16c-.09-2-.24-4-.41-5.93a23.52,23.52,0,0,1,0-6.16c0-.16-.21-.23-.24-.07a21.7,21.7,0,0,0-.06,5.75c.17,2.05.34,4.1.44,6.16q.32,6.19.12,12.41c0,.16.24.16.25,0Z"/>
    <path class="cls-1" d="M158.73,70.55c-.22,4.61,1.31,9.12.8,13.72,0,.16.24.16.25,0,.51-4.6-1-9.11-.8-13.72,0-.16-.24-.16-.25,0Z"/>
    <path class="cls-1" d="M159.59,83.86a68.8,68.8,0,0,0-11.36,1.25,23.79,23.79,0,0,1-3,.46,21.32,21.32,0,0,1-2.88-.08,19.83,19.83,0,0,0-5.49.22c-.15,0-.09.27.07.24a21.13,21.13,0,0,1,5.78-.18,20.1,20.1,0,0,0,5.36-.37,69.81,69.81,0,0,1,11.53-1.29c.16,0,.16-.26,0-.25Z"/>
    <path class="cls-1" d="M145.81,87.24a24.48,24.48,0,0,0-4.69-.07c-.71,0-1.43.14-2.14.26-.32,0-1.21,0-1.17.56,0,.16.26.16.25,0s1.79-.44,2-.47c.62-.07,1.25-.13,1.88-.16a26.17,26.17,0,0,1,3.86.13c.16,0,.16-.24,0-.25Z"/>
    <path class="cls-1" d="M147.22,87.57a69.89,69.89,0,0,0,.84,12.09c0,.16.26.09.24-.07a70,70,0,0,1-.83-12c0-.16-.24-.16-.25,0Z"/>
    <path class="cls-1" d="M145.69,87.83c.09,2.23.18,4.47.28,6.7a22.83,22.83,0,0,0,.82,6c.05.15.29.09.24-.07a23.54,23.54,0,0,1-.82-6.14l-.27-6.48c0-.16-.26-.16-.25,0Z"/>
    <path class="cls-1" d="M148.41,99.63a9.43,9.43,0,0,0-1.61.75c-.14.08,0,.29.13.21a9.75,9.75,0,0,1,1.54-.71c.15-.06.09-.3-.06-.25Z"/>
    <path class="cls-1" d="M136.64,114.42h0l-.09-.12.12,0v-.14c0-.1,0-.19,0-.29l0-.52-.06-1-.13-2.07-.07-1a1.52,1.52,0,0,0-.09-.7c-.15-.22-.52,0-.38.21s.3,0,.22-.13a1.47,1.47,0,0,1,0,.28,1.79,1.79,0,0,0,0,.23l0,.46.06,1,.12,1.89.06.92a7.89,7.89,0,0,0,0,.84c.05.24.39.34.38,0a.13.13,0,0,0-.09-.12h0c-.15-.05-.22.19-.07.24Z"/>
    <path class="cls-1" d="M136.06,108.73c-3.11.21-6.22.41-9.33.68a.13.13,0,0,0-.12.16l.07.31c0,.16.27.09.24-.06l-.06-.32-.13.16c3.11-.27,6.22-.47,9.33-.68.16,0,.16-.26,0-.25Z"/>
    <path class="cls-1" d="M134,112l-.28-1.46a.39.39,0,0,0-.1-.25.18.18,0,0,0-.24,0,.16.16,0,0,0,.21.25.13.13,0,1,0-.18-.18l0,0h.06c.08,0,.09.08,0,.14l-.06,0c-.06,0,0,0,0,0s0,.07,0,.09l0,.2.08.42.16.85c0,.16.27.09.24-.06Z"/>
    <path class="cls-1" d="M133.29,110.39l-6.78.51.12.09a4.29,4.29,0,0,1,0-1.29c0-.16-.21-.22-.24-.07a4.57,4.57,0,0,0,0,1.43.12.12,0,0,0,.12.09l6.78-.51c.16,0,.16-.26,0-.25Z"/>
    <path class="cls-1" d="M98.44,177.7c-3.07,8.42-6.69,16.6-10.26,24.81l-3.09,7.09c-.06.14.15.27.22.12,3.59-8.24,7.32-16.45,10.65-24.81q1.41-3.56,2.72-7.14c.06-.15-.19-.22-.24-.07Z"/>
    <path class="cls-1" d="M85.1,209.61a62,62,0,0,0-10-4.07,46.16,46.16,0,0,1-9.85-4.07.12.12,0,0,0-.13.21,43.67,43.67,0,0,0,9.49,4A64.62,64.62,0,0,1,85,209.82c.14.08.27-.14.13-.21Z"/>
    <path class="cls-1" d="M64.94,201.7q3-6.31,5.47-12.84,1.23-3.27,2.34-6.57A43.14,43.14,0,0,1,75.47,176a25.22,25.22,0,0,0,2.61-6.48c0-.16-.21-.23-.24-.07-.85,4.16-3.54,7.64-4.94,11.61-1.55,4.39-3.07,8.77-4.87,13.07-1,2.5-2.15,5-3.31,7.43-.07.14.15.27.22.13Z"/>
    <path class="cls-1" d="M107.07,181.59a36.27,36.27,0,0,1,.61,10.13,41.68,41.68,0,0,1-.92,4.94,16.22,16.22,0,0,1-1.58,4.49c-.08.14.13.27.21.13a15.86,15.86,0,0,0,1.56-4.34,44.17,44.17,0,0,0,1-5,35.54,35.54,0,0,0-.59-10.44c0-.16-.27-.09-.24.07Z"/>
    <path class="cls-1" d="M117.69,201.11q-4.8-.75-9.61-1.26c-.16,0-.16.23,0,.25q4.78.51,9.54,1.25c.16,0,.23-.22.07-.24Z"/>
    <path class="cls-1" d="M118,199q-4.83-.63-9.66-1.36c-.16,0-.23.22-.07.24,3.24.49,6.49.94,9.73,1.37.16,0,.16-.23,0-.25Z"/>
    <path class="cls-1" d="M108.35,198.06c1.63-5.21,1.35-10.51.89-15.87,0-.16-.26-.16-.25,0,.46,5.34.74,10.62-.88,15.8,0,.15.19.22.24.07Z"/>
    <path class="cls-1" d="M107.81,199.77a1.39,1.39,0,0,1-.34.86c-.14.21-.27.43-.4.64-.28.46-.54.93-.8,1.41-.49.92-.94,1.87-1.35,2.84-.06.15.18.22.24.07a33.36,33.36,0,0,1,1.48-3.07c.26-.47.53-.94.81-1.4s.67-.85.61-1.35c0-.16-.27-.16-.25,0Z"/>
    <path class="cls-1" d="M116.37,206.76c-1.86-.34-3.72-.66-5.59-.93l-2.62-.37-1.3-.16-.65-.07c-.08,0-1.07-.09-1,0s.29,0,.22-.12l0,0a.12.12,0,0,0-.14-.06.16.16,0,0,0-.15.11.14.14,0,0,0,0,.15c.16.17.45.14.67.16l1.51.18c1,.12,2.07.26,3.1.41q3,.43,5.91,1c.16,0,.23-.22.07-.25Z"/>
    <path class="cls-1" d="M116.07,208.37q-6-1-12-1.45c-.16,0-.15.24,0,.25q6,.5,11.89,1.44c.16,0,.23-.21.07-.24Z"/>
    <path class="cls-1" d="M108.82,217.19c-3.21-.31-6.41-.72-9.6-1.26l0,.23.25-.11c.15-.06,0-.28-.13-.21l-.24.11a.12.12,0,0,0,0,.23c3.2.53,6.43.95,9.66,1.26.16,0,.16-.24,0-.25Z"/>
    <path class="cls-1" d="M106.68,218.78a17.53,17.53,0,0,1-3.93-.77,8.52,8.52,0,0,0-1.74-.35,14.41,14.41,0,0,1-2.07-.23c-.16,0-.23.2-.07.24a12.41,12.41,0,0,0,1.93.23,8.8,8.8,0,0,1,2,.39,17,17,0,0,0,3.86.74.13.13,0,0,0,0-.25Z"/>
    <path class="cls-1" d="M98.72,217.51a7.47,7.47,0,0,0-1.34,2.76c-.15.51-.26,1-.37,1.56-.07.29-.13.59-.19.88s-.16.45,0,.62a.13.13,0,0,0,.14.06.15.15,0,0,0,.06-.27h0c-.14-.07-.27.14-.12.21h0l0-.14v0l.09-.09h0l.14,0c0-.06.07-.35.08-.42l.09-.44.15-.67q.14-.71.33-1.38a7.09,7.09,0,0,1,1.27-2.6c.1-.13-.08-.31-.18-.18Z"/>
    <path class="cls-1" d="M96.3,217.85a7.5,7.5,0,0,0-1,3.13c-.07.55-.12,1.11-.15,1.67,0,.3,0,.59,0,.89s-.1.48,0,.65a.14.14,0,0,0,.15,0c.07,0,.08-.08.09-.16s0-.1-.09-.12h0c-.15,0-.22.19-.07.25h0l-.1-.12v0l.06-.11h0l.16,0s0-.3,0-.36l0-.46c0-.25,0-.5,0-.75,0-.52.08-1.05.16-1.57a7.31,7.31,0,0,1,1-2.9c.09-.13-.12-.26-.21-.12Z"/>
    <path class="cls-1" d="M96.27,217.67c-7.93-2.84-15.91-5.57-23.74-8.67-2.27-.9-4.52-1.84-6.75-2.84-.15-.07-.27.15-.13.22,7.68,3.43,15.65,6.18,23.56,9l7,2.51c.15.05.22-.19.07-.24Z"/>
    <path class="cls-1" d="M82.34,216.6a8.74,8.74,0,0,0-.85,1.77,3.68,3.68,0,0,0-.15.47.71.71,0,0,0-.07.4c.08.28.48.08.33-.11s-.31,0-.21.12c.08,0,.12-.06.13-.12l0-.09c0-.06,0-.11,0-.16s.06-.22.1-.33.15-.42.24-.63a11.36,11.36,0,0,1,.62-1.2c.09-.13-.13-.26-.21-.12Z"/>
    <path class="cls-1" d="M82.35,216l-11.83-4.92c-.14-.06-.21.18-.06.24l11.82,4.92c.15.06.21-.18.07-.24Z"/>
    <path class="cls-1" d="M104.94,201.56l.31-.1c.09,0,.13-.18,0-.22a73.29,73.29,0,0,0-7.51-3,.12.12,0,0,0-.14.18l.2.3c.09.13.31,0,.21-.13l-.2-.29-.14.18a72.55,72.55,0,0,1,7.45,2.95l0-.23-.31.1c-.15.05-.08.29.07.24Z"/>
    <path class="cls-1" d="M104.79,202.33a13.06,13.06,0,0,0-3.43-1.59l-4-1.49.09.16c.06-.25.28-.47.33-.7,0,.16.21.22.24.07v-.05a.11.11,0,0,0,0-.12c-.4-.32-.72.45-.79.73a.12.12,0,0,0,.08.15l3.87,1.44a12.8,12.8,0,0,1,3.52,1.62c.12.1.25-.12.12-.22Z"/>
    <path class="cls-1" d="M104.36,202.3a54.2,54.2,0,0,1-3.54,6.91l.17-.05a80.34,80.34,0,0,0-9.56-3.63.12.12,0,0,0-.06.24,79.86,79.86,0,0,1,9.49,3.61.13.13,0,0,0,.18,0,55.4,55.4,0,0,0,3.54-6.9c.06-.15-.15-.27-.22-.13Z"/>
    <path class="cls-1" d="M100.41,210.53c.08-.07-1-.64-1.09-.68-.34-.16-.68-.31-1-.45-.78-.32-1.56-.61-2.34-.92l-5-1.95.08.19.63-1.12c.07-.14-.14-.27-.22-.13l-.63,1.12a.13.13,0,0,0,.07.18l5.17,2c.87.34,1.74.66,2.6,1,.36.16.71.32,1.06.51s.44.34.69.29a.13.13,0,0,0,.09-.13c0-.09,0-.12-.09-.18a.15.15,0,0,0-.16,0l0,0c-.12.11.06.29.18.18Z"/>
    <path class="cls-1" d="M100,210.47c-1.13,1.79-2.2,3.63-3.19,5.5a.13.13,0,0,0,.17.18l.1-.05c.15-.07,0-.29-.12-.22l-.11.05.18.17q1.49-2.81,3.19-5.51c.08-.13-.13-.26-.22-.12Z"/>
    <path class="cls-1" d="M104.08,206.92a51.25,51.25,0,0,0-4.94,8.87c-.06.14.15.27.22.12A51.32,51.32,0,0,1,104.3,207c.09-.13-.13-.25-.22-.12Z"/>
    <path class="cls-1" d="M96.91,215.81q-6.68-2.17-13.25-4.65c-4.28-1.61-8.48-3.48-12.89-4.73a27.54,27.54,0,0,1-6.87-2.59c-.14-.08-.27.14-.13.22a23.13,23.13,0,0,0,5.67,2.25c2.18.63,4.34,1.28,6.45,2.1,4.44,1.71,8.85,3.46,13.33,5.05,2.53.9,5.07,1.76,7.63,2.6.15.05.21-.2.06-.25Z"/>
    <path class="cls-1" d="M74.55,167.7C72,176.53,68.45,185,65,193.5c-1,2.42-2,4.84-2.92,7.27-.06.15.19.22.24.07,3.34-8.56,7.09-17,10.13-25.62.86-2.46,1.66-4.95,2.37-7.46,0-.15-.19-.22-.24-.06Z"/>
    <path class="cls-1" d="M76.53,168.85c-3.47,8.89-6.92,17.79-10.43,26.67q-1.5,3.81-3,7.59c-.06.15.18.21.24.07,3.6-8.82,7-17.72,10.47-26.59l3-7.68c.06-.15-.18-.21-.24-.06Z"/>
    <path class="cls-2" d="M102.4,66.86c12.19-12.94,33.14-22.62,54.07-15.39,3.55.94,6.25,1.8,9.08,3.85a19.91,19.91,0,0,1,4.25,4.19c11.75,13.27,9.64,32.44,6.5,46.35-4.33,19.21-18.14,31.21-34,42.05-.48.48-1,1-1.74,1.58-2.78,2.33-3.74,2.4-6.22,4.88a31.52,31.52,0,0,0-4.95,6.58c-6,10-4.1,12.43-7,13.9-5.07,2.58-10.82-5-29.58-11.08-2.68-.86-5.22-1.56-7.48-2.2a9.42,9.42,0,0,1-2.91-.86c-3.57-1.11-6-2.2-6.39-3.88-.29-1.22.65-2.06,1.75-3.41a.49.49,0,0,1,.07-.3l2.35-10.26c-1.06-5,.1-11.65,2.55-25.6,1.57-8.93,2.46-14,3.64-18A61.62,61.62,0,0,1,102.4,66.86Z"/>
    <path class="cls-2" d="M117.45,186.44a99.78,99.78,0,0,0-9-4.78c-4-1.86-7.15-3-10.49-4.22-7.83-2.83-7.48-2.15-11.32-3.76-8.85-3.69-10.76-7.3-13.65-6.53-2.07.55-1.65,2.54-4.92,10.38-2.14,5.14-2.57,4.86-4.09,9-2.17,5.84-3.25,8.77-2.6,12.19,1,5.37,5.09,9.36,8.06,12.26,2.17,2.12,5.16,4.05,11.15,7.91,7.93,5.12,9.86,5.55,11.34,5.66,2.44.19,4.54-.69,8.75-2.46,3.65-1.53,6.3-2.65,9.15-5.08a20.32,20.32,0,0,0,6.6-9.39c.57-1.82.07-1.25,1-5.57,1.16-5.45,2-6.84,1.79-9.83A15.75,15.75,0,0,0,117.45,186.44Z"/>
    <path class="cls-1" d="M136.65,86a6.36,6.36,0,0,0,.54,2.15.13.13,0,0,0,.14.06l1.41-.32c.16,0,.09-.28-.07-.24l-1.4.32.14.06a6,6,0,0,1-.51-2c0-.16-.26-.16-.25,0Z"/>
    <path class="cls-1" d="M133.82,112.24c.24,0,.23-.31.06-.41s-.38.19-.39.37c0,.36,0,.72,0,1.07v1.12a.13.13,0,0,0,.25,0v-2a.58.58,0,0,1,0-.26v0s0,0,0,0h0s0,0,.06-.06a.13.13,0,0,0,0,.25Z"/>
  </g>
</svg>
