<svg xmlns="http://www.w3.org/2000/svg" width="200" height="200" viewBox="0 0 200 200">
  <defs>
    <style>
      .cls-1 {
        isolation: isolate;
      }
    </style>
  </defs>
  <g id="baggrunde">
    <g>
      <path d="M73,82.26c-1.41-2.92.93-6.16,3.44-7.52a15.73,15.73,0,0,1,5.24-1.57c2-.31,4-.46,6-.62a149,149,0,0,1,25.35.18q6.35.57,12.61,1.7c2.09.38,4.18.8,6.25,1.26a21.08,21.08,0,0,1,5.52,1.66c2.87,1.57,3.81,5,4.25,8a71.2,71.2,0,0,1,.46,12.3c-.14,4.35-.54,8.68-1.05,13q-.39,3.24-.83,6.46c-.27,2-.49,4-.91,6a13.13,13.13,0,0,1-2.09,5,12.79,12.79,0,0,1-3.69,3.26,29.6,29.6,0,0,1-10.58,3.57,68.17,68.17,0,0,1-12.28.76c-4.25,0-8.5-.23-12.75-.43s-8.79-.48-13.17-.8q-3.3-.24-6.58-.53c-1.83-.16-3.81-.23-5.4-1.27-2.45-1.61-2.86-5-2.92-7.69,0-1.86.09-3.72.17-5.58.11-2.19.22-4.39.34-6.58q.73-13.1,2-26.15c.2-2.15.42-4.29.64-6.43.1-1-1.41-1.33-1.87-.51a4.1,4.1,0,0,1-2.48,2,1,1,0,0,0,.54,1.93,6.25,6.25,0,0,0,3.67-2.94l-1.86-.5q-1.43,13.72-2.29,27.49-.44,6.89-.74,13.78c-.14,3.32-.27,6.86,1.23,9.92a7.22,7.22,0,0,0,3.29,3.35,16.37,16.37,0,0,0,6,1.18q6.88.6,13.78,1t13.8.64a111.87,111.87,0,0,0,13-.16,41.84,41.84,0,0,0,12.21-2.67c3.34-1.36,6.56-3.42,8.41-6.62a16.83,16.83,0,0,0,1.87-5.6c.39-2.16.63-4.33.92-6.5.61-4.51,1.16-9,1.49-13.58A96.61,96.61,0,0,0,144,88.8c-.24-3.48-.55-7.31-2.52-10.31a8.91,8.91,0,0,0-4.14-3.38,34.76,34.76,0,0,0-6-1.58q-6.54-1.41-13.18-2.24a150.38,150.38,0,0,0-26.66-1q-3.36.18-6.72.51a39.51,39.51,0,0,0-5.92.88c-3.56.91-6.88,3.06-8,6.75a6.62,6.62,0,0,0,.37,4.83c.55,1.16,2.28.15,1.72-1Z"/>
      <g class="cls-1">
        <path d="M91.1,85.32q1.05,15,1,30,0,4.23-.09,8.44a.5.5,0,0,0,1,0q.31-15-.42-30-.21-4.22-.51-8.43c0-.64-1-.64-1,0Z"/>
      </g>
      <g class="cls-1">
        <path d="M91.92,85.56a218.23,218.23,0,0,1,25.52,14.16q3.47,2.23,6.85,4.61l.12-.91c-4.65,1.14-8.6,3.91-12.45,6.63L98.7,119.38l-7.54,5.32c-.52.37,0,1.23.5.86l13.15-9.26c4.14-2.92,8.2-6,12.52-8.67a26.08,26.08,0,0,1,7.34-3.25.5.5,0,0,0,.12-.91,217.63,217.63,0,0,0-25-15.12q-3.68-1.89-7.41-3.65c-.58-.27-1.09.59-.51.86Z"/>
      </g>
    </g>
  </g>
</svg>
