<?xml version="1.0" standalone="no"?>
<!DOCTYPE svg PUBLIC "-//W3C//DTD SVG 20010904//EN"
 "http://www.w3.org/TR/2001/REC-SVG-20010904/DTD/svg10.dtd">
<svg version="1.0" xmlns="http://www.w3.org/2000/svg"
 width="700.000000pt" height="700.000000pt" viewBox="0 0 700.000000 700.000000"
 preserveAspectRatio="xMidYMid meet">
<metadata>
Created by potrace 1.11, written by Peter Selinger 2001-2013
</metadata>
<g transform="translate(0.000000,700.000000) scale(0.100000,-0.100000)"
fill="#000000" stroke="none">
<path d="M3365 5926 c-405 -95 -715 -453 -894 -1031 -45 -145 -60 -233 -67
-385 -13 -291 52 -569 232 -980 163 -374 174 -412 181 -595 4 -105 1 -164 -12
-235 -29 -169 -30 -185 -6 -218 34 -48 87 -63 266 -72 326 -18 465 -37 706
-98 201 -51 282 -66 325 -59 54 9 64 22 64 87 0 81 71 308 116 371 55 75 125
235 238 536 123 329 235 676 267 824 31 142 34 471 5 624 -74 398 -294 764
-591 983 -144 106 -269 163 -478 218 -155 40 -266 50 -352 30z"/>
<path d="M2618 2039 c-69 -68 -81 -92 -130 -252 -21 -71 -46 -143 -55 -161
-12 -21 -18 -64 -21 -138 -5 -117 13 -199 65 -303 37 -74 210 -300 253 -330
57 -39 92 -45 275 -45 438 0 683 56 820 188 84 80 121 198 150 487 9 83 25
200 35 262 26 143 25 167 -2 193 -20 18 -35 20 -177 20 -158 0 -254 11 -411
48 -193 46 -393 74 -571 79 l-175 6 -56 -54z"/>
</g>
</svg>
